<?xml version="1.0" encoding="utf-8"?>
<!-- Generator: Adobe Illustrator 24.0.2, SVG Export Plug-In . SVG Version: 6.00 Build 0)  -->
<svg version="1.1" id="Layer_1" xmlns="http://www.w3.org/2000/svg" xmlns:xlink="http://www.w3.org/1999/xlink" x="0px" y="0px"
	 viewBox="0 0 345 135.8" style="enable-background:new 0 0 345 135.8;" xml:space="preserve">
<style type="text/css">
	.st0{fill-rule:evenodd;clip-rule:evenodd;fill:#FFFFFF;}
	.st1{clip-path:url(#SVGID_2_);fill:none;stroke:#D9D9D9;stroke-width:0.5071;stroke-linejoin:round;stroke-miterlimit:10;}
	.st2{clip-path:url(#SVGID_4_);}
	.st3{clip-path:url(#SVGID_6_);fill:none;stroke:#D9D9D9;stroke-width:0.5071;stroke-linejoin:round;stroke-miterlimit:10;}
	.st4{clip-path:url(#SVGID_8_);}
	.st5{clip-path:url(#SVGID_10_);}
	.st6{clip-path:url(#SVGID_12_);}
	.st7{clip-path:url(#SVGID_14_);}
	.st8{clip-path:url(#SVGID_16_);}
	.st9{clip-path:url(#SVGID_18_);}
	.st10{clip-path:url(#SVGID_20_);}
	.st11{clip-path:url(#SVGID_22_);}
	.st12{clip-path:url(#SVGID_24_);}
	.st13{clip-path:url(#SVGID_26_);}
	.st14{clip-path:url(#SVGID_28_);}
	.st15{clip-path:url(#SVGID_30_);}
	.st16{clip-path:url(#SVGID_32_);}
	.st17{clip-path:url(#SVGID_34_);}
	.st18{clip-path:url(#SVGID_36_);}
	.st19{clip-path:url(#SVGID_38_);}
	.st20{clip-path:url(#SVGID_40_);}
	.st21{clip-path:url(#SVGID_42_);}
	.st22{clip-path:url(#SVGID_44_);}
	.st23{clip-path:url(#SVGID_46_);}
	.st24{clip-path:url(#SVGID_48_);fill:none;stroke:#D9D9D9;stroke-width:0.5071;stroke-linejoin:round;stroke-miterlimit:10;}
	.st25{clip-path:url(#SVGID_50_);fill:none;stroke:#D9D9D9;stroke-width:0.5071;stroke-linejoin:round;stroke-miterlimit:10;}
	.st26{clip-path:url(#SVGID_52_);}
	.st27{clip-path:url(#SVGID_54_);fill:none;stroke:#D9D9D9;stroke-width:0.5071;stroke-linejoin:round;stroke-miterlimit:10;}
	.st28{clip-path:url(#SVGID_56_);}
	.st29{clip-path:url(#SVGID_58_);}
	.st30{clip-path:url(#SVGID_60_);}
	.st31{clip-path:url(#SVGID_62_);}
	.st32{clip-path:url(#SVGID_64_);}
	.st33{clip-path:url(#SVGID_66_);}
	.st34{clip-path:url(#SVGID_68_);}
	.st35{clip-path:url(#SVGID_70_);}
	.st36{clip-path:url(#SVGID_72_);}
	.st37{clip-path:url(#SVGID_74_);}
	.st38{clip-path:url(#SVGID_76_);}
	.st39{clip-path:url(#SVGID_78_);}
	.st40{clip-path:url(#SVGID_80_);}
	.st41{clip-path:url(#SVGID_82_);}
	.st42{clip-path:url(#SVGID_84_);}
	.st43{clip-path:url(#SVGID_86_);}
	.st44{clip-path:url(#SVGID_88_);}
	.st45{clip-path:url(#SVGID_90_);}
	.st46{clip-path:url(#SVGID_92_);}
	.st47{clip-path:url(#SVGID_94_);}
	.st48{clip-path:url(#SVGID_96_);}
	.st49{clip-path:url(#SVGID_98_);}
	.st50{clip-path:url(#SVGID_100_);}
	.st51{clip-path:url(#SVGID_102_);}
	.st52{clip-path:url(#SVGID_104_);}
	.st53{clip-path:url(#SVGID_106_);}
	.st54{clip-path:url(#SVGID_108_);fill:none;stroke:#D9D9D9;stroke-width:0.5071;stroke-linejoin:round;stroke-miterlimit:10;}
</style>
<g>
	<polygon class="st0" points="19.9,11.3 324.6,11.3 324.6,125.8 19.9,125.8 19.9,11.3 	"/>
	<polygon class="st0" points="66.1,20.4 307.9,20.4 307.9,106 66.1,106 66.1,20.4 	"/>
	<g>
		<defs>
			<polygon id="SVGID_1_" points="19.9,125.8 324.6,125.8 324.6,11.3 19.9,11.3 19.9,125.8 			"/>
		</defs>
		<clipPath id="SVGID_2_">
			<use xlink:href="#SVGID_1_"  style="overflow:visible;"/>
		</clipPath>
		<path class="st1" d="M106.5,20.7v85.6 M146.6,20.7v85.6 M186.8,20.7v85.6 M227.4,20.7v85.6 M267.5,20.7v85.6 M307.6,20.7v85.6"/>
	</g>
	<g>
		<defs>
			<polygon id="SVGID_3_" points="66.1,106.5 307.9,106.5 307.9,20.4 66.1,20.4 66.1,106.5 			"/>
		</defs>
		<clipPath id="SVGID_4_">
			<use xlink:href="#SVGID_3_"  style="overflow:visible;"/>
		</clipPath>
		<path class="st2" d="M295.7,96.9H66.1V86.8h229.6V96.9L295.7,96.9z M162.6,68.6H66.1V58.4h96.5V68.6L162.6,68.6z M138.8,39.7H66.1
			v-9.6h72.6V39.7L138.8,39.7z"/>
	</g>
	<g>
		<defs>
			<polygon id="SVGID_5_" points="19.9,125.8 324.6,125.8 324.6,11.3 19.9,11.3 19.9,125.8 			"/>
		</defs>
		<clipPath id="SVGID_6_">
			<use xlink:href="#SVGID_5_"  style="overflow:visible;"/>
		</clipPath>
		<line class="st3" x1="66.4" y1="106.3" x2="66.4" y2="20.7"/>
	</g>
	<g>
		<defs>
			<polygon id="SVGID_7_" points="19.9,125.8 324.6,125.8 324.6,11.3 19.9,11.3 19.9,125.8 			"/>
		</defs>
		<clipPath id="SVGID_8_">
			<use xlink:href="#SVGID_7_"  style="overflow:visible;"/>
		</clipPath>
		<g class="st4">
			<defs>
				<rect id="SVGID_9_" x="19.9" y="11.3" width="304.7" height="114.5"/>
			</defs>
			<clipPath id="SVGID_10_">
				<use xlink:href="#SVGID_9_"  style="overflow:visible;"/>
			</clipPath>
			<g class="st5">
				<g>
					<path d="M61.6,118.4c-0.3-0.3-0.4-0.6-0.4-1.1v-2.5c0-0.5,0.1-0.9,0.4-1.1c0.3-0.3,0.6-0.4,1.1-0.4c0.5,0,0.9,0.1,1.2,0.4
						c0.3,0.3,0.4,0.6,0.4,1.1v2.5c0,0.5-0.1,0.9-0.4,1.1s-0.6,0.4-1.1,0.4C62.2,118.8,61.8,118.7,61.6,118.4z M63.3,117.9
						c0.1-0.1,0.2-0.3,0.2-0.6v-2.5c0-0.3-0.1-0.5-0.2-0.6S63,114,62.7,114c-0.3,0-0.5,0.1-0.6,0.2s-0.2,0.3-0.2,0.6v2.5
						c0,0.3,0.1,0.5,0.2,0.6c0.1,0.1,0.3,0.2,0.6,0.2C63,118.1,63.2,118,63.3,117.9z"/>
					<path d="M67.3,115.5c-0.2-0.2-0.2-0.4-0.2-0.7v-0.5c0-0.3,0.1-0.5,0.2-0.7s0.4-0.3,0.7-0.3s0.5,0.1,0.7,0.3s0.2,0.4,0.2,0.7
						v0.5c0,0.3-0.1,0.5-0.2,0.7c-0.2,0.2-0.4,0.2-0.7,0.2C67.7,115.7,67.5,115.6,67.3,115.5z M70.5,113.4h0.7l-2.9,5.4h-0.7
						L70.5,113.4z M68.2,115c0-0.1,0.1-0.1,0.1-0.2v-0.5c0-0.1,0-0.2-0.1-0.2c0-0.1-0.1-0.1-0.2-0.1c-0.1,0-0.2,0-0.2,0.1
						c0,0.1-0.1,0.1-0.1,0.2v0.5c0,0.1,0,0.2,0.1,0.2c0,0.1,0.1,0.1,0.2,0.1C68.1,115.1,68.2,115.1,68.2,115z M70,118.6
						c-0.2-0.2-0.2-0.4-0.2-0.7v-0.5c0-0.3,0.1-0.5,0.2-0.7s0.4-0.3,0.7-0.3s0.5,0.1,0.7,0.3s0.2,0.4,0.2,0.7v0.5
						c0,0.3-0.1,0.5-0.2,0.7c-0.2,0.2-0.4,0.2-0.7,0.2C70.4,118.8,70.2,118.8,70,118.6z M70.9,118.2c0-0.1,0.1-0.1,0.1-0.2v-0.5
						c0-0.1,0-0.2-0.1-0.2c0-0.1-0.1-0.1-0.2-0.1c-0.1,0-0.2,0-0.2,0.1c0,0.1-0.1,0.1-0.1,0.2v0.5c0,0.1,0,0.2,0.1,0.2
						c0,0.1,0.1,0.1,0.2,0.1C70.8,118.3,70.8,118.2,70.9,118.2z"/>
				</g>
			</g>
		</g>
	</g>
	<g>
		<defs>
			<polygon id="SVGID_11_" points="19.9,125.8 324.6,125.8 324.6,11.3 19.9,11.3 19.9,125.8 			"/>
		</defs>
		<clipPath id="SVGID_12_">
			<use xlink:href="#SVGID_11_"  style="overflow:visible;"/>
		</clipPath>
		<g class="st6">
			<defs>
				<rect id="SVGID_13_" x="19.9" y="11.3" width="304.7" height="114.5"/>
			</defs>
			<clipPath id="SVGID_14_">
				<use xlink:href="#SVGID_13_"  style="overflow:visible;"/>
			</clipPath>
			<g class="st7">
				<g>
					<path d="M101.4,118.8h-0.8v-4.6l-0.8,0.5v-0.8l0.8-0.5h0.8V118.8z"/>
					<path d="M103.1,118.4c-0.3-0.3-0.4-0.6-0.4-1.1v-2.5c0-0.5,0.1-0.9,0.4-1.1c0.3-0.3,0.6-0.4,1.1-0.4c0.5,0,0.9,0.1,1.2,0.4
						c0.3,0.3,0.4,0.6,0.4,1.1v2.5c0,0.5-0.1,0.9-0.4,1.1s-0.6,0.4-1.1,0.4C103.7,118.8,103.3,118.7,103.1,118.4z M104.8,117.9
						c0.1-0.1,0.2-0.3,0.2-0.6v-2.5c0-0.3-0.1-0.5-0.2-0.6s-0.3-0.2-0.6-0.2c-0.3,0-0.5,0.1-0.6,0.2s-0.2,0.3-0.2,0.6v2.5
						c0,0.3,0.1,0.5,0.2,0.6c0.1,0.1,0.3,0.2,0.6,0.2C104.5,118.1,104.7,118,104.8,117.9z"/>
					<path d="M108.8,115.5c-0.2-0.2-0.2-0.4-0.2-0.7v-0.5c0-0.3,0.1-0.5,0.2-0.7s0.4-0.3,0.7-0.3s0.5,0.1,0.7,0.3s0.2,0.4,0.2,0.7
						v0.5c0,0.3-0.1,0.5-0.2,0.7c-0.2,0.2-0.4,0.2-0.7,0.2C109.2,115.7,109,115.6,108.8,115.5z M111.9,113.4h0.7l-2.9,5.4H109
						L111.9,113.4z M109.7,115c0-0.1,0.1-0.1,0.1-0.2v-0.5c0-0.1,0-0.2-0.1-0.2c0-0.1-0.1-0.1-0.2-0.1c-0.1,0-0.2,0-0.2,0.1
						c0,0.1-0.1,0.1-0.1,0.2v0.5c0,0.1,0,0.2,0.1,0.2c0,0.1,0.1,0.1,0.2,0.1C109.6,115.1,109.6,115.1,109.7,115z M111.5,118.6
						c-0.2-0.2-0.2-0.4-0.2-0.7v-0.5c0-0.3,0.1-0.5,0.2-0.7s0.4-0.3,0.7-0.3s0.5,0.1,0.7,0.3s0.2,0.4,0.2,0.7v0.5
						c0,0.3-0.1,0.5-0.2,0.7c-0.2,0.2-0.4,0.2-0.7,0.2C111.9,118.8,111.7,118.8,111.5,118.6z M112.4,118.2c0-0.1,0.1-0.1,0.1-0.2
						v-0.5c0-0.1,0-0.2-0.1-0.2c0-0.1-0.1-0.1-0.2-0.1c-0.1,0-0.2,0-0.2,0.1c0,0.1-0.1,0.1-0.1,0.2v0.5c0,0.1,0,0.2,0.1,0.2
						c0,0.1,0.1,0.1,0.2,0.1C112.3,118.3,112.3,118.2,112.4,118.2z"/>
				</g>
			</g>
		</g>
	</g>
	<g>
		<defs>
			<polygon id="SVGID_15_" points="19.9,125.8 324.6,125.8 324.6,11.3 19.9,11.3 19.9,125.8 			"/>
		</defs>
		<clipPath id="SVGID_16_">
			<use xlink:href="#SVGID_15_"  style="overflow:visible;"/>
		</clipPath>
		<g class="st8">
			<defs>
				<rect id="SVGID_17_" x="19.9" y="11.3" width="304.7" height="114.5"/>
			</defs>
			<clipPath id="SVGID_18_">
				<use xlink:href="#SVGID_17_"  style="overflow:visible;"/>
			</clipPath>
			<g class="st9">
				<g>
					<path d="M139.6,118.1l1.9-2.5c0.1-0.1,0.2-0.3,0.3-0.4c0.1-0.2,0.1-0.3,0.1-0.4v0c0-0.2-0.1-0.4-0.2-0.5
						c-0.1-0.1-0.3-0.2-0.5-0.2c-0.2,0-0.4,0.1-0.5,0.2c-0.1,0.1-0.2,0.3-0.2,0.6v0h-0.8v0c0-0.3,0.1-0.6,0.3-0.8
						c0.1-0.2,0.3-0.4,0.5-0.5c0.2-0.1,0.5-0.2,0.8-0.2c0.3,0,0.6,0.1,0.8,0.2c0.2,0.1,0.4,0.3,0.5,0.5c0.1,0.2,0.2,0.5,0.2,0.8v0
						c0,0.2,0,0.4-0.1,0.6c-0.1,0.2-0.2,0.4-0.3,0.6l-1.6,2.1h2v0.7h-3.1V118.1z"/>
					<path d="M144.1,118.4c-0.3-0.3-0.4-0.6-0.4-1.1v-2.5c0-0.5,0.1-0.9,0.4-1.1c0.3-0.3,0.6-0.4,1.1-0.4c0.5,0,0.9,0.1,1.2,0.4
						c0.3,0.3,0.4,0.6,0.4,1.1v2.5c0,0.5-0.1,0.9-0.4,1.1s-0.6,0.4-1.1,0.4C144.7,118.8,144.3,118.7,144.1,118.4z M145.8,117.9
						c0.1-0.1,0.2-0.3,0.2-0.6v-2.5c0-0.3-0.1-0.5-0.2-0.6s-0.3-0.2-0.6-0.2c-0.3,0-0.5,0.1-0.6,0.2s-0.2,0.3-0.2,0.6v2.5
						c0,0.3,0.1,0.5,0.2,0.6c0.1,0.1,0.3,0.2,0.6,0.2C145.5,118.1,145.7,118,145.8,117.9z"/>
					<path d="M149.8,115.5c-0.2-0.2-0.2-0.4-0.2-0.7v-0.5c0-0.3,0.1-0.5,0.2-0.7s0.4-0.3,0.7-0.3s0.5,0.1,0.7,0.3s0.2,0.4,0.2,0.7
						v0.5c0,0.3-0.1,0.5-0.2,0.7c-0.2,0.2-0.4,0.2-0.7,0.2C150.2,115.7,150,115.6,149.8,115.5z M153,113.4h0.7l-2.9,5.4H150
						L153,113.4z M150.7,115c0-0.1,0.1-0.1,0.1-0.2v-0.5c0-0.1,0-0.2-0.1-0.2c0-0.1-0.1-0.1-0.2-0.1c-0.1,0-0.2,0-0.2,0.1
						c0,0.1-0.1,0.1-0.1,0.2v0.5c0,0.1,0,0.2,0.1,0.2c0,0.1,0.1,0.1,0.2,0.1C150.6,115.1,150.7,115.1,150.7,115z M152.5,118.6
						c-0.2-0.2-0.2-0.4-0.2-0.7v-0.5c0-0.3,0.1-0.5,0.2-0.7s0.4-0.3,0.7-0.3s0.5,0.1,0.7,0.3s0.2,0.4,0.2,0.7v0.5
						c0,0.3-0.1,0.5-0.2,0.7c-0.2,0.2-0.4,0.2-0.7,0.2C152.9,118.8,152.7,118.8,152.5,118.6z M153.4,118.2c0-0.1,0.1-0.1,0.1-0.2
						v-0.5c0-0.1,0-0.2-0.1-0.2c0-0.1-0.1-0.1-0.2-0.1c-0.1,0-0.2,0-0.2,0.1c0,0.1-0.1,0.1-0.1,0.2v0.5c0,0.1,0,0.2,0.1,0.2
						c0,0.1,0.1,0.1,0.2,0.1C153.3,118.3,153.4,118.2,153.4,118.2z"/>
				</g>
			</g>
		</g>
	</g>
	<g>
		<defs>
			<polygon id="SVGID_19_" points="19.9,125.8 324.6,125.8 324.6,11.3 19.9,11.3 19.9,125.8 			"/>
		</defs>
		<clipPath id="SVGID_20_">
			<use xlink:href="#SVGID_19_"  style="overflow:visible;"/>
		</clipPath>
		<g class="st10">
			<defs>
				<rect id="SVGID_21_" x="19.9" y="11.3" width="304.7" height="114.5"/>
			</defs>
			<clipPath id="SVGID_22_">
				<use xlink:href="#SVGID_21_"  style="overflow:visible;"/>
			</clipPath>
			<g class="st11">
				<g>
					<path d="M180.4,118.7c-0.2-0.1-0.4-0.3-0.6-0.5c-0.1-0.2-0.2-0.5-0.3-0.8h0.8c0,0.2,0.1,0.3,0.1,0.4c0.1,0.1,0.2,0.2,0.3,0.2
						c0.1,0,0.3,0.1,0.4,0.1c0.3,0,0.4-0.1,0.6-0.2c0.1-0.1,0.2-0.3,0.2-0.6v-0.2c0-0.3-0.1-0.5-0.2-0.6c-0.1-0.1-0.3-0.2-0.6-0.2
						h-0.4v-0.7h0.4c0.2,0,0.4-0.1,0.5-0.2c0.1-0.1,0.2-0.3,0.2-0.5v-0.2c0-0.2-0.1-0.4-0.2-0.5s-0.3-0.2-0.5-0.2
						c-0.1,0-0.2,0-0.3,0.1c-0.1,0-0.2,0.1-0.3,0.2c-0.1,0.1-0.1,0.2-0.2,0.4h-0.8c0-0.3,0.1-0.5,0.3-0.8c0.1-0.2,0.3-0.4,0.5-0.5
						c0.2-0.1,0.5-0.2,0.7-0.2c0.5,0,0.8,0.1,1.1,0.4c0.3,0.2,0.4,0.6,0.4,1v0.1c0,0.3-0.1,0.5-0.2,0.7s-0.4,0.3-0.6,0.4
						c0.3,0.1,0.5,0.2,0.7,0.4c0.2,0.2,0.2,0.5,0.2,0.9v0.1c0,0.3-0.1,0.6-0.2,0.8c-0.1,0.2-0.3,0.4-0.5,0.5
						c-0.2,0.1-0.5,0.2-0.8,0.2C180.9,118.8,180.6,118.8,180.4,118.7z"/>
					<path d="M184.2,118.4c-0.3-0.3-0.4-0.6-0.4-1.1v-2.5c0-0.5,0.1-0.9,0.4-1.1s0.6-0.4,1.1-0.4c0.5,0,0.9,0.1,1.2,0.4
						c0.3,0.3,0.4,0.6,0.4,1.1v2.5c0,0.5-0.1,0.9-0.4,1.1s-0.6,0.4-1.1,0.4C184.9,118.8,184.5,118.7,184.2,118.4z M186,117.9
						c0.1-0.1,0.2-0.3,0.2-0.6v-2.5c0-0.3-0.1-0.5-0.2-0.6c-0.1-0.1-0.3-0.2-0.6-0.2s-0.5,0.1-0.6,0.2c-0.1,0.1-0.2,0.3-0.2,0.6v2.5
						c0,0.3,0.1,0.5,0.2,0.6c0.1,0.1,0.3,0.2,0.6,0.2S185.9,118,186,117.9z"/>
					<path d="M190,115.5c-0.2-0.2-0.2-0.4-0.2-0.7v-0.5c0-0.3,0.1-0.5,0.2-0.7s0.4-0.3,0.7-0.3c0.3,0,0.5,0.1,0.7,0.3
						c0.2,0.2,0.2,0.4,0.2,0.7v0.5c0,0.3-0.1,0.5-0.2,0.7c-0.2,0.2-0.4,0.2-0.7,0.2C190.4,115.7,190.2,115.6,190,115.5z
						 M193.1,113.4h0.7l-2.9,5.4h-0.7L193.1,113.4z M190.9,115c0-0.1,0.1-0.1,0.1-0.2v-0.5c0-0.1,0-0.2-0.1-0.2
						c0-0.1-0.1-0.1-0.2-0.1c-0.1,0-0.2,0-0.2,0.1c0,0.1-0.1,0.1-0.1,0.2v0.5c0,0.1,0,0.2,0.1,0.2c0,0.1,0.1,0.1,0.2,0.1
						C190.8,115.1,190.8,115.1,190.9,115z M192.7,118.6c-0.2-0.2-0.2-0.4-0.2-0.7v-0.5c0-0.3,0.1-0.5,0.2-0.7s0.4-0.3,0.7-0.3
						c0.3,0,0.5,0.1,0.7,0.3s0.2,0.4,0.2,0.7v0.5c0,0.3-0.1,0.5-0.2,0.7c-0.2,0.2-0.4,0.2-0.7,0.2
						C193.1,118.8,192.9,118.8,192.7,118.6z M193.6,118.2c0-0.1,0.1-0.1,0.1-0.2v-0.5c0-0.1,0-0.2-0.1-0.2c0-0.1-0.1-0.1-0.2-0.1
						c-0.1,0-0.2,0-0.2,0.1c0,0.1-0.1,0.1-0.1,0.2v0.5c0,0.1,0,0.2,0.1,0.2c0,0.1,0.1,0.1,0.2,0.1
						C193.5,118.3,193.5,118.2,193.6,118.2z"/>
				</g>
			</g>
		</g>
	</g>
	<g>
		<defs>
			<polygon id="SVGID_23_" points="19.9,125.8 324.6,125.8 324.6,11.3 19.9,11.3 19.9,125.8 			"/>
		</defs>
		<clipPath id="SVGID_24_">
			<use xlink:href="#SVGID_23_"  style="overflow:visible;"/>
		</clipPath>
		<g class="st12">
			<defs>
				<rect id="SVGID_25_" x="19.9" y="11.3" width="304.7" height="114.5"/>
			</defs>
			<clipPath id="SVGID_26_">
				<use xlink:href="#SVGID_25_"  style="overflow:visible;"/>
			</clipPath>
			<g class="st13">
				<g>
					<path d="M219.8,117.3l1.8-3.9h0.8l-1.8,3.9h2.7v0.7h-3.5V117.3z M222.1,115.6h0.7v3.2h-0.7V115.6z"/>
					<path d="M224.8,118.4c-0.3-0.3-0.4-0.6-0.4-1.1v-2.5c0-0.5,0.1-0.9,0.4-1.1s0.6-0.4,1.1-0.4c0.5,0,0.9,0.1,1.2,0.4
						c0.3,0.3,0.4,0.6,0.4,1.1v2.5c0,0.5-0.1,0.9-0.4,1.1s-0.6,0.4-1.1,0.4C225.5,118.8,225.1,118.7,224.8,118.4z M226.6,117.9
						c0.1-0.1,0.2-0.3,0.2-0.6v-2.5c0-0.3-0.1-0.5-0.2-0.6c-0.1-0.1-0.3-0.2-0.6-0.2s-0.5,0.1-0.6,0.2c-0.1,0.1-0.2,0.3-0.2,0.6v2.5
						c0,0.3,0.1,0.5,0.2,0.6c0.1,0.1,0.3,0.2,0.6,0.2S226.4,118,226.6,117.9z"/>
					<path d="M230.6,115.5c-0.2-0.2-0.2-0.4-0.2-0.7v-0.5c0-0.3,0.1-0.5,0.2-0.7s0.4-0.3,0.7-0.3c0.3,0,0.5,0.1,0.7,0.3
						c0.2,0.2,0.2,0.4,0.2,0.7v0.5c0,0.3-0.1,0.5-0.2,0.7c-0.2,0.2-0.4,0.2-0.7,0.2C231,115.7,230.7,115.6,230.6,115.5z
						 M233.7,113.4h0.7l-2.9,5.4h-0.7L233.7,113.4z M231.4,115c0-0.1,0.1-0.1,0.1-0.2v-0.5c0-0.1,0-0.2-0.1-0.2
						c0-0.1-0.1-0.1-0.2-0.1c-0.1,0-0.2,0-0.2,0.1c0,0.1-0.1,0.1-0.1,0.2v0.5c0,0.1,0,0.2,0.1,0.2c0,0.1,0.1,0.1,0.2,0.1
						C231.3,115.1,231.4,115.1,231.4,115z M233.3,118.6c-0.2-0.2-0.2-0.4-0.2-0.7v-0.5c0-0.3,0.1-0.5,0.2-0.7s0.4-0.3,0.7-0.3
						c0.3,0,0.5,0.1,0.7,0.3s0.2,0.4,0.2,0.7v0.5c0,0.3-0.1,0.5-0.2,0.7c-0.2,0.2-0.4,0.2-0.7,0.2
						C233.6,118.8,233.4,118.8,233.3,118.6z M234.1,118.2c0-0.1,0.1-0.1,0.1-0.2v-0.5c0-0.1,0-0.2-0.1-0.2c0-0.1-0.1-0.1-0.2-0.1
						c-0.1,0-0.2,0-0.2,0.1c0,0.1-0.1,0.1-0.1,0.2v0.5c0,0.1,0,0.2,0.1,0.2c0,0.1,0.1,0.1,0.2,0.1
						C234,118.3,234.1,118.2,234.1,118.2z"/>
				</g>
			</g>
		</g>
	</g>
	<g>
		<defs>
			<polygon id="SVGID_27_" points="19.9,125.8 324.6,125.8 324.6,11.3 19.9,11.3 19.9,125.8 			"/>
		</defs>
		<clipPath id="SVGID_28_">
			<use xlink:href="#SVGID_27_"  style="overflow:visible;"/>
		</clipPath>
		<g class="st14">
			<defs>
				<rect id="SVGID_29_" x="19.9" y="11.3" width="304.7" height="114.5"/>
			</defs>
			<clipPath id="SVGID_30_">
				<use xlink:href="#SVGID_29_"  style="overflow:visible;"/>
			</clipPath>
			<g class="st15">
				<g>
					<path d="M260.9,118.7c-0.2-0.1-0.4-0.3-0.5-0.5c-0.1-0.2-0.2-0.4-0.3-0.7v0h0.8v0c0,0.2,0.1,0.4,0.2,0.5
						c0.1,0.1,0.3,0.2,0.5,0.2c0.2,0,0.4-0.1,0.6-0.2c0.1-0.2,0.2-0.4,0.2-0.7v-0.5c0-0.3-0.1-0.5-0.2-0.7s-0.3-0.2-0.6-0.2
						c-0.1,0-0.3,0-0.4,0.1c-0.1,0.1-0.2,0.2-0.3,0.3h-0.7v-2.8h2.8v0.7h-2v1.2c0.1-0.1,0.2-0.1,0.3-0.2s0.2-0.1,0.4-0.1
						c0.3,0,0.6,0.1,0.8,0.2c0.2,0.1,0.4,0.3,0.5,0.6c0.1,0.2,0.2,0.5,0.2,0.9v0.5c0,0.3-0.1,0.6-0.2,0.9s-0.3,0.4-0.5,0.6
						c-0.2,0.1-0.5,0.2-0.8,0.2C261.4,118.8,261.2,118.8,260.9,118.7z"/>
					<path d="M264.6,118.4c-0.3-0.3-0.4-0.6-0.4-1.1v-2.5c0-0.5,0.1-0.9,0.4-1.1s0.6-0.4,1.1-0.4c0.5,0,0.9,0.1,1.2,0.4
						c0.3,0.3,0.4,0.6,0.4,1.1v2.5c0,0.5-0.1,0.9-0.4,1.1s-0.6,0.4-1.1,0.4C265.3,118.8,264.9,118.7,264.6,118.4z M266.4,117.9
						c0.1-0.1,0.2-0.3,0.2-0.6v-2.5c0-0.3-0.1-0.5-0.2-0.6c-0.1-0.1-0.3-0.2-0.6-0.2s-0.5,0.1-0.6,0.2c-0.1,0.1-0.2,0.3-0.2,0.6v2.5
						c0,0.3,0.1,0.5,0.2,0.6c0.1,0.1,0.3,0.2,0.6,0.2S266.2,118,266.4,117.9z"/>
					<path d="M270.4,115.5c-0.2-0.2-0.2-0.4-0.2-0.7v-0.5c0-0.3,0.1-0.5,0.2-0.7s0.4-0.3,0.7-0.3c0.3,0,0.5,0.1,0.7,0.3
						c0.2,0.2,0.2,0.4,0.2,0.7v0.5c0,0.3-0.1,0.5-0.2,0.7c-0.2,0.2-0.4,0.2-0.7,0.2C270.8,115.7,270.5,115.6,270.4,115.5z
						 M273.5,113.4h0.7l-2.9,5.4h-0.7L273.5,113.4z M271.2,115c0-0.1,0.1-0.1,0.1-0.2v-0.5c0-0.1,0-0.2-0.1-0.2
						c0-0.1-0.1-0.1-0.2-0.1c-0.1,0-0.2,0-0.2,0.1c0,0.1-0.1,0.1-0.1,0.2v0.5c0,0.1,0,0.2,0.1,0.2c0,0.1,0.1,0.1,0.2,0.1
						C271.1,115.1,271.2,115.1,271.2,115z M273.1,118.6c-0.2-0.2-0.2-0.4-0.2-0.7v-0.5c0-0.3,0.1-0.5,0.2-0.7s0.4-0.3,0.7-0.3
						c0.3,0,0.5,0.1,0.7,0.3s0.2,0.4,0.2,0.7v0.5c0,0.3-0.1,0.5-0.2,0.7c-0.2,0.2-0.4,0.2-0.7,0.2
						C273.4,118.8,273.2,118.8,273.1,118.6z M273.9,118.2c0-0.1,0.1-0.1,0.1-0.2v-0.5c0-0.1,0-0.2-0.1-0.2c0-0.1-0.1-0.1-0.2-0.1
						c-0.1,0-0.2,0-0.2,0.1c0,0.1-0.1,0.1-0.1,0.2v0.5c0,0.1,0,0.2,0.1,0.2c0,0.1,0.1,0.1,0.2,0.1
						C273.8,118.3,273.9,118.2,273.9,118.2z"/>
				</g>
			</g>
		</g>
	</g>
	<g>
		<defs>
			<polygon id="SVGID_31_" points="19.9,125.8 324.6,125.8 324.6,11.3 19.9,11.3 19.9,125.8 			"/>
		</defs>
		<clipPath id="SVGID_32_">
			<use xlink:href="#SVGID_31_"  style="overflow:visible;"/>
		</clipPath>
		<g class="st16">
			<defs>
				<rect id="SVGID_33_" x="19.9" y="11.3" width="304.7" height="114.5"/>
			</defs>
			<clipPath id="SVGID_34_">
				<use xlink:href="#SVGID_33_"  style="overflow:visible;"/>
			</clipPath>
			<g class="st17">
				<g>
					<path d="M301.1,118.6c-0.2-0.1-0.4-0.3-0.5-0.6c-0.1-0.2-0.2-0.5-0.2-0.9v0c0-0.2,0-0.4,0.1-0.6c0-0.2,0.1-0.4,0.2-0.6
						c0,0,0-0.1,0-0.1c0,0,0-0.1,0.1-0.1l1.2-2.3h0.8l-1.4,2.7l0-0.1c0.1-0.1,0.2-0.2,0.3-0.3s0.3-0.1,0.4-0.1
						c0.3,0,0.5,0.1,0.7,0.2c0.2,0.1,0.4,0.3,0.5,0.6c0.1,0.2,0.2,0.5,0.2,0.9v0c0,0.3-0.1,0.6-0.2,0.9c-0.1,0.2-0.3,0.4-0.5,0.6
						c-0.2,0.1-0.5,0.2-0.8,0.2S301.3,118.8,301.1,118.6z M302.4,117.9c0.1-0.1,0.2-0.4,0.2-0.6v0c0-0.3-0.1-0.5-0.2-0.7
						c-0.1-0.2-0.3-0.2-0.6-0.2c-0.2,0-0.4,0.1-0.5,0.2c-0.1,0.2-0.2,0.4-0.2,0.7v0c0,0.3,0.1,0.5,0.2,0.6c0.1,0.1,0.3,0.2,0.6,0.2
						C302.1,118.1,302.3,118,302.4,117.9z"/>
					<path d="M304.9,118.4c-0.3-0.3-0.4-0.6-0.4-1.1v-2.5c0-0.5,0.1-0.9,0.4-1.1s0.6-0.4,1.1-0.4c0.5,0,0.9,0.1,1.2,0.4
						c0.3,0.3,0.4,0.6,0.4,1.1v2.5c0,0.5-0.1,0.9-0.4,1.1s-0.6,0.4-1.1,0.4C305.6,118.8,305.2,118.7,304.9,118.4z M306.7,117.9
						c0.1-0.1,0.2-0.3,0.2-0.6v-2.5c0-0.3-0.1-0.5-0.2-0.6c-0.1-0.1-0.3-0.2-0.6-0.2s-0.5,0.1-0.6,0.2c-0.1,0.1-0.2,0.3-0.2,0.6v2.5
						c0,0.3,0.1,0.5,0.2,0.6c0.1,0.1,0.3,0.2,0.6,0.2S306.6,118,306.7,117.9z"/>
					<path d="M310.7,115.5c-0.2-0.2-0.2-0.4-0.2-0.7v-0.5c0-0.3,0.1-0.5,0.2-0.7s0.4-0.3,0.7-0.3c0.3,0,0.5,0.1,0.7,0.3
						c0.2,0.2,0.2,0.4,0.2,0.7v0.5c0,0.3-0.1,0.5-0.2,0.7c-0.2,0.2-0.4,0.2-0.7,0.2C311.1,115.7,310.9,115.6,310.7,115.5z
						 M313.8,113.4h0.7l-2.9,5.4h-0.7L313.8,113.4z M311.6,115c0-0.1,0.1-0.1,0.1-0.2v-0.5c0-0.1,0-0.2-0.1-0.2
						c0-0.1-0.1-0.1-0.2-0.1c-0.1,0-0.2,0-0.2,0.1c0,0.1-0.1,0.1-0.1,0.2v0.5c0,0.1,0,0.2,0.1,0.2c0,0.1,0.1,0.1,0.2,0.1
						C311.5,115.1,311.5,115.1,311.6,115z M313.4,118.6c-0.2-0.2-0.2-0.4-0.2-0.7v-0.5c0-0.3,0.1-0.5,0.2-0.7s0.4-0.3,0.7-0.3
						c0.3,0,0.5,0.1,0.7,0.3s0.2,0.4,0.2,0.7v0.5c0,0.3-0.1,0.5-0.2,0.7c-0.2,0.2-0.4,0.2-0.7,0.2
						C313.8,118.8,313.6,118.8,313.4,118.6z M314.3,118.2c0-0.1,0.1-0.1,0.1-0.2v-0.5c0-0.1,0-0.2-0.1-0.2c0-0.1-0.1-0.1-0.2-0.1
						c-0.1,0-0.2,0-0.2,0.1c0,0.1-0.1,0.1-0.1,0.2v0.5c0,0.1,0,0.2,0.1,0.2c0,0.1,0.1,0.1,0.2,0.1
						C314.2,118.3,314.2,118.2,314.3,118.2z"/>
				</g>
			</g>
		</g>
	</g>
	<g>
		<defs>
			<polygon id="SVGID_35_" points="19.9,125.8 324.6,125.8 324.6,11.3 19.9,11.3 19.9,125.8 			"/>
		</defs>
		<clipPath id="SVGID_36_">
			<use xlink:href="#SVGID_35_"  style="overflow:visible;"/>
		</clipPath>
		<g class="st18">
			<defs>
				<rect id="SVGID_37_" x="19.9" y="11.3" width="304.7" height="114.5"/>
			</defs>
			<clipPath id="SVGID_38_">
				<use xlink:href="#SVGID_37_"  style="overflow:visible;"/>
			</clipPath>
			<g class="st19">
				<g>
					<path d="M26.7,94.5c-0.2,0-0.4-0.1-0.6-0.2c-0.2-0.1-0.3-0.2-0.5-0.3l0.5-0.6c0.2,0.2,0.4,0.3,0.6,0.4c0.2,0.1,0.4,0.1,0.6,0.1
						c0.3,0,0.5,0,0.7-0.1c0.2-0.1,0.2-0.2,0.2-0.4c0-0.1,0-0.2-0.1-0.3S28,93,27.8,93c-0.1,0-0.3,0-0.5-0.1c0,0,0,0-0.1,0
						c0,0,0,0-0.1,0c0,0,0,0,0,0c0,0,0,0,0,0c-0.3,0-0.5-0.1-0.6-0.1c-0.2-0.1-0.3-0.2-0.4-0.3c-0.1-0.1-0.2-0.4-0.2-0.6
						c0-0.3,0.1-0.5,0.2-0.7c0.1-0.2,0.3-0.3,0.5-0.4c0.2-0.1,0.5-0.1,0.8-0.1c0.2,0,0.4,0,0.6,0.1s0.4,0.1,0.5,0.2
						c0.2,0.1,0.3,0.2,0.5,0.3l-0.5,0.6c-0.2-0.1-0.4-0.2-0.6-0.3c-0.2-0.1-0.4-0.1-0.5-0.1c-0.3,0-0.5,0-0.6,0.1
						c-0.1,0.1-0.2,0.2-0.2,0.4c0,0.1,0,0.2,0.1,0.2c0.1,0.1,0.2,0.1,0.3,0.1c0.1,0,0.3,0,0.5,0c0,0,0,0,0,0s0,0,0.1,0c0,0,0,0,0,0
						c0,0,0,0,0,0c0.3,0,0.5,0.1,0.7,0.1c0.2,0.1,0.3,0.2,0.5,0.3c0.1,0.2,0.2,0.4,0.2,0.7c0,0.3-0.1,0.5-0.2,0.7
						c-0.1,0.2-0.3,0.3-0.5,0.4c-0.2,0.1-0.5,0.1-0.9,0.1C27.1,94.6,26.9,94.6,26.7,94.5z"/>
					<path d="M30.2,94.3c-0.2-0.2-0.4-0.5-0.4-0.9c0-0.4,0.1-0.7,0.3-0.9s0.5-0.3,1-0.3h1.1l0.1,0.6h-1.1c-0.2,0-0.3,0-0.4,0.1
						c-0.1,0.1-0.1,0.2-0.1,0.4c0,0.2,0.1,0.3,0.2,0.4c0.1,0.1,0.3,0.1,0.6,0.1c0.3,0,0.5,0,0.6-0.1c0.1-0.1,0.2-0.2,0.2-0.3
						l0.1,0.5c-0.1,0.1-0.1,0.2-0.2,0.3c-0.1,0.1-0.2,0.1-0.3,0.2s-0.3,0-0.4,0C30.8,94.6,30.5,94.5,30.2,94.3z M32.2,92.1
						c0-0.3-0.1-0.4-0.2-0.6s-0.3-0.2-0.6-0.2c-0.2,0-0.3,0-0.5,0.1c-0.1,0-0.3,0.1-0.4,0.2l-0.6-0.4c0.1-0.2,0.3-0.3,0.6-0.4
						c0.2-0.1,0.5-0.1,0.8-0.1c0.3,0,0.6,0.1,0.8,0.2c0.2,0.1,0.4,0.3,0.5,0.5c0.1,0.2,0.2,0.5,0.2,0.8v2.5h-0.7V92.1z"/>
					<path d="M34.1,90.7h0.8v3.9h-0.8V90.7z M36.5,92.2c0-0.3-0.1-0.5-0.2-0.6c-0.1-0.1-0.3-0.2-0.6-0.2c-0.2,0-0.4,0.1-0.6,0.2
						s-0.2,0.3-0.2,0.6l-0.1-0.7c0.1-0.2,0.3-0.4,0.5-0.5s0.4-0.2,0.6-0.2c0.4,0,0.7,0.1,1,0.4c0.2,0.3,0.3,0.7,0.3,1.2v2.3h-0.8
						V92.2z"/>
					<path d="M38.9,94.5c-0.2,0-0.4-0.1-0.6-0.2c-0.2-0.1-0.3-0.2-0.5-0.3l0.5-0.6c0.2,0.2,0.4,0.3,0.6,0.4c0.2,0.1,0.4,0.1,0.6,0.1
						c0.3,0,0.5,0,0.7-0.1c0.2-0.1,0.2-0.2,0.2-0.4c0-0.1,0-0.2-0.1-0.3S40.2,93,40,93c-0.1,0-0.3,0-0.5-0.1c0,0,0,0-0.1,0
						c0,0,0,0-0.1,0c0,0,0,0,0,0c0,0,0,0,0,0c-0.3,0-0.5-0.1-0.6-0.1c-0.2-0.1-0.3-0.2-0.4-0.3c-0.1-0.1-0.2-0.4-0.2-0.6
						c0-0.3,0.1-0.5,0.2-0.7c0.1-0.2,0.3-0.3,0.5-0.4c0.2-0.1,0.5-0.1,0.8-0.1c0.2,0,0.4,0,0.6,0.1s0.4,0.1,0.5,0.2
						c0.2,0.1,0.3,0.2,0.5,0.3l-0.5,0.6c-0.2-0.1-0.4-0.2-0.6-0.3c-0.2-0.1-0.4-0.1-0.5-0.1c-0.3,0-0.5,0-0.6,0.1
						c-0.1,0.1-0.2,0.2-0.2,0.4c0,0.1,0,0.2,0.1,0.2c0.1,0.1,0.2,0.1,0.3,0.1c0.1,0,0.3,0,0.5,0c0,0,0,0,0,0s0,0,0.1,0c0,0,0,0,0,0
						c0,0,0,0,0,0c0.3,0,0.5,0.1,0.7,0.1c0.2,0.1,0.3,0.2,0.5,0.3c0.1,0.2,0.2,0.4,0.2,0.7c0,0.3-0.1,0.5-0.2,0.7
						c-0.1,0.2-0.3,0.3-0.5,0.4c-0.2,0.1-0.5,0.1-0.9,0.1C39.3,94.6,39.1,94.6,38.9,94.5z"/>
					<path d="M45,94.5c-0.2,0-0.4-0.1-0.6-0.2c-0.2-0.1-0.3-0.2-0.5-0.3l0.5-0.6c0.2,0.2,0.4,0.3,0.6,0.4c0.2,0.1,0.4,0.1,0.6,0.1
						c0.3,0,0.5,0,0.7-0.1c0.2-0.1,0.2-0.2,0.2-0.4c0-0.1,0-0.2-0.1-0.3S46.2,93,46.1,93c-0.1,0-0.3,0-0.5-0.1c0,0,0,0-0.1,0
						c0,0,0,0-0.1,0c0,0,0,0,0,0c0,0,0,0,0,0c-0.3,0-0.5-0.1-0.6-0.1c-0.2-0.1-0.3-0.2-0.4-0.3c-0.1-0.1-0.2-0.4-0.2-0.6
						c0-0.3,0.1-0.5,0.2-0.7c0.1-0.2,0.3-0.3,0.5-0.4c0.2-0.1,0.5-0.1,0.8-0.1c0.2,0,0.4,0,0.6,0.1s0.4,0.1,0.5,0.2
						c0.2,0.1,0.3,0.2,0.5,0.3l-0.5,0.6c-0.2-0.1-0.4-0.2-0.6-0.3c-0.2-0.1-0.4-0.1-0.5-0.1c-0.3,0-0.5,0-0.6,0.1
						c-0.1,0.1-0.2,0.2-0.2,0.4c0,0.1,0,0.2,0.1,0.2c0.1,0.1,0.2,0.1,0.3,0.1c0.1,0,0.3,0,0.5,0c0,0,0,0,0,0s0,0,0.1,0c0,0,0,0,0,0
						c0,0,0,0,0,0c0.3,0,0.5,0.1,0.7,0.1c0.2,0.1,0.3,0.2,0.5,0.3c0.1,0.2,0.2,0.4,0.2,0.7c0,0.3-0.1,0.5-0.2,0.7
						c-0.1,0.2-0.3,0.3-0.5,0.4c-0.2,0.1-0.5,0.1-0.9,0.1C45.4,94.6,45.2,94.6,45,94.5z"/>
					<path d="M49,94.4c-0.3-0.1-0.4-0.3-0.6-0.6c-0.1-0.3-0.2-0.6-0.2-0.9v-0.4c0-0.4,0.1-0.7,0.2-1c0.1-0.3,0.3-0.5,0.6-0.6
						c0.2-0.1,0.5-0.2,0.9-0.2c0.3,0,0.6,0.1,0.8,0.2c0.2,0.2,0.4,0.4,0.5,0.7c0.1,0.3,0.2,0.7,0.2,1.1v0.3h-2.6v-0.6h1.9
						c0-0.3-0.1-0.6-0.2-0.7c-0.1-0.2-0.3-0.3-0.6-0.3c-0.3,0-0.5,0.1-0.7,0.3C49,91.8,49,92.1,49,92.4v0.5c0,0.3,0.1,0.6,0.3,0.7
						c0.2,0.2,0.4,0.3,0.7,0.3c0.2,0,0.3,0,0.5-0.1c0.2-0.1,0.3-0.1,0.4-0.3l0.5,0.5c-0.2,0.2-0.4,0.3-0.6,0.4
						c-0.2,0.1-0.5,0.2-0.7,0.2C49.6,94.6,49.3,94.5,49,94.4z"/>
					<path d="M52.4,90.7h0.8v3.9h-0.8V90.7z M54.3,91.4c-0.1,0-0.2-0.1-0.4-0.1c-0.2,0-0.4,0.1-0.6,0.2c-0.1,0.1-0.2,0.3-0.2,0.6
						l-0.1-0.7c0.1-0.2,0.3-0.4,0.5-0.5c0.2-0.1,0.4-0.2,0.6-0.2c0.2,0,0.3,0,0.5,0.1s0.3,0.1,0.4,0.2l-0.5,0.7
						C54.5,91.5,54.4,91.5,54.3,91.4z"/>
					<path d="M55.5,89.2h0.8v0.8h-0.8V89.2z M55.5,90.7h0.8v3.9h-0.8V90.7z"/>
					<path d="M57.2,90.7h1.9v0.6h-1.9V90.7z M57.6,90.2c0-0.3,0.1-0.6,0.2-0.8c0.2-0.2,0.4-0.3,0.7-0.3h0.6v0.7h-0.5
						c-0.1,0-0.1,0-0.2,0.1c0,0.1-0.1,0.1-0.1,0.2v4.4h-0.8V90.2z"/>
				</g>
			</g>
		</g>
	</g>
	<g>
		<defs>
			<polygon id="SVGID_39_" points="19.9,125.8 324.6,125.8 324.6,11.3 19.9,11.3 19.9,125.8 			"/>
		</defs>
		<clipPath id="SVGID_40_">
			<use xlink:href="#SVGID_39_"  style="overflow:visible;"/>
		</clipPath>
		<g class="st20">
			<defs>
				<rect id="SVGID_41_" x="19.9" y="11.3" width="304.7" height="114.5"/>
			</defs>
			<clipPath id="SVGID_42_">
				<use xlink:href="#SVGID_41_"  style="overflow:visible;"/>
			</clipPath>
			<g class="st21">
				<g>
					<path d="M41.1,66c-0.2,0-0.4-0.1-0.6-0.2c-0.2-0.1-0.3-0.2-0.5-0.3l0.5-0.6c0.2,0.2,0.4,0.3,0.6,0.4c0.2,0.1,0.4,0.1,0.6,0.1
						c0.3,0,0.5,0,0.7-0.1c0.2-0.1,0.2-0.2,0.2-0.4c0-0.1,0-0.2-0.1-0.3c-0.1-0.1-0.2-0.1-0.3-0.1s-0.3,0-0.5-0.1c0,0,0,0-0.1,0
						c0,0,0,0-0.1,0c0,0,0,0,0,0c0,0,0,0,0,0c-0.3,0-0.5-0.1-0.6-0.1c-0.2-0.1-0.3-0.2-0.4-0.3s-0.2-0.4-0.2-0.6s0.1-0.5,0.2-0.7
						c0.1-0.2,0.3-0.3,0.5-0.4s0.5-0.1,0.8-0.1c0.2,0,0.4,0,0.6,0.1s0.4,0.1,0.5,0.2c0.2,0.1,0.3,0.2,0.5,0.3l-0.5,0.6
						c-0.2-0.1-0.4-0.2-0.6-0.3c-0.2-0.1-0.4-0.1-0.5-0.1c-0.3,0-0.5,0-0.6,0.1S41,63.2,41,63.3c0,0.1,0,0.2,0.1,0.2
						s0.2,0.1,0.3,0.1c0.1,0,0.3,0,0.5,0c0,0,0,0,0,0s0,0,0.1,0c0,0,0,0,0,0c0,0,0,0,0,0c0.3,0,0.5,0.1,0.7,0.1
						c0.2,0.1,0.3,0.2,0.5,0.3c0.1,0.2,0.2,0.4,0.2,0.7c0,0.3-0.1,0.5-0.2,0.7c-0.1,0.2-0.3,0.3-0.5,0.4c-0.2,0.1-0.5,0.1-0.9,0.1
						C41.5,66.1,41.3,66.1,41.1,66z"/>
					<path d="M45,65.9c-0.2-0.1-0.4-0.3-0.6-0.6c-0.1-0.2-0.2-0.6-0.2-0.9v-0.6c0-0.3,0.1-0.6,0.2-0.9c0.1-0.2,0.3-0.4,0.6-0.6
						c0.2-0.1,0.6-0.2,0.9-0.2c0.2,0,0.4,0,0.6,0.1c0.2,0,0.3,0.1,0.5,0.2c0.1,0.1,0.3,0.2,0.4,0.3l-0.5,0.5
						c-0.1-0.1-0.2-0.2-0.4-0.3c-0.1-0.1-0.3-0.1-0.5-0.1c-0.3,0-0.5,0.1-0.7,0.2c-0.2,0.2-0.2,0.4-0.2,0.7v0.6
						c0,0.3,0.1,0.5,0.2,0.7c0.2,0.2,0.4,0.2,0.7,0.2c0.2,0,0.3,0,0.5-0.1c0.1-0.1,0.3-0.2,0.4-0.3l0.5,0.5
						c-0.1,0.1-0.2,0.2-0.4,0.3c-0.1,0.1-0.3,0.2-0.5,0.2c-0.2,0-0.4,0.1-0.6,0.1C45.6,66.1,45.3,66,45,65.9z"/>
					<path d="M48,62.2h0.8V66H48V62.2z M49.8,62.9c-0.1,0-0.2-0.1-0.4-0.1c-0.2,0-0.4,0.1-0.6,0.2c-0.1,0.1-0.2,0.3-0.2,0.6
						l-0.1-0.7c0.1-0.2,0.3-0.4,0.5-0.5s0.4-0.2,0.6-0.2c0.2,0,0.3,0,0.5,0.1s0.3,0.1,0.4,0.2l-0.5,0.7C50,63,49.9,63,49.8,62.9z"/>
					<path d="M51.5,60.6h0.8v0.8h-0.8V60.6z M51.5,62.2h0.8V66h-0.8V62.2z"/>
					<path d="M53,62.2h0.8v5.4H53V62.2z M54.1,65.9c-0.2-0.1-0.3-0.3-0.4-0.5l0.1-0.8c0,0.2,0,0.3,0.1,0.4s0.1,0.2,0.3,0.3
						s0.3,0.1,0.4,0.1c0.3,0,0.4-0.1,0.6-0.2c0.1-0.2,0.2-0.4,0.2-0.6v-0.8c0-0.3-0.1-0.5-0.2-0.7s-0.3-0.2-0.6-0.2
						c-0.2,0-0.3,0-0.4,0.1C54,63,53.9,63,53.9,63.2s-0.1,0.3-0.1,0.4l-0.1-0.7c0.1-0.2,0.3-0.4,0.5-0.5s0.4-0.2,0.6-0.2
						c0.3,0,0.5,0.1,0.7,0.2c0.2,0.1,0.3,0.3,0.4,0.5s0.2,0.5,0.2,0.8v0.8c0,0.3-0.1,0.6-0.2,0.8c-0.1,0.2-0.3,0.4-0.5,0.5
						c-0.2,0.1-0.4,0.2-0.7,0.2C54.5,66.1,54.3,66,54.1,65.9z"/>
					<path d="M57.3,62.2H59v0.7h-1.7V62.2z M57.9,65.8c-0.1-0.2-0.2-0.4-0.2-0.8v-4h0.8v4c0,0.1,0,0.2,0.1,0.2s0.1,0.1,0.2,0.1H59
						v0.7h-0.4C58.3,66.1,58.1,66,57.9,65.8z"/>
				</g>
			</g>
		</g>
	</g>
	<g>
		<defs>
			<polygon id="SVGID_43_" points="19.9,125.8 324.6,125.8 324.6,11.3 19.9,11.3 19.9,125.8 			"/>
		</defs>
		<clipPath id="SVGID_44_">
			<use xlink:href="#SVGID_43_"  style="overflow:visible;"/>
		</clipPath>
		<g class="st22">
			<defs>
				<rect id="SVGID_45_" x="19.9" y="11.3" width="304.7" height="114.5"/>
			</defs>
			<clipPath id="SVGID_46_">
				<use xlink:href="#SVGID_45_"  style="overflow:visible;"/>
			</clipPath>
			<g class="st23">
				<g>
					<path d="M45,37.5c-0.2,0-0.4-0.1-0.6-0.2c-0.2-0.1-0.3-0.2-0.5-0.3l0.5-0.6c0.2,0.2,0.4,0.3,0.6,0.4c0.2,0.1,0.4,0.1,0.6,0.1
						c0.3,0,0.5,0,0.7-0.1c0.2-0.1,0.2-0.2,0.2-0.4c0-0.1,0-0.2-0.1-0.3c-0.1-0.1-0.2-0.1-0.3-0.1s-0.3,0-0.5-0.1c0,0,0,0-0.1,0
						c0,0,0,0-0.1,0c0,0,0,0,0,0c0,0,0,0,0,0c-0.3,0-0.5-0.1-0.6-0.1c-0.2-0.1-0.3-0.2-0.4-0.3s-0.2-0.4-0.2-0.6s0.1-0.5,0.2-0.7
						c0.1-0.2,0.3-0.3,0.5-0.4s0.5-0.1,0.8-0.1c0.2,0,0.4,0,0.6,0.1s0.4,0.1,0.5,0.2c0.2,0.1,0.3,0.2,0.5,0.3l-0.5,0.6
						c-0.2-0.1-0.4-0.2-0.6-0.3c-0.2-0.1-0.4-0.1-0.5-0.1c-0.3,0-0.5,0-0.6,0.1s-0.2,0.2-0.2,0.4c0,0.1,0,0.2,0.1,0.2
						s0.2,0.1,0.3,0.1c0.1,0,0.3,0,0.5,0c0,0,0,0,0,0s0,0,0.1,0c0,0,0,0,0,0c0,0,0,0,0,0c0.3,0,0.5,0.1,0.7,0.1
						c0.2,0.1,0.3,0.2,0.5,0.3c0.1,0.2,0.2,0.4,0.2,0.7c0,0.3-0.1,0.5-0.2,0.7c-0.1,0.2-0.3,0.3-0.5,0.4c-0.2,0.1-0.5,0.1-0.9,0.1
						C45.4,37.6,45.2,37.5,45,37.5z"/>
					<path d="M49,37.4c-0.3-0.1-0.4-0.3-0.6-0.6c-0.1-0.3-0.2-0.6-0.2-0.9v-0.4c0-0.4,0.1-0.7,0.2-1c0.1-0.3,0.3-0.5,0.6-0.6
						c0.2-0.1,0.5-0.2,0.9-0.2c0.3,0,0.6,0.1,0.8,0.2c0.2,0.2,0.4,0.4,0.5,0.7s0.2,0.7,0.2,1.1v0.3h-2.6v-0.6h1.9
						c0-0.3-0.1-0.6-0.2-0.7c-0.1-0.2-0.3-0.3-0.6-0.3c-0.3,0-0.5,0.1-0.7,0.3c-0.2,0.2-0.2,0.5-0.2,0.8v0.5c0,0.3,0.1,0.6,0.3,0.7
						c0.2,0.2,0.4,0.3,0.7,0.3c0.2,0,0.3,0,0.5-0.1c0.2-0.1,0.3-0.1,0.4-0.3l0.5,0.5c-0.2,0.2-0.4,0.3-0.6,0.4
						c-0.2,0.1-0.5,0.2-0.7,0.2C49.5,37.6,49.2,37.5,49,37.4z"/>
					<path d="M52.4,33.7h0.8v3.9h-0.8V33.7z M54.3,34.4c-0.1,0-0.2-0.1-0.4-0.1c-0.2,0-0.4,0.1-0.6,0.2c-0.1,0.1-0.2,0.3-0.2,0.6
						l-0.1-0.7c0.1-0.2,0.3-0.4,0.5-0.5s0.4-0.2,0.6-0.2c0.2,0,0.3,0,0.5,0.1s0.3,0.1,0.4,0.2l-0.5,0.7
						C54.4,34.5,54.4,34.4,54.3,34.4z"/>
					<path d="M55.4,32.1h0.8v0.8h-0.8V32.1z M55.4,33.7h0.8v3.9h-0.8V33.7z"/>
					<path d="M57.2,33.7h1.9v0.6h-1.9V33.7z M57.6,33.1c0-0.3,0.1-0.6,0.2-0.8c0.2-0.2,0.4-0.3,0.7-0.3h0.6v0.7h-0.5
						c-0.1,0-0.1,0-0.2,0.1c0,0.1-0.1,0.1-0.1,0.2v4.4h-0.8V33.1z"/>
				</g>
			</g>
		</g>
	</g>
	<g>
		<defs>
			<polygon id="SVGID_47_" points="19.9,125.8 324.6,125.8 324.6,11.3 19.9,11.3 19.9,125.8 			"/>
		</defs>
		<clipPath id="SVGID_48_">
			<use xlink:href="#SVGID_47_"  style="overflow:visible;"/>
		</clipPath>
		<polygon class="st24" points="20.2,11.6 324.4,11.6 324.4,125.5 20.2,125.5 20.2,11.6 		"/>
	</g>
</g>
<g>
	<polygon class="st0" points="19.9,148.4 324.6,148.4 324.6,303.4 19.9,303.4 19.9,148.4 	"/>
	<g>
		<defs>
			<polygon id="SVGID_49_" points="19.9,303.4 324.6,303.4 324.6,148.4 19.9,148.4 19.9,303.4 			"/>
		</defs>
		<clipPath id="SVGID_50_">
			<use xlink:href="#SVGID_49_"  style="overflow:visible;"/>
		</clipPath>
		<path class="st25" d="M105.5,157.7v126.1 M155.8,157.7v126.1 M206.6,157.7v126.1 M256.8,157.7v126.1 M307.6,157.7v126.1"/>
	</g>
	<g>
		<defs>
			<polygon id="SVGID_51_" points="54.4,284.1 307.9,284.1 307.9,157.5 54.4,157.5 54.4,284.1 			"/>
		</defs>
		<clipPath id="SVGID_52_">
			<use xlink:href="#SVGID_51_"  style="overflow:visible;"/>
		</clipPath>
		<path class="st26" d="M287.1,278H55v-6.6h232.1V278L287.1,278z M186,259.8H55v-6.1h131V259.8L186,259.8z M105.2,242.1H55v-6.6
			h50.3V242.1L105.2,242.1z M79.8,223.8H55v-6.6h24.9V223.8L79.8,223.8z M79.8,206.1H55v-6.6h24.9V206.1L79.8,206.1z M74.8,187.9H55
			v-6.6h19.8V187.9L74.8,187.9z M69.7,169.6H55v-6.1h14.7V169.6L69.7,169.6z"/>
	</g>
	<g>
		<defs>
			<polygon id="SVGID_53_" points="19.9,303.4 324.6,303.4 324.6,148.4 19.9,148.4 19.9,303.4 			"/>
		</defs>
		<clipPath id="SVGID_54_">
			<use xlink:href="#SVGID_53_"  style="overflow:visible;"/>
		</clipPath>
		<line class="st27" x1="54.7" y1="283.9" x2="54.7" y2="157.7"/>
	</g>
	<g>
		<defs>
			<polygon id="SVGID_55_" points="19.9,303.4 324.6,303.4 324.6,148.4 19.9,148.4 19.9,303.4 			"/>
		</defs>
		<clipPath id="SVGID_56_">
			<use xlink:href="#SVGID_55_"  style="overflow:visible;"/>
		</clipPath>
		<g class="st28">
			<defs>
				<rect id="SVGID_57_" x="19.9" y="148.4" width="304.7" height="155"/>
			</defs>
			<clipPath id="SVGID_58_">
				<use xlink:href="#SVGID_57_"  style="overflow:visible;"/>
			</clipPath>
			<g class="st29">
				<g>
					<path d="M49.9,296c-0.3-0.3-0.4-0.6-0.4-1.1v-2.5c0-0.5,0.1-0.9,0.4-1.1c0.3-0.3,0.6-0.4,1.1-0.4c0.5,0,0.9,0.1,1.2,0.4
						c0.3,0.3,0.4,0.6,0.4,1.1v2.5c0,0.5-0.1,0.9-0.4,1.1s-0.6,0.4-1.1,0.4C50.6,296.4,50.2,296.3,49.9,296z M51.7,295.5
						c0.1-0.1,0.2-0.3,0.2-0.6v-2.5c0-0.3-0.1-0.5-0.2-0.6s-0.3-0.2-0.6-0.2c-0.3,0-0.5,0.1-0.6,0.2s-0.2,0.3-0.2,0.6v2.5
						c0,0.3,0.1,0.5,0.2,0.6c0.1,0.1,0.3,0.2,0.6,0.2C51.4,295.7,51.6,295.6,51.7,295.5z"/>
					<path d="M55.7,293c-0.2-0.2-0.2-0.4-0.2-0.7v-0.5c0-0.3,0.1-0.5,0.2-0.7s0.4-0.3,0.7-0.3s0.5,0.1,0.7,0.3s0.2,0.4,0.2,0.7v0.5
						c0,0.3-0.1,0.5-0.2,0.7c-0.2,0.2-0.4,0.2-0.7,0.2C56.1,293.3,55.9,293.2,55.7,293z M58.8,291h0.7l-2.9,5.4h-0.7L58.8,291z
						 M56.6,292.6c0-0.1,0.1-0.1,0.1-0.2v-0.5c0-0.1,0-0.2-0.1-0.2c0-0.1-0.1-0.1-0.2-0.1c-0.1,0-0.2,0-0.2,0.1
						c0,0.1-0.1,0.1-0.1,0.2v0.5c0,0.1,0,0.2,0.1,0.2c0,0.1,0.1,0.1,0.2,0.1C56.4,292.7,56.5,292.7,56.6,292.6z M58.4,296.2
						c-0.2-0.2-0.2-0.4-0.2-0.7V295c0-0.3,0.1-0.5,0.2-0.7s0.4-0.3,0.7-0.3s0.5,0.1,0.7,0.3s0.2,0.4,0.2,0.7v0.5
						c0,0.3-0.1,0.5-0.2,0.7c-0.2,0.2-0.4,0.2-0.7,0.2C58.8,296.4,58.5,296.3,58.4,296.2z M59.3,295.7c0-0.1,0.1-0.1,0.1-0.2V295
						c0-0.1,0-0.2-0.1-0.2c0-0.1-0.1-0.1-0.2-0.1c-0.1,0-0.2,0-0.2,0.1c0,0.1-0.1,0.1-0.1,0.2v0.5c0,0.1,0,0.2,0.1,0.2
						c0,0.1,0.1,0.1,0.2,0.1C59.1,295.8,59.2,295.8,59.3,295.7z"/>
				</g>
			</g>
		</g>
	</g>
	<g>
		<defs>
			<polygon id="SVGID_59_" points="19.9,303.4 324.6,303.4 324.6,148.4 19.9,148.4 19.9,303.4 			"/>
		</defs>
		<clipPath id="SVGID_60_">
			<use xlink:href="#SVGID_59_"  style="overflow:visible;"/>
		</clipPath>
		<g class="st30">
			<defs>
				<rect id="SVGID_61_" x="19.9" y="148.4" width="304.7" height="155"/>
			</defs>
			<clipPath id="SVGID_62_">
				<use xlink:href="#SVGID_61_"  style="overflow:visible;"/>
			</clipPath>
			<g class="st31">
				<g>
					<path d="M100.1,296.4h-0.8v-4.6l-0.8,0.5v-0.8l0.8-0.5h0.8V296.4z"/>
					<path d="M101.8,296c-0.3-0.3-0.4-0.6-0.4-1.1v-2.5c0-0.5,0.1-0.9,0.4-1.1c0.3-0.3,0.6-0.4,1.1-0.4c0.5,0,0.9,0.1,1.2,0.4
						c0.3,0.3,0.4,0.6,0.4,1.1v2.5c0,0.5-0.1,0.9-0.4,1.1s-0.6,0.4-1.1,0.4C102.4,296.4,102,296.3,101.8,296z M103.5,295.5
						c0.1-0.1,0.2-0.3,0.2-0.6v-2.5c0-0.3-0.1-0.5-0.2-0.6s-0.3-0.2-0.6-0.2c-0.3,0-0.5,0.1-0.6,0.2s-0.2,0.3-0.2,0.6v2.5
						c0,0.3,0.1,0.5,0.2,0.6c0.1,0.1,0.3,0.2,0.6,0.2C103.2,295.7,103.4,295.6,103.5,295.5z"/>
					<path d="M107.5,293c-0.2-0.2-0.2-0.4-0.2-0.7v-0.5c0-0.3,0.1-0.5,0.2-0.7s0.4-0.3,0.7-0.3s0.5,0.1,0.7,0.3s0.2,0.4,0.2,0.7v0.5
						c0,0.3-0.1,0.5-0.2,0.7c-0.2,0.2-0.4,0.2-0.7,0.2C107.9,293.3,107.7,293.2,107.5,293z M110.6,291h0.7l-2.9,5.4h-0.7L110.6,291z
						 M108.4,292.6c0-0.1,0.1-0.1,0.1-0.2v-0.5c0-0.1,0-0.2-0.1-0.2c0-0.1-0.1-0.1-0.2-0.1c-0.1,0-0.2,0-0.2,0.1
						c0,0.1-0.1,0.1-0.1,0.2v0.5c0,0.1,0,0.2,0.1,0.2c0,0.1,0.1,0.1,0.2,0.1C108.3,292.7,108.3,292.7,108.4,292.6z M110.2,296.2
						c-0.2-0.2-0.2-0.4-0.2-0.7V295c0-0.3,0.1-0.5,0.2-0.7s0.4-0.3,0.7-0.3s0.5,0.1,0.7,0.3s0.2,0.4,0.2,0.7v0.5
						c0,0.3-0.1,0.5-0.2,0.7c-0.2,0.2-0.4,0.2-0.7,0.2C110.6,296.4,110.4,296.3,110.2,296.2z M111.1,295.7c0-0.1,0.1-0.1,0.1-0.2
						V295c0-0.1,0-0.2-0.1-0.2c0-0.1-0.1-0.1-0.2-0.1c-0.1,0-0.2,0-0.2,0.1c0,0.1-0.1,0.1-0.1,0.2v0.5c0,0.1,0,0.2,0.1,0.2
						c0,0.1,0.1,0.1,0.2,0.1C111,295.8,111,295.8,111.1,295.7z"/>
				</g>
			</g>
		</g>
	</g>
	<g>
		<defs>
			<polygon id="SVGID_63_" points="19.9,303.4 324.6,303.4 324.6,148.4 19.9,148.4 19.9,303.4 			"/>
		</defs>
		<clipPath id="SVGID_64_">
			<use xlink:href="#SVGID_63_"  style="overflow:visible;"/>
		</clipPath>
		<g class="st32">
			<defs>
				<rect id="SVGID_65_" x="19.9" y="148.4" width="304.7" height="155"/>
			</defs>
			<clipPath id="SVGID_66_">
				<use xlink:href="#SVGID_65_"  style="overflow:visible;"/>
			</clipPath>
			<g class="st33">
				<g>
					<path d="M148.6,295.7l1.9-2.5c0.1-0.1,0.2-0.3,0.3-0.4c0.1-0.2,0.1-0.3,0.1-0.4v0c0-0.2-0.1-0.4-0.2-0.5
						c-0.1-0.1-0.3-0.2-0.5-0.2c-0.2,0-0.4,0.1-0.5,0.2c-0.1,0.1-0.2,0.3-0.2,0.6v0h-0.8v0c0-0.3,0.1-0.6,0.3-0.8
						c0.1-0.2,0.3-0.4,0.5-0.5c0.2-0.1,0.5-0.2,0.8-0.2c0.3,0,0.6,0.1,0.8,0.2c0.2,0.1,0.4,0.3,0.5,0.5c0.1,0.2,0.2,0.5,0.2,0.8v0
						c0,0.2,0,0.4-0.1,0.6c-0.1,0.2-0.2,0.4-0.3,0.6l-1.6,2.1h2v0.7h-3.1V295.7z"/>
					<path d="M153.1,296c-0.3-0.3-0.4-0.6-0.4-1.1v-2.5c0-0.5,0.1-0.9,0.4-1.1c0.3-0.3,0.6-0.4,1.1-0.4c0.5,0,0.9,0.1,1.2,0.4
						c0.3,0.3,0.4,0.6,0.4,1.1v2.5c0,0.5-0.1,0.9-0.4,1.1s-0.6,0.4-1.1,0.4C153.8,296.4,153.4,296.3,153.1,296z M154.9,295.5
						c0.1-0.1,0.2-0.3,0.2-0.6v-2.5c0-0.3-0.1-0.5-0.2-0.6s-0.3-0.2-0.6-0.2c-0.3,0-0.5,0.1-0.6,0.2s-0.2,0.3-0.2,0.6v2.5
						c0,0.3,0.1,0.5,0.2,0.6c0.1,0.1,0.3,0.2,0.6,0.2C154.6,295.7,154.7,295.6,154.9,295.5z"/>
					<path d="M158.9,293c-0.2-0.2-0.2-0.4-0.2-0.7v-0.5c0-0.3,0.1-0.5,0.2-0.7s0.4-0.3,0.7-0.3s0.5,0.1,0.7,0.3s0.2,0.4,0.2,0.7v0.5
						c0,0.3-0.1,0.5-0.2,0.7c-0.2,0.2-0.4,0.2-0.7,0.2C159.3,293.3,159,293.2,158.9,293z M162,291h0.7l-2.9,5.4h-0.7L162,291z
						 M159.8,292.6c0-0.1,0.1-0.1,0.1-0.2v-0.5c0-0.1,0-0.2-0.1-0.2c0-0.1-0.1-0.1-0.2-0.1c-0.1,0-0.2,0-0.2,0.1
						c0,0.1-0.1,0.1-0.1,0.2v0.5c0,0.1,0,0.2,0.1,0.2c0,0.1,0.1,0.1,0.2,0.1C159.6,292.7,159.7,292.7,159.8,292.6z M161.6,296.2
						c-0.2-0.2-0.2-0.4-0.2-0.7V295c0-0.3,0.1-0.5,0.2-0.7s0.4-0.3,0.7-0.3s0.5,0.1,0.7,0.3s0.2,0.4,0.2,0.7v0.5
						c0,0.3-0.1,0.5-0.2,0.7c-0.2,0.2-0.4,0.2-0.7,0.2C162,296.4,161.7,296.3,161.6,296.2z M162.5,295.7c0-0.1,0.1-0.1,0.1-0.2V295
						c0-0.1,0-0.2-0.1-0.2c0-0.1-0.1-0.1-0.2-0.1c-0.1,0-0.2,0-0.2,0.1c0,0.1-0.1,0.1-0.1,0.2v0.5c0,0.1,0,0.2,0.1,0.2
						c0,0.1,0.1,0.1,0.2,0.1C162.3,295.8,162.4,295.8,162.5,295.7z"/>
				</g>
			</g>
		</g>
	</g>
	<g>
		<defs>
			<polygon id="SVGID_67_" points="19.9,303.4 324.6,303.4 324.6,148.4 19.9,148.4 19.9,303.4 			"/>
		</defs>
		<clipPath id="SVGID_68_">
			<use xlink:href="#SVGID_67_"  style="overflow:visible;"/>
		</clipPath>
		<g class="st34">
			<defs>
				<rect id="SVGID_69_" x="19.9" y="148.4" width="304.7" height="155"/>
			</defs>
			<clipPath id="SVGID_70_">
				<use xlink:href="#SVGID_69_"  style="overflow:visible;"/>
			</clipPath>
			<g class="st35">
				<g>
					<path d="M199.8,296.3c-0.2-0.1-0.4-0.3-0.6-0.5c-0.1-0.2-0.2-0.5-0.3-0.8h0.8c0,0.2,0.1,0.3,0.1,0.4c0.1,0.1,0.2,0.2,0.3,0.2
						c0.1,0,0.3,0.1,0.4,0.1c0.3,0,0.4-0.1,0.6-0.2c0.1-0.1,0.2-0.3,0.2-0.6v-0.2c0-0.3-0.1-0.5-0.2-0.6c-0.1-0.1-0.3-0.2-0.6-0.2
						h-0.4v-0.7h0.4c0.2,0,0.4-0.1,0.5-0.2c0.1-0.1,0.2-0.3,0.2-0.5v-0.2c0-0.2-0.1-0.4-0.2-0.5s-0.3-0.2-0.5-0.2
						c-0.1,0-0.2,0-0.3,0.1c-0.1,0-0.2,0.1-0.3,0.2c-0.1,0.1-0.1,0.2-0.2,0.4h-0.8c0-0.3,0.1-0.5,0.3-0.8c0.1-0.2,0.3-0.4,0.5-0.5
						c0.2-0.1,0.5-0.2,0.7-0.2c0.5,0,0.8,0.1,1.1,0.4c0.3,0.2,0.4,0.6,0.4,1v0.1c0,0.3-0.1,0.5-0.2,0.7s-0.4,0.3-0.6,0.4
						c0.3,0.1,0.5,0.2,0.7,0.4c0.2,0.2,0.2,0.5,0.2,0.9v0.1c0,0.3-0.1,0.6-0.2,0.8c-0.1,0.2-0.3,0.4-0.5,0.5
						c-0.2,0.1-0.5,0.2-0.8,0.2C200.3,296.4,200,296.4,199.8,296.3z"/>
					<path d="M203.6,296c-0.3-0.3-0.4-0.6-0.4-1.1v-2.5c0-0.5,0.1-0.9,0.4-1.1s0.6-0.4,1.1-0.4c0.5,0,0.9,0.1,1.2,0.4
						c0.3,0.3,0.4,0.6,0.4,1.1v2.5c0,0.5-0.1,0.9-0.4,1.1s-0.6,0.4-1.1,0.4C204.3,296.4,203.9,296.3,203.6,296z M205.4,295.5
						c0.1-0.1,0.2-0.3,0.2-0.6v-2.5c0-0.3-0.1-0.5-0.2-0.6c-0.1-0.1-0.3-0.2-0.6-0.2s-0.5,0.1-0.6,0.2c-0.1,0.1-0.2,0.3-0.2,0.6v2.5
						c0,0.3,0.1,0.5,0.2,0.6c0.1,0.1,0.3,0.2,0.6,0.2S205.3,295.6,205.4,295.5z"/>
					<path d="M209.4,293c-0.2-0.2-0.2-0.4-0.2-0.7v-0.5c0-0.3,0.1-0.5,0.2-0.7s0.4-0.3,0.7-0.3c0.3,0,0.5,0.1,0.7,0.3
						c0.2,0.2,0.2,0.4,0.2,0.7v0.5c0,0.3-0.1,0.5-0.2,0.7c-0.2,0.2-0.4,0.2-0.7,0.2C209.8,293.3,209.6,293.2,209.4,293z M212.5,291
						h0.7l-2.9,5.4h-0.7L212.5,291z M210.3,292.6c0-0.1,0.1-0.1,0.1-0.2v-0.5c0-0.1,0-0.2-0.1-0.2c0-0.1-0.1-0.1-0.2-0.1
						c-0.1,0-0.2,0-0.2,0.1c0,0.1-0.1,0.1-0.1,0.2v0.5c0,0.1,0,0.2,0.1,0.2c0,0.1,0.1,0.1,0.2,0.1
						C210.2,292.7,210.2,292.7,210.3,292.6z M212.1,296.2c-0.2-0.2-0.2-0.4-0.2-0.7V295c0-0.3,0.1-0.5,0.2-0.7s0.4-0.3,0.7-0.3
						c0.3,0,0.5,0.1,0.7,0.3s0.2,0.4,0.2,0.7v0.5c0,0.3-0.1,0.5-0.2,0.7c-0.2,0.2-0.4,0.2-0.7,0.2
						C212.5,296.4,212.3,296.3,212.1,296.2z M213,295.7c0-0.1,0.1-0.1,0.1-0.2V295c0-0.1,0-0.2-0.1-0.2c0-0.1-0.1-0.1-0.2-0.1
						c-0.1,0-0.2,0-0.2,0.1c0,0.1-0.1,0.1-0.1,0.2v0.5c0,0.1,0,0.2,0.1,0.2c0,0.1,0.1,0.1,0.2,0.1
						C212.9,295.8,212.9,295.8,213,295.7z"/>
				</g>
			</g>
		</g>
	</g>
	<g>
		<defs>
			<polygon id="SVGID_71_" points="19.9,303.4 324.6,303.4 324.6,148.4 19.9,148.4 19.9,303.4 			"/>
		</defs>
		<clipPath id="SVGID_72_">
			<use xlink:href="#SVGID_71_"  style="overflow:visible;"/>
		</clipPath>
		<g class="st36">
			<defs>
				<rect id="SVGID_73_" x="19.9" y="148.4" width="304.7" height="155"/>
			</defs>
			<clipPath id="SVGID_74_">
				<use xlink:href="#SVGID_73_"  style="overflow:visible;"/>
			</clipPath>
			<g class="st37">
				<g>
					<path d="M249.5,294.9l1.8-3.9h0.8l-1.8,3.9h2.7v0.7h-3.5V294.9z M251.9,293.2h0.7v3.2h-0.7V293.2z"/>
					<path d="M254.6,296c-0.3-0.3-0.4-0.6-0.4-1.1v-2.5c0-0.5,0.1-0.9,0.4-1.1s0.6-0.4,1.1-0.4c0.5,0,0.9,0.1,1.2,0.4
						c0.3,0.3,0.4,0.6,0.4,1.1v2.5c0,0.5-0.1,0.9-0.4,1.1s-0.6,0.4-1.1,0.4C255.2,296.4,254.8,296.3,254.6,296z M256.3,295.5
						c0.1-0.1,0.2-0.3,0.2-0.6v-2.5c0-0.3-0.1-0.5-0.2-0.6c-0.1-0.1-0.3-0.2-0.6-0.2s-0.5,0.1-0.6,0.2c-0.1,0.1-0.2,0.3-0.2,0.6v2.5
						c0,0.3,0.1,0.5,0.2,0.6c0.1,0.1,0.3,0.2,0.6,0.2S256.2,295.6,256.3,295.5z"/>
					<path d="M260.3,293c-0.2-0.2-0.2-0.4-0.2-0.7v-0.5c0-0.3,0.1-0.5,0.2-0.7s0.4-0.3,0.7-0.3c0.3,0,0.5,0.1,0.7,0.3
						c0.2,0.2,0.2,0.4,0.2,0.7v0.5c0,0.3-0.1,0.5-0.2,0.7c-0.2,0.2-0.4,0.2-0.7,0.2C260.7,293.3,260.5,293.2,260.3,293z M263.4,291
						h0.7l-2.9,5.4h-0.7L263.4,291z M261.2,292.6c0-0.1,0.1-0.1,0.1-0.2v-0.5c0-0.1,0-0.2-0.1-0.2c0-0.1-0.1-0.1-0.2-0.1
						c-0.1,0-0.2,0-0.2,0.1c0,0.1-0.1,0.1-0.1,0.2v0.5c0,0.1,0,0.2,0.1,0.2c0,0.1,0.1,0.1,0.2,0.1
						C261.1,292.7,261.1,292.7,261.2,292.6z M263,296.2c-0.2-0.2-0.2-0.4-0.2-0.7V295c0-0.3,0.1-0.5,0.2-0.7s0.4-0.3,0.7-0.3
						c0.3,0,0.5,0.1,0.7,0.3s0.2,0.4,0.2,0.7v0.5c0,0.3-0.1,0.5-0.2,0.7c-0.2,0.2-0.4,0.2-0.7,0.2
						C263.4,296.4,263.2,296.3,263,296.2z M263.9,295.7c0-0.1,0.1-0.1,0.1-0.2V295c0-0.1,0-0.2-0.1-0.2c0-0.1-0.1-0.1-0.2-0.1
						c-0.1,0-0.2,0-0.2,0.1c0,0.1-0.1,0.1-0.1,0.2v0.5c0,0.1,0,0.2,0.1,0.2c0,0.1,0.1,0.1,0.2,0.1
						C263.8,295.8,263.8,295.8,263.9,295.7z"/>
				</g>
			</g>
		</g>
	</g>
	<g>
		<defs>
			<polygon id="SVGID_75_" points="19.9,303.4 324.6,303.4 324.6,148.4 19.9,148.4 19.9,303.4 			"/>
		</defs>
		<clipPath id="SVGID_76_">
			<use xlink:href="#SVGID_75_"  style="overflow:visible;"/>
		</clipPath>
		<g class="st38">
			<defs>
				<rect id="SVGID_77_" x="19.9" y="148.4" width="304.7" height="155"/>
			</defs>
			<clipPath id="SVGID_78_">
				<use xlink:href="#SVGID_77_"  style="overflow:visible;"/>
			</clipPath>
			<g class="st39">
				<g>
					<path d="M301,296.3c-0.2-0.1-0.4-0.3-0.5-0.5c-0.1-0.2-0.2-0.4-0.3-0.7v0h0.8v0c0,0.2,0.1,0.4,0.2,0.5c0.1,0.1,0.3,0.2,0.5,0.2
						c0.2,0,0.4-0.1,0.6-0.2c0.1-0.2,0.2-0.4,0.2-0.7v-0.5c0-0.3-0.1-0.5-0.2-0.7s-0.3-0.2-0.6-0.2c-0.1,0-0.3,0-0.4,0.1
						c-0.1,0.1-0.2,0.2-0.3,0.3h-0.7V291h2.8v0.7h-2v1.2c0.1-0.1,0.2-0.1,0.3-0.2s0.2-0.1,0.4-0.1c0.3,0,0.6,0.1,0.8,0.2
						c0.2,0.1,0.4,0.3,0.5,0.6c0.1,0.2,0.2,0.5,0.2,0.9v0.5c0,0.3-0.1,0.6-0.2,0.9s-0.3,0.4-0.5,0.6c-0.2,0.1-0.5,0.2-0.8,0.2
						C301.5,296.4,301.2,296.4,301,296.3z"/>
					<path d="M304.7,296c-0.3-0.3-0.4-0.6-0.4-1.1v-2.5c0-0.5,0.1-0.9,0.4-1.1s0.6-0.4,1.1-0.4c0.5,0,0.9,0.1,1.2,0.4
						c0.3,0.3,0.4,0.6,0.4,1.1v2.5c0,0.5-0.1,0.9-0.4,1.1s-0.6,0.4-1.1,0.4C305.4,296.4,305,296.3,304.7,296z M306.5,295.5
						c0.1-0.1,0.2-0.3,0.2-0.6v-2.5c0-0.3-0.1-0.5-0.2-0.6c-0.1-0.1-0.3-0.2-0.6-0.2s-0.5,0.1-0.6,0.2c-0.1,0.1-0.2,0.3-0.2,0.6v2.5
						c0,0.3,0.1,0.5,0.2,0.6c0.1,0.1,0.3,0.2,0.6,0.2S306.3,295.6,306.5,295.5z"/>
					<path d="M310.5,293c-0.2-0.2-0.2-0.4-0.2-0.7v-0.5c0-0.3,0.1-0.5,0.2-0.7s0.4-0.3,0.7-0.3c0.3,0,0.5,0.1,0.7,0.3
						c0.2,0.2,0.2,0.4,0.2,0.7v0.5c0,0.3-0.1,0.5-0.2,0.7c-0.2,0.2-0.4,0.2-0.7,0.2C310.8,293.3,310.6,293.2,310.5,293z M313.6,291
						h0.7l-2.9,5.4h-0.7L313.6,291z M311.3,292.6c0-0.1,0.1-0.1,0.1-0.2v-0.5c0-0.1,0-0.2-0.1-0.2c0-0.1-0.1-0.1-0.2-0.1
						c-0.1,0-0.2,0-0.2,0.1c0,0.1-0.1,0.1-0.1,0.2v0.5c0,0.1,0,0.2,0.1,0.2c0,0.1,0.1,0.1,0.2,0.1
						C311.2,292.7,311.3,292.7,311.3,292.6z M313.2,296.2c-0.2-0.2-0.2-0.4-0.2-0.7V295c0-0.3,0.1-0.5,0.2-0.7s0.4-0.3,0.7-0.3
						c0.3,0,0.5,0.1,0.7,0.3s0.2,0.4,0.2,0.7v0.5c0,0.3-0.1,0.5-0.2,0.7c-0.2,0.2-0.4,0.2-0.7,0.2
						C313.5,296.4,313.3,296.3,313.2,296.2z M314,295.7c0-0.1,0.1-0.1,0.1-0.2V295c0-0.1,0-0.2-0.1-0.2c0-0.1-0.1-0.1-0.2-0.1
						c-0.1,0-0.2,0-0.2,0.1c0,0.1-0.1,0.1-0.1,0.2v0.5c0,0.1,0,0.2,0.1,0.2c0,0.1,0.1,0.1,0.2,0.1C313.9,295.8,314,295.8,314,295.7z
						"/>
				</g>
			</g>
		</g>
	</g>
	<g>
		<defs>
			<polygon id="SVGID_79_" points="19.9,303.4 324.6,303.4 324.6,148.4 19.9,148.4 19.9,303.4 			"/>
		</defs>
		<clipPath id="SVGID_80_">
			<use xlink:href="#SVGID_79_"  style="overflow:visible;"/>
		</clipPath>
		<g class="st40">
			<defs>
				<rect id="SVGID_81_" x="19.9" y="148.4" width="304.7" height="155"/>
			</defs>
			<clipPath id="SVGID_82_">
				<use xlink:href="#SVGID_81_"  style="overflow:visible;"/>
			</clipPath>
			<g class="st41">
				<g>
					<path d="M30.3,277.3c-0.2-0.1-0.4-0.3-0.6-0.6c-0.1-0.3-0.2-0.6-0.2-0.9v-0.6c0-0.3,0.1-0.6,0.2-0.9c0.1-0.2,0.3-0.4,0.6-0.6
						c0.2-0.1,0.6-0.2,0.9-0.2c0.2,0,0.4,0,0.6,0.1c0.2,0,0.3,0.1,0.5,0.2c0.1,0.1,0.3,0.2,0.4,0.3l-0.5,0.5
						c-0.1-0.1-0.2-0.2-0.4-0.3c-0.1-0.1-0.3-0.1-0.5-0.1c-0.3,0-0.5,0.1-0.7,0.2c-0.2,0.2-0.2,0.4-0.2,0.7v0.6
						c0,0.3,0.1,0.5,0.2,0.7c0.2,0.2,0.4,0.2,0.7,0.2c0.2,0,0.3,0,0.5-0.1c0.1-0.1,0.3-0.2,0.4-0.3l0.5,0.5
						c-0.1,0.1-0.2,0.2-0.4,0.3c-0.1,0.1-0.3,0.2-0.5,0.2s-0.4,0.1-0.6,0.1C30.9,277.4,30.6,277.4,30.3,277.3z"/>
					<path d="M33.2,272H34v5.4h-0.8V272z M35.6,275.1c0-0.3-0.1-0.5-0.2-0.6c-0.1-0.1-0.3-0.2-0.6-0.2c-0.2,0-0.4,0.1-0.6,0.2
						s-0.2,0.3-0.2,0.5l-0.1-0.7c0.1-0.2,0.3-0.4,0.5-0.5s0.4-0.2,0.6-0.2c0.4,0,0.7,0.1,1,0.4c0.2,0.3,0.3,0.7,0.3,1.2v2.3h-0.8
						V275.1z"/>
					<path d="M38.4,277.2c-0.3-0.1-0.4-0.3-0.6-0.6c-0.1-0.3-0.2-0.6-0.2-0.9v-0.4c0-0.4,0.1-0.7,0.2-1c0.1-0.3,0.3-0.5,0.6-0.6
						c0.2-0.1,0.5-0.2,0.9-0.2c0.3,0,0.6,0.1,0.8,0.2c0.2,0.2,0.4,0.4,0.5,0.7c0.1,0.3,0.2,0.7,0.2,1.1v0.3h-2.6v-0.6h1.9
						c0-0.3-0.1-0.6-0.2-0.7c-0.1-0.2-0.3-0.3-0.6-0.3c-0.3,0-0.5,0.1-0.7,0.3c-0.2,0.2-0.2,0.5-0.2,0.8v0.5c0,0.3,0.1,0.6,0.3,0.7
						c0.2,0.2,0.4,0.3,0.7,0.3c0.2,0,0.3,0,0.5-0.1c0.2-0.1,0.3-0.1,0.4-0.3l0.5,0.5c-0.2,0.2-0.4,0.3-0.6,0.4
						c-0.2,0.1-0.5,0.2-0.7,0.2C39,277.4,38.7,277.4,38.4,277.2z"/>
					<path d="M42.6,277.4c-0.2,0-0.4-0.1-0.6-0.2c-0.2-0.1-0.3-0.2-0.5-0.3l0.5-0.6c0.2,0.2,0.4,0.3,0.6,0.4
						c0.2,0.1,0.4,0.1,0.6,0.1c0.3,0,0.5,0,0.7-0.1c0.2-0.1,0.2-0.2,0.2-0.4c0-0.1,0-0.2-0.1-0.3s-0.2-0.1-0.3-0.1
						c-0.1,0-0.3,0-0.5-0.1c0,0,0,0-0.1,0c0,0,0,0-0.1,0c0,0,0,0,0,0c0,0,0,0,0,0c-0.3,0-0.5-0.1-0.6-0.1c-0.2-0.1-0.3-0.2-0.4-0.3
						c-0.1-0.1-0.2-0.4-0.2-0.6c0-0.3,0.1-0.5,0.2-0.7c0.1-0.2,0.3-0.3,0.5-0.4c0.2-0.1,0.5-0.1,0.8-0.1c0.2,0,0.4,0,0.6,0.1
						s0.4,0.1,0.5,0.2c0.2,0.1,0.3,0.2,0.5,0.3l-0.5,0.6c-0.2-0.1-0.4-0.2-0.6-0.3c-0.2-0.1-0.4-0.1-0.5-0.1c-0.3,0-0.5,0-0.6,0.1
						c-0.1,0.1-0.2,0.2-0.2,0.4c0,0.1,0,0.2,0.1,0.2c0.1,0.1,0.2,0.1,0.3,0.1c0.1,0,0.3,0,0.5,0c0,0,0,0,0,0s0,0,0.1,0c0,0,0,0,0,0
						c0,0,0,0,0,0c0.3,0,0.5,0.1,0.7,0.1c0.2,0.1,0.3,0.2,0.5,0.3c0.1,0.2,0.2,0.4,0.2,0.7c0,0.3-0.1,0.5-0.2,0.7
						c-0.1,0.2-0.3,0.3-0.5,0.4c-0.2,0.1-0.5,0.1-0.9,0.1C43,277.4,42.8,277.4,42.6,277.4z"/>
					<path d="M45.6,273.5h1.7v0.7h-1.7V273.5z M46.2,277.2c-0.1-0.2-0.2-0.4-0.2-0.8v-4h0.8v4c0,0.1,0,0.2,0.1,0.2s0.1,0.1,0.2,0.1
						h0.4v0.7h-0.4C46.6,277.4,46.4,277.3,46.2,277.2z"/>
				</g>
			</g>
		</g>
	</g>
	<g>
		<defs>
			<polygon id="SVGID_83_" points="19.9,303.4 324.6,303.4 324.6,148.4 19.9,148.4 19.9,303.4 			"/>
		</defs>
		<clipPath id="SVGID_84_">
			<use xlink:href="#SVGID_83_"  style="overflow:visible;"/>
		</clipPath>
		<g class="st42">
			<defs>
				<rect id="SVGID_85_" x="19.9" y="148.4" width="304.7" height="155"/>
			</defs>
			<clipPath id="SVGID_86_">
				<use xlink:href="#SVGID_85_"  style="overflow:visible;"/>
			</clipPath>
			<g class="st43">
				<g>
					<path d="M29.9,255.5h1.7v0.7h-1.7V255.5z M30.6,259.1c-0.1-0.2-0.2-0.4-0.2-0.8v-4h0.8v4c0,0.1,0,0.2,0.1,0.2s0.1,0.1,0.2,0.1
						h0.4v0.7h-0.4C30.9,259.4,30.7,259.3,30.6,259.1z"/>
					<path d="M33.4,259.2c-0.2-0.1-0.4-0.3-0.5-0.6s-0.2-0.6-0.2-0.9v-0.6c0-0.3,0.1-0.6,0.2-0.9c0.1-0.2,0.3-0.4,0.5-0.6
						c0.2-0.1,0.5-0.2,0.9-0.2s0.6,0.1,0.9,0.2c0.2,0.1,0.4,0.3,0.5,0.6c0.1,0.2,0.2,0.5,0.2,0.9v0.6c0,0.4-0.1,0.7-0.2,0.9
						c-0.1,0.2-0.3,0.4-0.5,0.6c-0.2,0.1-0.5,0.2-0.9,0.2S33.6,259.4,33.4,259.2z M34.9,258.5c0.1-0.2,0.2-0.4,0.2-0.7v-0.6
						c0-0.3-0.1-0.5-0.2-0.7s-0.4-0.2-0.6-0.2c-0.3,0-0.5,0.1-0.6,0.2s-0.2,0.4-0.2,0.7v0.6c0,0.3,0.1,0.5,0.2,0.7
						c0.1,0.2,0.4,0.2,0.6,0.2C34.5,258.7,34.7,258.6,34.9,258.5z"/>
					<path d="M36.8,255.5h0.8v3.9h-0.8V255.5z M38.7,256.3c-0.1,0-0.2-0.1-0.4-0.1c-0.2,0-0.4,0.1-0.6,0.2c-0.1,0.1-0.2,0.3-0.2,0.6
						l-0.1-0.7c0.1-0.2,0.3-0.4,0.5-0.5c0.2-0.1,0.4-0.2,0.6-0.2c0.2,0,0.3,0,0.5,0.1s0.3,0.1,0.4,0.2l-0.5,0.7
						C38.9,256.4,38.8,256.3,38.7,256.3z"/>
					<path d="M40.6,259.4c-0.2,0-0.4-0.1-0.6-0.2c-0.2-0.1-0.3-0.2-0.5-0.3l0.5-0.6c0.2,0.2,0.4,0.3,0.6,0.4
						c0.2,0.1,0.4,0.1,0.6,0.1c0.3,0,0.5,0,0.7-0.1c0.2-0.1,0.2-0.2,0.2-0.4c0-0.1,0-0.2-0.1-0.3s-0.2-0.1-0.3-0.1
						c-0.1,0-0.3,0-0.5-0.1c0,0,0,0-0.1,0c0,0,0,0-0.1,0c0,0,0,0,0,0c0,0,0,0,0,0c-0.3,0-0.5-0.1-0.6-0.1c-0.2-0.1-0.3-0.2-0.4-0.3
						c-0.1-0.1-0.2-0.4-0.2-0.6c0-0.3,0.1-0.5,0.2-0.7c0.1-0.2,0.3-0.3,0.5-0.4c0.2-0.1,0.5-0.1,0.8-0.1c0.2,0,0.4,0,0.6,0.1
						s0.4,0.1,0.5,0.2c0.2,0.1,0.3,0.2,0.5,0.3l-0.5,0.6c-0.2-0.1-0.4-0.2-0.6-0.3c-0.2-0.1-0.4-0.1-0.5-0.1c-0.3,0-0.5,0-0.6,0.1
						c-0.1,0.1-0.2,0.2-0.2,0.4c0,0.1,0,0.2,0.1,0.2c0.1,0.1,0.2,0.1,0.3,0.1c0.1,0,0.3,0,0.5,0c0,0,0,0,0,0s0,0,0.1,0c0,0,0,0,0,0
						c0,0,0,0,0,0c0.3,0,0.5,0.1,0.7,0.1c0.2,0.1,0.3,0.2,0.5,0.3c0.1,0.2,0.2,0.4,0.2,0.7c0,0.3-0.1,0.5-0.2,0.7
						c-0.1,0.2-0.3,0.3-0.5,0.4c-0.2,0.1-0.5,0.1-0.9,0.1C41,259.4,40.8,259.4,40.6,259.4z"/>
					<path d="M44.6,259.2c-0.2-0.1-0.4-0.3-0.5-0.6s-0.2-0.6-0.2-0.9v-0.6c0-0.3,0.1-0.6,0.2-0.9c0.1-0.2,0.3-0.4,0.5-0.6
						c0.2-0.1,0.5-0.2,0.9-0.2s0.6,0.1,0.9,0.2c0.2,0.1,0.4,0.3,0.5,0.6c0.1,0.2,0.2,0.5,0.2,0.9v0.6c0,0.4-0.1,0.7-0.2,0.9
						c-0.1,0.2-0.3,0.4-0.5,0.6c-0.2,0.1-0.5,0.2-0.9,0.2S44.8,259.4,44.6,259.2z M46,258.5c0.1-0.2,0.2-0.4,0.2-0.7v-0.6
						c0-0.3-0.1-0.5-0.2-0.7s-0.4-0.2-0.6-0.2c-0.3,0-0.5,0.1-0.6,0.2s-0.2,0.4-0.2,0.7v0.6c0,0.3,0.1,0.5,0.2,0.7
						c0.1,0.2,0.4,0.2,0.6,0.2C45.7,258.7,45.9,258.6,46,258.5z"/>
				</g>
			</g>
		</g>
	</g>
	<g>
		<defs>
			<polygon id="SVGID_87_" points="19.9,303.4 324.6,303.4 324.6,148.4 19.9,148.4 19.9,303.4 			"/>
		</defs>
		<clipPath id="SVGID_88_">
			<use xlink:href="#SVGID_87_"  style="overflow:visible;"/>
		</clipPath>
		<g class="st44">
			<defs>
				<rect id="SVGID_89_" x="19.9" y="148.4" width="304.7" height="155"/>
			</defs>
			<clipPath id="SVGID_90_">
				<use xlink:href="#SVGID_89_"  style="overflow:visible;"/>
			</clipPath>
			<g class="st45">
				<g>
					<path d="M34.6,240.4c0,0.1,0,0.2,0.1,0.2c0,0.1,0.1,0.1,0.2,0.1h0.4v0.7h-0.4c-0.3,0-0.5-0.1-0.7-0.3c-0.2-0.2-0.2-0.4-0.2-0.8
						V236h0.8V240.4z"/>
					<path d="M36.6,241.2c-0.3-0.1-0.4-0.3-0.6-0.6c-0.1-0.3-0.2-0.6-0.2-0.9v-0.4c0-0.4,0.1-0.7,0.2-1c0.1-0.3,0.3-0.5,0.6-0.6
						c0.2-0.1,0.5-0.2,0.9-0.2c0.3,0,0.6,0.1,0.8,0.2c0.2,0.2,0.4,0.4,0.5,0.7c0.1,0.3,0.2,0.7,0.2,1.1v0.3h-2.6v-0.6h1.9
						c0-0.3-0.1-0.6-0.2-0.7c-0.1-0.2-0.3-0.3-0.6-0.3c-0.3,0-0.5,0.1-0.7,0.3c-0.2,0.2-0.2,0.5-0.2,0.8v0.5c0,0.3,0.1,0.6,0.3,0.7
						c0.2,0.2,0.4,0.3,0.7,0.3c0.2,0,0.3,0,0.5-0.1c0.2-0.1,0.3-0.1,0.4-0.3l0.5,0.5c-0.2,0.2-0.4,0.3-0.6,0.4
						c-0.2,0.1-0.5,0.2-0.7,0.2C37.1,241.4,36.8,241.4,36.6,241.2z"/>
					<path d="M40.5,241.3c-0.2-0.1-0.4-0.3-0.5-0.5c-0.1-0.2-0.2-0.5-0.2-0.8V239c0-0.3,0.1-0.6,0.2-0.8c0.1-0.2,0.2-0.4,0.4-0.5
						s0.4-0.2,0.7-0.2c0.2,0,0.4,0.1,0.6,0.2c0.2,0.1,0.3,0.3,0.5,0.5l-0.1,0.8c0-0.2,0-0.3-0.1-0.4s-0.1-0.2-0.3-0.3
						s-0.2-0.1-0.4-0.1c-0.3,0-0.4,0.1-0.6,0.2s-0.2,0.4-0.2,0.7v0.8c0,0.3,0.1,0.5,0.2,0.6s0.3,0.2,0.6,0.2c0.2,0,0.3,0,0.4-0.1
						c0.1-0.1,0.2-0.2,0.3-0.3c0.1-0.1,0.1-0.3,0.1-0.4l0.1,0.8c-0.1,0.2-0.2,0.3-0.4,0.5c-0.2,0.1-0.4,0.2-0.6,0.2
						C40.9,241.4,40.7,241.4,40.5,241.3z M40.5,242.8c-0.2-0.1-0.4-0.3-0.5-0.5l0.5-0.5c0.1,0.1,0.2,0.2,0.4,0.3s0.3,0.1,0.4,0.1
						c0.3,0,0.5-0.1,0.7-0.2c0.2-0.2,0.2-0.4,0.2-0.7v-3.8h0.8v3.7c0,0.4-0.1,0.7-0.2,0.9c-0.1,0.3-0.3,0.4-0.6,0.6
						s-0.5,0.2-0.9,0.2C41,242.9,40.7,242.9,40.5,242.8z"/>
					<path d="M44.8,241.4c-0.2,0-0.4-0.1-0.6-0.2c-0.2-0.1-0.3-0.2-0.5-0.3l0.5-0.6c0.2,0.2,0.4,0.3,0.6,0.4
						c0.2,0.1,0.4,0.1,0.6,0.1c0.3,0,0.5,0,0.7-0.1c0.2-0.1,0.2-0.2,0.2-0.4c0-0.1,0-0.2-0.1-0.3s-0.2-0.1-0.3-0.1
						c-0.1,0-0.3,0-0.5-0.1c0,0,0,0-0.1,0c0,0,0,0-0.1,0c0,0,0,0,0,0c0,0,0,0,0,0c-0.3,0-0.5-0.1-0.6-0.1c-0.2-0.1-0.3-0.2-0.4-0.3
						c-0.1-0.1-0.2-0.4-0.2-0.6c0-0.3,0.1-0.5,0.2-0.7c0.1-0.2,0.3-0.3,0.5-0.4c0.2-0.1,0.5-0.1,0.8-0.1c0.2,0,0.4,0,0.6,0.1
						s0.4,0.1,0.5,0.2c0.2,0.1,0.3,0.2,0.5,0.3l-0.5,0.6c-0.2-0.1-0.4-0.2-0.6-0.3c-0.2-0.1-0.4-0.1-0.5-0.1c-0.3,0-0.5,0-0.6,0.1
						c-0.1,0.1-0.2,0.2-0.2,0.4c0,0.1,0,0.2,0.1,0.2c0.1,0.1,0.2,0.1,0.3,0.1c0.1,0,0.3,0,0.5,0c0,0,0,0,0,0s0,0,0.1,0c0,0,0,0,0,0
						c0,0,0,0,0,0c0.3,0,0.5,0.1,0.7,0.1c0.2,0.1,0.3,0.2,0.5,0.3c0.1,0.2,0.2,0.4,0.2,0.7c0,0.3-0.1,0.5-0.2,0.7
						c-0.1,0.2-0.3,0.3-0.5,0.4c-0.2,0.1-0.5,0.1-0.9,0.1C45.2,241.4,45,241.4,44.8,241.4z"/>
				</g>
			</g>
		</g>
	</g>
	<g>
		<defs>
			<polygon id="SVGID_91_" points="19.9,303.4 324.6,303.4 324.6,148.4 19.9,148.4 19.9,303.4 			"/>
		</defs>
		<clipPath id="SVGID_92_">
			<use xlink:href="#SVGID_91_"  style="overflow:visible;"/>
		</clipPath>
		<g class="st46">
			<defs>
				<rect id="SVGID_93_" x="19.9" y="148.4" width="304.7" height="155"/>
			</defs>
			<clipPath id="SVGID_94_">
				<use xlink:href="#SVGID_93_"  style="overflow:visible;"/>
			</clipPath>
			<g class="st47">
				<g>
					<path d="M26.7,223.3c-0.2,0-0.4-0.1-0.6-0.2c-0.2-0.1-0.3-0.2-0.5-0.3l0.5-0.6c0.2,0.2,0.4,0.3,0.6,0.4
						c0.2,0.1,0.4,0.1,0.6,0.1c0.3,0,0.5,0,0.7-0.1c0.2-0.1,0.2-0.2,0.2-0.4c0-0.1,0-0.2-0.1-0.3c-0.1-0.1-0.2-0.1-0.3-0.1
						s-0.3,0-0.5-0.1c0,0,0,0-0.1,0c0,0,0,0-0.1,0c0,0,0,0,0,0c0,0,0,0,0,0c-0.3,0-0.5-0.1-0.6-0.1c-0.2-0.1-0.3-0.2-0.4-0.3
						s-0.2-0.4-0.2-0.6s0.1-0.5,0.2-0.7c0.1-0.2,0.3-0.3,0.5-0.4s0.5-0.1,0.8-0.1c0.2,0,0.4,0,0.6,0.1s0.4,0.1,0.5,0.2
						c0.2,0.1,0.3,0.2,0.5,0.3l-0.5,0.6c-0.2-0.1-0.4-0.2-0.6-0.3c-0.2-0.1-0.4-0.1-0.5-0.1c-0.3,0-0.5,0-0.6,0.1s-0.2,0.2-0.2,0.4
						c0,0.1,0,0.2,0.1,0.2s0.2,0.1,0.3,0.1c0.1,0,0.3,0,0.5,0c0,0,0,0,0,0s0,0,0.1,0c0,0,0,0,0,0c0,0,0,0,0,0c0.3,0,0.5,0.1,0.7,0.1
						c0.2,0.1,0.3,0.2,0.5,0.3c0.1,0.2,0.2,0.4,0.2,0.7c0,0.3-0.1,0.5-0.2,0.7c-0.1,0.2-0.3,0.3-0.5,0.4c-0.2,0.1-0.5,0.1-0.9,0.1
						C27.1,223.4,26.9,223.4,26.7,223.3z"/>
					<path d="M30.8,222.4c0,0.1,0,0.2,0.1,0.2c0,0.1,0.1,0.1,0.2,0.1h0.4v0.7H31c-0.3,0-0.5-0.1-0.7-0.3c-0.2-0.2-0.2-0.4-0.2-0.8
						V218h0.8V222.4z"/>
					<path d="M32.8,223.2c-0.3-0.1-0.4-0.3-0.6-0.6c-0.1-0.3-0.2-0.6-0.2-0.9v-0.4c0-0.4,0.1-0.7,0.2-1c0.1-0.3,0.3-0.5,0.6-0.6
						c0.2-0.1,0.5-0.2,0.9-0.2c0.3,0,0.6,0.1,0.8,0.2c0.2,0.2,0.4,0.4,0.5,0.7s0.2,0.7,0.2,1.1v0.3h-2.6v-0.6h1.9
						c0-0.3-0.1-0.6-0.2-0.7c-0.1-0.2-0.3-0.3-0.6-0.3c-0.3,0-0.5,0.1-0.7,0.3c-0.2,0.2-0.2,0.5-0.2,0.8v0.5c0,0.3,0.1,0.6,0.3,0.7
						c0.2,0.2,0.4,0.3,0.7,0.3c0.2,0,0.3,0,0.5-0.1c0.2-0.1,0.3-0.1,0.4-0.3l0.5,0.5c-0.2,0.2-0.4,0.3-0.6,0.4
						c-0.2,0.1-0.5,0.2-0.7,0.2C33.3,223.4,33,223.3,32.8,223.2z"/>
					<path d="M36.8,223.2c-0.3-0.1-0.4-0.3-0.6-0.6c-0.1-0.3-0.2-0.6-0.2-0.9v-0.4c0-0.4,0.1-0.7,0.2-1c0.1-0.3,0.3-0.5,0.6-0.6
						c0.2-0.1,0.5-0.2,0.9-0.2c0.3,0,0.6,0.1,0.8,0.2c0.2,0.2,0.4,0.4,0.5,0.7s0.2,0.7,0.2,1.1v0.3h-2.6v-0.6h1.9
						c0-0.3-0.1-0.6-0.2-0.7c-0.1-0.2-0.3-0.3-0.6-0.3c-0.3,0-0.5,0.1-0.7,0.3c-0.2,0.2-0.2,0.5-0.2,0.8v0.5c0,0.3,0.1,0.6,0.3,0.7
						c0.2,0.2,0.4,0.3,0.7,0.3c0.2,0,0.3,0,0.5-0.1c0.2-0.1,0.3-0.1,0.4-0.3l0.5,0.5c-0.2,0.2-0.4,0.3-0.6,0.4
						c-0.2,0.1-0.5,0.2-0.7,0.2C37.4,223.4,37.1,223.3,36.8,223.2z"/>
					<path d="M42.5,219.5h0.8l-1.5,3.9h-0.6l-1.5-3.9h0.8l0.9,2.7L42.5,219.5z"/>
					<path d="M45,223.2c-0.3-0.1-0.4-0.3-0.6-0.6c-0.1-0.3-0.2-0.6-0.2-0.9v-0.4c0-0.4,0.1-0.7,0.2-1c0.1-0.3,0.3-0.5,0.6-0.6
						c0.2-0.1,0.5-0.2,0.9-0.2c0.3,0,0.6,0.1,0.8,0.2c0.2,0.2,0.4,0.4,0.5,0.7s0.2,0.7,0.2,1.1v0.3h-2.6v-0.6h1.9
						c0-0.3-0.1-0.6-0.2-0.7c-0.1-0.2-0.3-0.3-0.6-0.3c-0.3,0-0.5,0.1-0.7,0.3c-0.2,0.2-0.2,0.5-0.2,0.8v0.5c0,0.3,0.1,0.6,0.3,0.7
						c0.2,0.2,0.4,0.3,0.7,0.3c0.2,0,0.3,0,0.5-0.1c0.2-0.1,0.3-0.1,0.4-0.3l0.5,0.5c-0.2,0.2-0.4,0.3-0.6,0.4
						c-0.2,0.1-0.5,0.2-0.7,0.2C45.5,223.4,45.2,223.3,45,223.2z"/>
				</g>
			</g>
		</g>
	</g>
	<g>
		<defs>
			<polygon id="SVGID_95_" points="19.9,303.4 324.6,303.4 324.6,148.4 19.9,148.4 19.9,303.4 			"/>
		</defs>
		<clipPath id="SVGID_96_">
			<use xlink:href="#SVGID_95_"  style="overflow:visible;"/>
		</clipPath>
		<g class="st48">
			<defs>
				<rect id="SVGID_97_" x="19.9" y="148.4" width="304.7" height="155"/>
			</defs>
			<clipPath id="SVGID_98_">
				<use xlink:href="#SVGID_97_"  style="overflow:visible;"/>
			</clipPath>
			<g class="st49">
				<g>
					<path d="M29.8,205.1c-0.2-0.2-0.4-0.5-0.4-0.9c0-0.4,0.1-0.7,0.3-0.9s0.5-0.3,1-0.3h1.1l0.1,0.6h-1.1c-0.2,0-0.3,0-0.4,0.1
						c-0.1,0.1-0.1,0.2-0.1,0.4c0,0.2,0.1,0.3,0.2,0.4c0.1,0.1,0.3,0.1,0.6,0.1c0.3,0,0.5,0,0.6-0.1c0.1-0.1,0.2-0.2,0.2-0.3
						l0.1,0.5c-0.1,0.1-0.1,0.2-0.2,0.3c-0.1,0.1-0.2,0.1-0.3,0.1c-0.1,0-0.3,0.1-0.4,0.1C30.4,205.4,30,205.3,29.8,205.1z
						 M31.8,202.9c0-0.3-0.1-0.4-0.2-0.6s-0.3-0.2-0.6-0.2c-0.2,0-0.3,0-0.5,0.1s-0.3,0.1-0.4,0.2l-0.6-0.4c0.1-0.2,0.3-0.3,0.6-0.4
						s0.5-0.1,0.8-0.1c0.3,0,0.6,0.1,0.8,0.2c0.2,0.1,0.4,0.3,0.5,0.5c0.1,0.2,0.2,0.5,0.2,0.8v2.5h-0.7V202.9z"/>
					<path d="M33.7,201.5h0.8v3.9h-0.8V201.5z M36,203c0-0.3-0.1-0.5-0.2-0.6c-0.1-0.1-0.3-0.2-0.6-0.2c-0.2,0-0.4,0.1-0.6,0.2
						c-0.1,0.1-0.2,0.3-0.2,0.6l-0.1-0.7c0.1-0.2,0.3-0.4,0.5-0.5c0.2-0.1,0.4-0.2,0.6-0.2c0.4,0,0.7,0.1,1,0.4
						c0.2,0.3,0.3,0.7,0.3,1.2v2.3H36V203z"/>
					<path d="M37.7,199.9h0.8v5.4h-0.8V199.9z M38,203.9l2-2.4h0.9l-2.9,3.3L38,203.9z M38.9,203.1l0.5-0.5l1.7,2.7h-0.8L38.9,203.1
						z"/>
					<path d="M42.5,204.4c0,0.1,0,0.2,0.1,0.2c0,0.1,0.1,0.1,0.2,0.1h0.4v0.7h-0.4c-0.3,0-0.5-0.1-0.7-0.3c-0.2-0.2-0.2-0.4-0.2-0.8
						v-4.4h0.8V204.4z"/>
					<path d="M45,205.2c-0.3-0.1-0.4-0.3-0.6-0.6c-0.1-0.3-0.2-0.6-0.2-0.9v-0.4c0-0.4,0.1-0.7,0.2-1c0.1-0.3,0.3-0.5,0.6-0.6
						c0.2-0.1,0.5-0.2,0.9-0.2c0.3,0,0.6,0.1,0.8,0.2c0.2,0.2,0.4,0.4,0.5,0.7s0.2,0.7,0.2,1.1v0.3h-2.6v-0.6h1.9
						c0-0.3-0.1-0.6-0.2-0.7c-0.1-0.2-0.3-0.3-0.6-0.3c-0.3,0-0.5,0.1-0.7,0.3c-0.2,0.2-0.2,0.5-0.2,0.8v0.5c0,0.3,0.1,0.6,0.3,0.7
						c0.2,0.2,0.4,0.3,0.7,0.3c0.2,0,0.3,0,0.5-0.1c0.2-0.1,0.3-0.1,0.4-0.3l0.5,0.5c-0.2,0.2-0.4,0.3-0.6,0.4
						c-0.2,0.1-0.5,0.2-0.7,0.2C45.5,205.4,45.2,205.3,45,205.2z"/>
				</g>
			</g>
		</g>
	</g>
	<g>
		<defs>
			<polygon id="SVGID_99_" points="19.9,303.4 324.6,303.4 324.6,148.4 19.9,148.4 19.9,303.4 			"/>
		</defs>
		<clipPath id="SVGID_100_">
			<use xlink:href="#SVGID_99_"  style="overflow:visible;"/>
		</clipPath>
		<g class="st50">
			<defs>
				<rect id="SVGID_101_" x="19.9" y="148.4" width="304.7" height="155"/>
			</defs>
			<clipPath id="SVGID_102_">
				<use xlink:href="#SVGID_101_"  style="overflow:visible;"/>
			</clipPath>
			<g class="st51">
				<g>
					<path d="M32.2,181.9H33v5.4h-0.8V181.9z M33.3,187.2c-0.2-0.1-0.3-0.3-0.4-0.5l0.1-0.8c0,0.2,0,0.3,0.1,0.4s0.1,0.2,0.3,0.3
						s0.3,0.1,0.4,0.1c0.3,0,0.4-0.1,0.6-0.2c0.1-0.2,0.2-0.4,0.2-0.6V185c0-0.3-0.1-0.5-0.2-0.7s-0.3-0.2-0.6-0.2
						c-0.2,0-0.3,0-0.4,0.1c-0.1,0.1-0.2,0.1-0.3,0.3s-0.1,0.3-0.1,0.4l-0.1-0.7c0.1-0.2,0.3-0.4,0.5-0.5s0.4-0.2,0.6-0.2
						c0.3,0,0.5,0.1,0.7,0.2c0.2,0.1,0.3,0.3,0.4,0.5s0.2,0.5,0.2,0.8v0.8c0,0.3-0.1,0.6-0.2,0.8c-0.1,0.2-0.3,0.4-0.5,0.5
						c-0.2,0.1-0.4,0.2-0.7,0.2C33.7,187.4,33.5,187.3,33.3,187.2z"/>
					<path d="M36.4,187.1c-0.2-0.2-0.4-0.5-0.4-0.9c0-0.4,0.1-0.7,0.3-0.9s0.5-0.3,1-0.3h1.1l0.1,0.6h-1.1c-0.2,0-0.3,0-0.4,0.1
						c-0.1,0.1-0.1,0.2-0.1,0.4c0,0.2,0.1,0.3,0.2,0.4c0.1,0.1,0.3,0.1,0.6,0.1c0.3,0,0.5,0,0.6-0.1c0.1-0.1,0.2-0.2,0.2-0.3
						l0.1,0.5c-0.1,0.1-0.1,0.2-0.2,0.3c-0.1,0.1-0.2,0.1-0.3,0.1c-0.1,0-0.3,0.1-0.4,0.1C37,187.4,36.7,187.3,36.4,187.1z
						 M38.5,184.9c0-0.3-0.1-0.4-0.2-0.6s-0.3-0.2-0.6-0.2c-0.2,0-0.3,0-0.5,0.1s-0.3,0.1-0.4,0.2l-0.6-0.4c0.1-0.2,0.3-0.3,0.6-0.4
						s0.5-0.1,0.8-0.1c0.3,0,0.6,0.1,0.8,0.2c0.2,0.1,0.4,0.3,0.5,0.5c0.1,0.2,0.2,0.5,0.2,0.8v2.5h-0.7V184.9z"/>
					<path d="M41,187.2c-0.2-0.1-0.4-0.3-0.6-0.6c-0.1-0.2-0.2-0.6-0.2-0.9v-0.6c0-0.3,0.1-0.6,0.2-0.9c0.1-0.2,0.3-0.4,0.6-0.6
						c0.2-0.1,0.6-0.2,0.9-0.2c0.2,0,0.4,0,0.6,0.1c0.2,0,0.3,0.1,0.5,0.2c0.1,0.1,0.3,0.2,0.4,0.3l-0.5,0.5
						c-0.1-0.1-0.2-0.2-0.4-0.3c-0.1-0.1-0.3-0.1-0.5-0.1c-0.3,0-0.5,0.1-0.7,0.2c-0.2,0.2-0.2,0.4-0.2,0.7v0.6
						c0,0.3,0.1,0.5,0.2,0.7c0.2,0.2,0.4,0.2,0.7,0.2c0.2,0,0.3,0,0.5-0.1c0.1-0.1,0.3-0.2,0.4-0.3l0.5,0.5
						c-0.1,0.1-0.2,0.2-0.4,0.3c-0.1,0.1-0.3,0.2-0.5,0.2c-0.2,0-0.4,0.1-0.6,0.1C41.5,187.4,41.2,187.3,41,187.2z"/>
					<path d="M44.4,181.9h0.8v5.4h-0.8V181.9z M44.7,185.9l2-2.4h0.9l-2.9,3.3L44.7,185.9z M45.6,185.1l0.5-0.5l1.7,2.7H47
						L45.6,185.1z"/>
				</g>
			</g>
		</g>
	</g>
	<g>
		<defs>
			<polygon id="SVGID_103_" points="19.9,303.4 324.6,303.4 324.6,148.4 19.9,148.4 19.9,303.4 			"/>
		</defs>
		<clipPath id="SVGID_104_">
			<use xlink:href="#SVGID_103_"  style="overflow:visible;"/>
		</clipPath>
		<g class="st52">
			<defs>
				<rect id="SVGID_105_" x="19.9" y="148.4" width="304.7" height="155"/>
			</defs>
			<clipPath id="SVGID_106_">
				<use xlink:href="#SVGID_105_"  style="overflow:visible;"/>
			</clipPath>
			<g class="st53">
				<g>
					<path d="M30.6,169.2c-0.2-0.1-0.4-0.3-0.5-0.6c-0.1-0.3-0.2-0.6-0.2-0.9v-0.6c0-0.3,0.1-0.6,0.2-0.9s0.3-0.4,0.5-0.6
						c0.2-0.1,0.5-0.2,0.9-0.2s0.6,0.1,0.9,0.2c0.2,0.1,0.4,0.3,0.5,0.6c0.1,0.2,0.2,0.5,0.2,0.9v0.6c0,0.4-0.1,0.7-0.2,0.9
						c-0.1,0.2-0.3,0.4-0.5,0.6c-0.2,0.1-0.5,0.2-0.9,0.2S30.9,169.3,30.6,169.2z M32.1,168.4c0.1-0.2,0.2-0.4,0.2-0.7v-0.6
						c0-0.3-0.1-0.5-0.2-0.7c-0.1-0.2-0.4-0.2-0.6-0.2c-0.3,0-0.5,0.1-0.6,0.2c-0.1,0.2-0.2,0.4-0.2,0.7v0.6c0,0.3,0.1,0.5,0.2,0.7
						c0.1,0.2,0.4,0.2,0.6,0.2C31.7,168.7,32,168.6,32.1,168.4z"/>
					<path d="M33.8,165.5h1.7v0.7h-1.7V165.5z M34.4,169.1c-0.1-0.2-0.2-0.4-0.2-0.8v-4h0.8v4c0,0.1,0,0.2,0.1,0.2s0.1,0.1,0.2,0.1
						h0.4v0.7h-0.4C34.8,169.3,34.5,169.3,34.4,169.1z"/>
					<path d="M36.6,163.9h0.8v5.4h-0.8V163.9z M38.9,167c0-0.3-0.1-0.5-0.2-0.6c-0.1-0.1-0.3-0.2-0.6-0.2c-0.2,0-0.4,0.1-0.6,0.2
						c-0.1,0.1-0.2,0.3-0.2,0.5l-0.1-0.7c0.1-0.2,0.3-0.4,0.5-0.5c0.2-0.1,0.4-0.2,0.6-0.2c0.4,0,0.7,0.1,1,0.4
						c0.2,0.3,0.3,0.7,0.3,1.2v2.3h-0.8V167z"/>
					<path d="M41.3,169.2c-0.3-0.1-0.4-0.3-0.6-0.6c-0.1-0.3-0.2-0.6-0.2-0.9v-0.4c0-0.4,0.1-0.7,0.2-1c0.1-0.3,0.3-0.5,0.6-0.6
						c0.2-0.1,0.5-0.2,0.9-0.2c0.3,0,0.6,0.1,0.8,0.2c0.2,0.2,0.4,0.4,0.5,0.7s0.2,0.7,0.2,1.1v0.3h-2.6v-0.6H43
						c0-0.3-0.1-0.6-0.2-0.7c-0.1-0.2-0.3-0.3-0.6-0.3c-0.3,0-0.5,0.1-0.7,0.3c-0.2,0.2-0.2,0.5-0.2,0.8v0.5c0,0.3,0.1,0.6,0.3,0.7
						c0.2,0.2,0.4,0.3,0.7,0.3c0.2,0,0.3,0,0.5-0.1c0.2-0.1,0.3-0.1,0.4-0.3l0.5,0.5c-0.2,0.2-0.4,0.3-0.6,0.4
						c-0.2,0.1-0.5,0.2-0.7,0.2C41.9,169.4,41.6,169.3,41.3,169.2z"/>
					<path d="M44.7,165.5h0.8v3.9h-0.8V165.5z M46.6,166.2c-0.1,0-0.2-0.1-0.4-0.1c-0.2,0-0.4,0.1-0.6,0.2c-0.1,0.1-0.2,0.3-0.2,0.6
						l-0.1-0.7c0.1-0.2,0.3-0.4,0.5-0.5s0.4-0.2,0.6-0.2c0.2,0,0.3,0,0.5,0.1s0.3,0.1,0.4,0.2l-0.5,0.7
						C46.8,166.3,46.7,166.2,46.6,166.2z"/>
				</g>
			</g>
		</g>
	</g>
	<g>
		<defs>
			<polygon id="SVGID_107_" points="19.9,303.4 324.6,303.4 324.6,148.4 19.9,148.4 19.9,303.4 			"/>
		</defs>
		<clipPath id="SVGID_108_">
			<use xlink:href="#SVGID_107_"  style="overflow:visible;"/>
		</clipPath>
		<polygon class="st54" points="20.2,148.6 324.4,148.6 324.4,303.1 20.2,303.1 20.2,148.6 		"/>
	</g>
</g>
</svg>
