<?xml version="1.0" encoding="utf-8"?>
<!-- Generator: Adobe Illustrator 24.0.2, SVG Export Plug-In . SVG Version: 6.00 Build 0)  -->
<svg version="1.1" id="Layer_1" xmlns="http://www.w3.org/2000/svg" xmlns:xlink="http://www.w3.org/1999/xlink" x="0px" y="0px"
	 viewBox="0 0 868.1 182.6" style="enable-background:new 0 0 868.1 182.6;" xml:space="preserve">
<g>
	<g>
		<g>
			<path d="M99.9,77.3l2.5-4.2h2.2l-3.6,6.2L98.1,84h-2.2L99.9,77.3z M99.8,79.5l-0.2-0.4L96,73.1h2.2l2.5,4.1l0.3,0.5l3.7,6.3h-2.2
				L99.8,79.5z"/>
			<path d="M107.3,84c-0.5-0.1-1-0.3-1.4-0.5c-0.4-0.2-0.8-0.4-1.2-0.7l1-1.7c0.4,0.3,0.9,0.6,1.5,0.8c0.6,0.2,1.1,0.3,1.7,0.3
				c0.7,0,1.2-0.1,1.6-0.3c0.4-0.2,0.6-0.6,0.6-1v0c0-0.3-0.1-0.5-0.2-0.7c-0.2-0.2-0.4-0.3-0.6-0.4c-0.3-0.1-0.6-0.2-1-0.2
				c0,0,0,0,0,0c0,0,0,0,0,0l-0.2,0c-0.7-0.1-1.3-0.3-1.8-0.4c-0.5-0.2-0.9-0.5-1.2-0.9c-0.3-0.4-0.5-1-0.5-1.8v0
				c0-0.7,0.2-1.3,0.5-1.8s0.8-0.9,1.4-1.1c0.6-0.3,1.3-0.4,2.2-0.4c0.4,0,0.8,0,1.2,0.1c0.4,0.1,0.8,0.2,1.2,0.4
				c0.4,0.2,0.8,0.4,1.1,0.6l-0.9,1.7c-0.4-0.3-0.9-0.5-1.3-0.7c-0.5-0.2-0.9-0.2-1.3-0.2c-0.6,0-1.1,0.1-1.5,0.3
				c-0.3,0.2-0.5,0.5-0.5,0.9v0c0,0.3,0.1,0.6,0.3,0.7c0.2,0.2,0.4,0.3,0.7,0.4c0.3,0.1,0.6,0.2,1.1,0.3c0,0,0,0,0.1,0
				c0,0,0,0,0.1,0c0,0,0.1,0,0.1,0c0,0,0.1,0,0.1,0c0.7,0.1,1.3,0.3,1.7,0.5c0.5,0.2,0.9,0.5,1.2,0.9c0.3,0.4,0.5,1,0.5,1.8v0
				c0,0.7-0.2,1.3-0.5,1.8c-0.3,0.5-0.8,0.9-1.4,1.1c-0.6,0.3-1.4,0.4-2.3,0.4C108.3,84.1,107.8,84.1,107.3,84z"/>
		</g>
		<g>
			<g>
				<g>
					<path d="M167.4,49.6C167.4,49.5,167.4,49.5,167.4,49.6l-25.8-23c-0.2-0.2-0.5-0.4-0.8-0.5l-18.6-6.7c-1.3-0.5-2.7,0.2-3.1,1.5
						c-0.1,0.2-0.1,0.5-0.1,0.7c0,0.5-0.8,12.9-13.2,13.1c-12.5-0.2-13.3-12.6-13.3-13.1c-0.1-1.3-1.2-2.4-2.6-2.3
						c-0.2,0-0.5,0.1-0.7,0.1l-18.6,6.7c-0.3,0.1-0.6,0.3-0.8,0.5L44.2,49.5c-1,0.9-1,2.5-0.1,3.5c0,0,0.1,0.1,0.1,0.1l20.4,20.6
						v56.3c0,1.4,1.1,2.4,2.4,2.4h77.6c1.4,0,2.4-1.1,2.4-2.4V73.6L167.3,53C168.3,52.1,168.3,50.5,167.4,49.6z M146.9,66.6V55.3
						c0-1.4-1.1-2.4-2.4-2.4c-1.4,0-2.4,1.1-2.4,2.4v72H69.3v-72c0-1.4-1.1-2.4-2.4-2.4c-1.4,0-2.4,1.1-2.4,2.4v11.4l-15-15.2
						l23.3-20.8L88,25c1.9,9.8,11.4,16.2,21.1,14.3c7.2-1.4,12.9-7,14.3-14.3l15.3,5.5l23.2,20.8L146.9,66.6z"/>
				</g>
			</g>
			<g>
			</g>
			<g>
			</g>
			<g>
			</g>
			<g>
			</g>
			<g>
			</g>
			<g>
			</g>
			<g>
			</g>
			<g>
			</g>
			<g>
			</g>
			<g>
			</g>
			<g>
			</g>
			<g>
			</g>
			<g>
			</g>
			<g>
			</g>
			<g>
			</g>
		</g>
	</g>
</g>
<g>
	<g>
		<g>
			<path d="M321.5,86.6c-1-0.2-1.9-0.5-2.8-0.9c-0.9-0.4-1.7-0.9-2.3-1.5l1.9-3.4c0.8,0.7,1.8,1.2,2.9,1.6c1.1,0.4,2.2,0.6,3.4,0.6
				c1.3,0,2.4-0.2,3.1-0.7c0.7-0.5,1.1-1.1,1.1-1.9v0c0-0.6-0.2-1-0.5-1.4c-0.3-0.3-0.8-0.6-1.3-0.7s-1.2-0.3-2-0.4c0,0-0.1,0-0.1,0
				c0,0-0.1,0-0.1,0l-0.3,0c-1.5-0.2-2.7-0.5-3.6-0.9c-1-0.3-1.8-0.9-2.4-1.8c-0.7-0.9-1-2.1-1-3.7v0c0-1.4,0.3-2.6,0.9-3.6
				s1.5-1.8,2.7-2.3c1.2-0.5,2.6-0.8,4.3-0.8c0.8,0,1.6,0.1,2.4,0.3s1.6,0.4,2.4,0.8c0.8,0.3,1.5,0.7,2.2,1.2l-1.7,3.5
				c-0.8-0.6-1.7-1-2.6-1.3c-0.9-0.3-1.8-0.5-2.6-0.5c-1.3,0-2.2,0.2-2.9,0.6c-0.7,0.4-1,1-1,1.7v0c0,0.6,0.2,1.1,0.5,1.5
				c0.4,0.4,0.8,0.6,1.3,0.8s1.3,0.3,2.2,0.5c0,0,0.1,0,0.1,0c0,0,0.1,0,0.1,0c0.1,0,0.1,0,0.2,0c0.1,0,0.1,0,0.2,0
				c1.4,0.3,2.5,0.6,3.4,1c0.9,0.4,1.7,1,2.3,1.9c0.6,0.9,0.9,2,0.9,3.5v0c0,1.4-0.3,2.6-1,3.6c-0.6,1-1.6,1.7-2.8,2.3
				c-1.2,0.5-2.7,0.8-4.5,0.8C323.5,86.9,322.5,86.8,321.5,86.6z"/>
		</g>
		<g>
			<g>
				<g>
					<path d="M386.3,49.6C386.2,49.5,386.2,49.5,386.3,49.6l-25.8-23c-0.2-0.2-0.5-0.4-0.8-0.5L341,19.4c-1.3-0.5-2.7,0.2-3.1,1.5
						c-0.1,0.2-0.1,0.5-0.1,0.7c0,0.5-0.8,12.9-13.2,13.1c-12.5-0.2-13.3-12.6-13.3-13.1c-0.1-1.3-1.2-2.4-2.6-2.3
						c-0.2,0-0.5,0.1-0.7,0.1l-18.6,6.7c-0.3,0.1-0.6,0.3-0.8,0.5L263,49.5c-1,0.9-1,2.5-0.1,3.5c0,0,0.1,0.1,0.1,0.1l20.4,20.6
						v56.3c0,1.4,1.1,2.4,2.4,2.4h77.6c1.4,0,2.4-1.1,2.4-2.4V73.6L386.2,53C387.2,52.1,387.2,50.5,386.3,49.6z M365.8,66.6V55.3
						c0-1.4-1.1-2.4-2.4-2.4c-1.4,0-2.4,1.1-2.4,2.4v72h-72.7v-72c0-1.4-1.1-2.4-2.4-2.4c-1.4,0-2.4,1.1-2.4,2.4v11.4l-15-15.2
						l23.3-20.8l15.3-5.5c1.9,9.8,11.4,16.2,21.1,14.3c7.2-1.4,12.9-7,14.3-14.3l15.3,5.5l23.2,20.8L365.8,66.6z"/>
				</g>
			</g>
			<g>
			</g>
			<g>
			</g>
			<g>
			</g>
			<g>
			</g>
			<g>
			</g>
			<g>
			</g>
			<g>
			</g>
			<g>
			</g>
			<g>
			</g>
			<g>
			</g>
			<g>
			</g>
			<g>
			</g>
			<g>
			</g>
			<g>
			</g>
			<g>
			</g>
		</g>
	</g>
</g>
<g>
	<g>
		<g>
			<path d="M549.5,60h7.8v31.6h-5.4V67.1l0.2,1.4l-6,19.6h-5.3l-6-19.2l0.2-1.8v24.5h-5.4V60h7.8l6,21.3L549.5,60z"/>
		</g>
		<g>
			<g>
				<g>
					<path d="M605.1,49.6C605.1,49.5,605.1,49.5,605.1,49.6l-25.8-23c-0.2-0.2-0.5-0.4-0.8-0.5l-18.6-6.7c-1.3-0.5-2.7,0.2-3.1,1.5
						c-0.1,0.2-0.1,0.5-0.1,0.7c0,0.5-0.8,12.9-13.2,13.1c-12.5-0.2-13.3-12.6-13.3-13.1c-0.1-1.3-1.2-2.4-2.6-2.3
						c-0.2,0-0.5,0.1-0.7,0.1l-18.6,6.7c-0.3,0.1-0.6,0.3-0.8,0.5l-25.6,22.8c-1,0.9-1,2.5-0.1,3.5c0,0,0.1,0.1,0.1,0.1l20.4,20.6
						v56.3c0,1.4,1.1,2.4,2.4,2.4h77.6c1.4,0,2.4-1.1,2.4-2.4V73.6L605.1,53C606,52.1,606.1,50.5,605.1,49.6z M584.6,66.6V55.3
						c0-1.4-1.1-2.4-2.4-2.4c-1.4,0-2.4,1.1-2.4,2.4v72H507v-72c0-1.4-1.1-2.4-2.4-2.4s-2.4,1.1-2.4,2.4v11.4l-15-15.2l23.3-20.8
						l15.3-5.5c1.9,9.8,11.4,16.2,21.1,14.3c7.2-1.4,12.9-7,14.3-14.3l15.3,5.5l23.2,20.8L584.6,66.6z"/>
				</g>
			</g>
			<g>
			</g>
			<g>
			</g>
			<g>
			</g>
			<g>
			</g>
			<g>
			</g>
			<g>
			</g>
			<g>
			</g>
			<g>
			</g>
			<g>
			</g>
			<g>
			</g>
			<g>
			</g>
			<g>
			</g>
			<g>
			</g>
			<g>
			</g>
			<g>
			</g>
		</g>
	</g>
</g>
<g>
	<g>
		<g>
			<g>
				<g>
					<path d="M824,49.6C824,49.5,823.9,49.5,824,49.6l-25.8-23c-0.2-0.2-0.5-0.4-0.8-0.5l-18.6-6.7c-1.3-0.5-2.7,0.2-3.1,1.5
						c-0.1,0.2-0.1,0.5-0.1,0.7c0,0.5-0.8,12.9-13.2,13.1C749.8,34.6,749,22.2,749,21.6c-0.1-1.3-1.2-2.4-2.6-2.3
						c-0.2,0-0.5,0.1-0.7,0.1l-18.6,6.7c-0.3,0.1-0.6,0.3-0.8,0.5l-25.6,22.8c-1,0.9-1,2.5-0.1,3.5c0,0,0.1,0.1,0.1,0.1l20.4,20.6
						v56.3c0,1.4,1.1,2.4,2.4,2.4h77.6c1.4,0,2.4-1.1,2.4-2.4V73.6L823.9,53C824.9,52.1,824.9,50.5,824,49.6z M803.5,66.6V55.3
						c0-1.4-1.1-2.4-2.4-2.4s-2.4,1.1-2.4,2.4v72h-72.7v-72c0-1.4-1.1-2.4-2.4-2.4c-1.4,0-2.4,1.1-2.4,2.4v11.4l-15-15.2l23.3-20.8
						l15.3-5.5c1.9,9.8,11.4,16.2,21.1,14.3c7.2-1.4,12.9-7,14.3-14.3l15.3,5.5l23.2,20.8L803.5,66.6z"/>
				</g>
			</g>
			<g>
			</g>
			<g>
			</g>
			<g>
			</g>
			<g>
			</g>
			<g>
			</g>
			<g>
			</g>
			<g>
			</g>
			<g>
			</g>
			<g>
			</g>
			<g>
			</g>
			<g>
			</g>
			<g>
			</g>
			<g>
			</g>
			<g>
			</g>
			<g>
			</g>
		</g>
		<g>
			<path d="M746.6,51.6h9.3v49.1h-9.3V51.6z M750.7,91.8h28.8v8.9h-28.8V91.8z"/>
		</g>
	</g>
</g>
<g>
	<g>
		<path d="M92.9,161.9h-2.3V148l-2.3,1.4v-2.4l2.3-1.5h2.3V161.9z"/>
		<path d="M97.8,160.8c-0.8-0.8-1.2-2-1.2-3.4V150c0-1.5,0.4-2.6,1.2-3.4c0.8-0.8,2-1.2,3.5-1.2c1.5,0,2.7,0.4,3.5,1.2
			c0.8,0.8,1.2,2,1.2,3.4v7.4c0,1.5-0.4,2.6-1.2,3.4c-0.8,0.8-2,1.2-3.5,1.2C99.7,162,98.6,161.6,97.8,160.8z M103,159.2
			c0.4-0.4,0.6-1,0.6-1.8V150c0-0.8-0.2-1.4-0.6-1.8c-0.4-0.4-1-0.6-1.8-0.6s-1.4,0.2-1.8,0.6c-0.4,0.4-0.6,1-0.6,1.8v7.4
			c0,0.8,0.2,1.4,0.6,1.8c0.4,0.4,1,0.6,1.8,0.6S102.6,159.6,103,159.2z"/>
		<path d="M109.4,151.8c-0.5-0.5-0.7-1.2-0.7-2.1v-1.4c0-0.9,0.2-1.6,0.7-2.1c0.5-0.5,1.1-0.8,2-0.8s1.5,0.3,2,0.8
			c0.5,0.5,0.7,1.2,0.7,2.1v1.4c0,0.9-0.2,1.6-0.7,2.1c-0.5,0.5-1.1,0.8-2,0.8C110.6,152.5,109.9,152.3,109.4,151.8z M118.9,145.5h2
			l-8.9,16.3h-2L118.9,145.5z M112,150.5c0.1-0.2,0.2-0.4,0.2-0.7v-1.7c0-0.3-0.1-0.5-0.2-0.7s-0.4-0.2-0.6-0.2
			c-0.3,0-0.5,0.1-0.6,0.2c-0.1,0.2-0.2,0.4-0.2,0.7v1.6c0,0.3,0.1,0.6,0.2,0.7c0.1,0.2,0.4,0.2,0.6,0.2
			C111.7,150.7,111.9,150.7,112,150.5z M117.5,161.3c-0.5-0.5-0.7-1.2-0.7-2.1v-1.4c0-0.9,0.2-1.6,0.7-2.1c0.5-0.5,1.1-0.8,2-0.8
			s1.5,0.3,2,0.8c0.5,0.5,0.7,1.2,0.7,2.1v1.4c0,0.9-0.2,1.6-0.7,2.1c-0.5,0.5-1.1,0.8-2,0.8C118.7,162,118,161.8,117.5,161.3z
			 M120.2,160c0.1-0.2,0.2-0.4,0.2-0.7v-1.7c0-0.3-0.1-0.5-0.2-0.7s-0.4-0.2-0.6-0.2c-0.3,0-0.5,0.1-0.6,0.2
			c-0.1,0.2-0.2,0.4-0.2,0.7v1.6c0,0.3,0.1,0.6,0.2,0.7c0.1,0.2,0.4,0.2,0.6,0.2C119.8,160.2,120,160.2,120.2,160z"/>
	</g>
</g>
<g>
	<g>
		<path d="M305.8,159.9l5.7-7.6c0.3-0.4,0.6-0.9,0.8-1.4c0.2-0.5,0.3-0.9,0.3-1.3v0c0-0.7-0.2-1.2-0.6-1.5s-0.9-0.5-1.6-0.5
			c-0.7,0-1.2,0.2-1.6,0.6c-0.4,0.4-0.7,0.9-0.8,1.7v0h-2.4v0c0.1-0.9,0.4-1.7,0.8-2.4c0.4-0.7,1-1.2,1.6-1.5
			c0.7-0.3,1.4-0.5,2.3-0.5c1,0,1.8,0.2,2.5,0.5c0.7,0.3,1.2,0.8,1.6,1.5s0.5,1.4,0.5,2.3v0c0,0.6-0.1,1.2-0.4,1.8s-0.6,1.2-1,1.8
			l-4.7,6.4h6.2v2.2h-9.2V159.9z"/>
		<path d="M320.3,161.5c-0.6-0.3-1.2-0.8-1.6-1.4c-0.4-0.6-0.7-1.4-0.8-2.2v0h2.3v0c0.1,0.6,0.3,1.1,0.7,1.4
			c0.4,0.3,0.9,0.5,1.5,0.5c0.7,0,1.3-0.2,1.7-0.7c0.4-0.5,0.6-1.2,0.6-2.1v-1.4c0-0.9-0.2-1.6-0.6-2.1c-0.4-0.5-1-0.7-1.7-0.7
			c-0.4,0-0.8,0.1-1.1,0.3s-0.7,0.5-1,0.9h-2.1v-8.6h8.3v2.2h-6v3.7c0.3-0.2,0.6-0.4,1-0.5s0.7-0.2,1.1-0.2c0.9,0,1.8,0.2,2.4,0.6
			c0.7,0.4,1.2,1,1.5,1.7c0.3,0.7,0.5,1.7,0.5,2.7v1.4c0,1.1-0.2,2-0.5,2.7s-0.9,1.3-1.6,1.7c-0.7,0.4-1.5,0.6-2.5,0.6
			C321.7,162,321,161.9,320.3,161.5z"/>
		<path d="M330.6,151.8c-0.5-0.5-0.7-1.2-0.7-2.1v-1.4c0-0.9,0.2-1.6,0.7-2.1c0.5-0.5,1.1-0.8,2-0.8s1.5,0.3,2,0.8
			c0.5,0.5,0.7,1.2,0.7,2.1v1.4c0,0.9-0.2,1.6-0.7,2.1c-0.5,0.5-1.1,0.8-2,0.8C331.8,152.5,331.1,152.3,330.6,151.8z M340.1,145.5h2
			l-8.9,16.3h-2L340.1,145.5z M333.3,150.5c0.1-0.2,0.2-0.4,0.2-0.7v-1.7c0-0.3-0.1-0.5-0.2-0.7s-0.4-0.2-0.6-0.2
			c-0.3,0-0.5,0.1-0.6,0.2c-0.1,0.2-0.2,0.4-0.2,0.7v1.6c0,0.3,0.1,0.6,0.2,0.7c0.1,0.2,0.4,0.2,0.6,0.2
			C332.9,150.7,333.1,150.7,333.3,150.5z M338.8,161.3c-0.5-0.5-0.7-1.2-0.7-2.1v-1.4c0-0.9,0.2-1.6,0.7-2.1c0.5-0.5,1.1-0.8,2-0.8
			s1.5,0.3,2,0.8c0.5,0.5,0.7,1.2,0.7,2.1v1.4c0,0.9-0.2,1.6-0.7,2.1c-0.5,0.5-1.1,0.8-2,0.8C339.9,162,339.2,161.8,338.8,161.3z
			 M341.4,160c0.1-0.2,0.2-0.4,0.2-0.7v-1.7c0-0.3-0.1-0.5-0.2-0.7s-0.4-0.2-0.6-0.2c-0.3,0-0.5,0.1-0.6,0.2
			c-0.1,0.2-0.2,0.4-0.2,0.7v1.6c0,0.3,0.1,0.6,0.2,0.7c0.1,0.2,0.4,0.2,0.6,0.2C341,160.2,341.2,160.2,341.4,160z"/>
	</g>
</g>
<g>
	<g>
		<path d="M526.7,161.5c-0.7-0.3-1.3-0.8-1.7-1.4c-0.4-0.6-0.7-1.4-0.8-2.3h2.3c0.1,0.5,0.2,0.8,0.4,1.1s0.5,0.5,0.9,0.7
			c0.4,0.1,0.8,0.2,1.3,0.2c0.8,0,1.3-0.2,1.8-0.6c0.4-0.4,0.6-1,0.6-1.7V157c0-0.8-0.2-1.4-0.6-1.9c-0.4-0.4-1-0.7-1.7-0.7h-1.2
			v-2.2h1.2c0.6,0,1.1-0.2,1.5-0.6c0.4-0.4,0.5-0.9,0.5-1.6v-0.5c0-0.6-0.2-1.1-0.6-1.5c-0.4-0.4-0.9-0.5-1.6-0.5
			c-0.4,0-0.7,0.1-1,0.2c-0.3,0.1-0.6,0.4-0.8,0.7c-0.2,0.3-0.4,0.7-0.5,1.1h-2.3c0.1-0.9,0.4-1.7,0.8-2.3c0.4-0.6,0.9-1.1,1.6-1.4
			c0.6-0.3,1.4-0.5,2.2-0.5c1.4,0,2.5,0.4,3.3,1.1c0.8,0.7,1.2,1.8,1.2,3.1v0.3c0,0.8-0.2,1.5-0.7,2.1c-0.4,0.6-1.1,1-1.9,1.3
			c0.9,0.2,1.6,0.6,2.1,1.3s0.7,1.5,0.7,2.6v0.3c0,1-0.2,1.8-0.5,2.4c-0.4,0.7-0.9,1.2-1.6,1.5s-1.5,0.5-2.5,0.5
			C528.2,162,527.4,161.9,526.7,161.5z"/>
		<path d="M539.4,161.5c-0.6-0.3-1.2-0.8-1.6-1.4c-0.4-0.6-0.7-1.4-0.8-2.2v0h2.3v0c0.1,0.6,0.3,1.1,0.7,1.4
			c0.4,0.3,0.9,0.5,1.5,0.5c0.7,0,1.3-0.2,1.7-0.7c0.4-0.5,0.6-1.2,0.6-2.1v-1.4c0-0.9-0.2-1.6-0.6-2.1c-0.4-0.5-1-0.7-1.7-0.7
			c-0.4,0-0.8,0.1-1.1,0.3c-0.4,0.2-0.7,0.5-1,0.9h-2.1v-8.6h8.3v2.2h-6v3.7c0.3-0.2,0.6-0.4,1-0.5c0.4-0.1,0.7-0.2,1.1-0.2
			c0.9,0,1.8,0.2,2.4,0.6s1.2,1,1.5,1.7c0.3,0.7,0.5,1.7,0.5,2.7v1.4c0,1.1-0.2,2-0.5,2.7s-0.9,1.3-1.6,1.7
			c-0.7,0.4-1.5,0.6-2.5,0.6C540.8,162,540.1,161.9,539.4,161.5z"/>
		<path d="M549.7,151.8c-0.5-0.5-0.7-1.2-0.7-2.1v-1.4c0-0.9,0.2-1.6,0.7-2.1c0.5-0.5,1.1-0.8,2-0.8c0.9,0,1.5,0.3,2,0.8
			c0.5,0.5,0.7,1.2,0.7,2.1v1.4c0,0.9-0.2,1.6-0.7,2.1c-0.5,0.5-1.1,0.8-2,0.8C550.9,152.5,550.2,152.3,549.7,151.8z M559.2,145.5h2
			l-8.9,16.3h-2L559.2,145.5z M552.4,150.5c0.2-0.2,0.2-0.4,0.2-0.7v-1.7c0-0.3-0.1-0.5-0.2-0.7c-0.1-0.2-0.4-0.2-0.6-0.2
			c-0.3,0-0.5,0.1-0.6,0.2c-0.1,0.2-0.2,0.4-0.2,0.7v1.6c0,0.3,0.1,0.6,0.2,0.7c0.1,0.2,0.4,0.2,0.6,0.2
			C552,150.7,552.2,150.7,552.4,150.5z M557.9,161.3c-0.5-0.5-0.7-1.2-0.7-2.1v-1.4c0-0.9,0.2-1.6,0.7-2.1c0.5-0.5,1.1-0.8,2-0.8
			c0.9,0,1.5,0.3,2,0.8c0.5,0.5,0.7,1.2,0.7,2.1v1.4c0,0.9-0.2,1.6-0.7,2.1s-1.1,0.8-2,0.8C559,162,558.3,161.8,557.9,161.3z
			 M560.5,160c0.1-0.2,0.2-0.4,0.2-0.7v-1.7c0-0.3-0.1-0.5-0.2-0.7c-0.2-0.2-0.4-0.2-0.6-0.2c-0.3,0-0.5,0.1-0.6,0.2
			c-0.1,0.2-0.2,0.4-0.2,0.7v1.6c0,0.3,0.1,0.6,0.2,0.7c0.1,0.2,0.4,0.2,0.6,0.2C560.1,160.2,560.3,160.2,560.5,160z"/>
	</g>
</g>
<g>
	<g>
		<path d="M748.3,161.5c-0.7-0.3-1.3-0.8-1.7-1.4c-0.4-0.6-0.7-1.4-0.8-2.3h2.3c0.1,0.5,0.2,0.8,0.4,1.1s0.5,0.5,0.9,0.7
			c0.4,0.1,0.8,0.2,1.3,0.2c0.8,0,1.3-0.2,1.8-0.6c0.4-0.4,0.6-1,0.6-1.7V157c0-0.8-0.2-1.4-0.6-1.9c-0.4-0.4-1-0.7-1.7-0.7h-1.2
			v-2.2h1.2c0.6,0,1.1-0.2,1.5-0.6c0.4-0.4,0.5-0.9,0.5-1.6v-0.5c0-0.6-0.2-1.1-0.6-1.5c-0.4-0.4-0.9-0.5-1.6-0.5
			c-0.4,0-0.7,0.1-1,0.2c-0.3,0.1-0.6,0.4-0.8,0.7c-0.2,0.3-0.4,0.7-0.5,1.1h-2.3c0.1-0.9,0.4-1.7,0.8-2.3c0.4-0.6,0.9-1.1,1.6-1.4
			c0.6-0.3,1.4-0.5,2.2-0.5c1.4,0,2.5,0.4,3.3,1.1c0.8,0.7,1.2,1.8,1.2,3.1v0.3c0,0.8-0.2,1.5-0.7,2.1c-0.4,0.6-1.1,1-1.9,1.3
			c0.9,0.2,1.6,0.6,2.1,1.3s0.7,1.5,0.7,2.6v0.3c0,1-0.2,1.8-0.5,2.4c-0.4,0.7-0.9,1.2-1.6,1.5s-1.5,0.5-2.5,0.5
			C749.8,162,749,161.9,748.3,161.5z"/>
		<path d="M759.8,160.8c-0.8-0.8-1.2-2-1.2-3.4V150c0-1.5,0.4-2.6,1.2-3.4c0.8-0.8,2-1.2,3.5-1.2c1.5,0,2.7,0.4,3.5,1.2
			s1.2,2,1.2,3.4v7.4c0,1.5-0.4,2.6-1.2,3.4c-0.8,0.8-2,1.2-3.5,1.2C761.8,162,760.6,161.6,759.8,160.8z M765.1,159.2
			c0.4-0.4,0.6-1,0.6-1.8V150c0-0.8-0.2-1.4-0.6-1.8c-0.4-0.4-1-0.6-1.8-0.6c-0.8,0-1.4,0.2-1.8,0.6c-0.4,0.4-0.6,1-0.6,1.8v7.4
			c0,0.8,0.2,1.4,0.6,1.8c0.4,0.4,1,0.6,1.8,0.6S764.7,159.6,765.1,159.2z"/>
		<path d="M771.5,151.8c-0.5-0.5-0.7-1.2-0.7-2.1v-1.4c0-0.9,0.2-1.6,0.7-2.1c0.5-0.5,1.1-0.8,2-0.8c0.9,0,1.5,0.3,2,0.8
			c0.5,0.5,0.7,1.2,0.7,2.1v1.4c0,0.9-0.2,1.6-0.7,2.1s-1.1,0.8-2,0.8C772.6,152.5,771.9,152.3,771.5,151.8z M780.9,145.5h2
			l-8.9,16.3h-2L780.9,145.5z M774.1,150.5c0.1-0.2,0.2-0.4,0.2-0.7v-1.7c0-0.3-0.1-0.5-0.2-0.7c-0.2-0.2-0.4-0.2-0.6-0.2
			c-0.3,0-0.5,0.1-0.6,0.2c-0.1,0.2-0.2,0.4-0.2,0.7v1.6c0,0.3,0.1,0.6,0.2,0.7c0.1,0.2,0.4,0.2,0.6,0.2
			C773.7,150.7,774,150.7,774.1,150.5z M779.6,161.3c-0.5-0.5-0.7-1.2-0.7-2.1v-1.4c0-0.9,0.2-1.6,0.7-2.1c0.5-0.5,1.1-0.8,2-0.8
			c0.9,0,1.5,0.3,2,0.8c0.5,0.5,0.7,1.2,0.7,2.1v1.4c0,0.9-0.2,1.6-0.7,2.1c-0.5,0.5-1.1,0.8-2,0.8
			C780.7,162,780.1,161.8,779.6,161.3z M782.2,160c0.2-0.2,0.2-0.4,0.2-0.7v-1.7c0-0.3-0.1-0.5-0.2-0.7c-0.1-0.2-0.4-0.2-0.6-0.2
			c-0.3,0-0.5,0.1-0.6,0.2c-0.1,0.2-0.2,0.4-0.2,0.7v1.6c0,0.3,0.1,0.6,0.2,0.7c0.1,0.2,0.4,0.2,0.6,0.2
			C781.9,160.2,782.1,160.2,782.2,160z"/>
	</g>
</g>
</svg>
