<?xml version="1.0" encoding="utf-8"?>
<!-- Generator: Adobe Illustrator 24.0.2, SVG Export Plug-In . SVG Version: 6.00 Build 0)  -->
<svg version="1.1" id="Layer_1" xmlns="http://www.w3.org/2000/svg" xmlns:xlink="http://www.w3.org/1999/xlink" x="0px" y="0px"
	 viewBox="0 0 345 176" style="enable-background:new 0 0 345 176;" xml:space="preserve">
<style type="text/css">
	.st0{fill-rule:evenodd;clip-rule:evenodd;fill:#FFFFFF;}
	.st1{clip-path:url(#SVGID_2_);fill:none;stroke:#D9D9D9;stroke-width:0.5071;stroke-linejoin:round;stroke-miterlimit:10;}
	.st2{clip-path:url(#SVGID_4_);}
	.st3{clip-path:url(#SVGID_6_);fill:none;stroke:#D9D9D9;stroke-width:0.5071;stroke-linejoin:round;stroke-miterlimit:10;}
	.st4{clip-path:url(#SVGID_8_);}
	.st5{clip-path:url(#SVGID_10_);}
	.st6{clip-path:url(#SVGID_12_);}
	.st7{clip-path:url(#SVGID_14_);}
	.st8{clip-path:url(#SVGID_16_);}
	.st9{clip-path:url(#SVGID_18_);}
	.st10{clip-path:url(#SVGID_20_);}
	.st11{clip-path:url(#SVGID_22_);}
	.st12{clip-path:url(#SVGID_24_);}
	.st13{clip-path:url(#SVGID_26_);}
	.st14{clip-path:url(#SVGID_28_);}
	.st15{clip-path:url(#SVGID_30_);}
	.st16{clip-path:url(#SVGID_32_);}
	.st17{clip-path:url(#SVGID_34_);}
	.st18{clip-path:url(#SVGID_36_);}
	.st19{clip-path:url(#SVGID_38_);}
	.st20{clip-path:url(#SVGID_40_);}
	.st21{clip-path:url(#SVGID_42_);}
	.st22{clip-path:url(#SVGID_44_);}
	.st23{clip-path:url(#SVGID_46_);}
	.st24{clip-path:url(#SVGID_48_);fill:none;stroke:#D9D9D9;stroke-width:0.5071;stroke-linejoin:round;stroke-miterlimit:10;}
	.st25{clip-path:url(#SVGID_50_);fill:none;stroke:#D9D9D9;stroke-width:0.5071;stroke-linejoin:round;stroke-miterlimit:10;}
	.st26{clip-path:url(#SVGID_52_);}
	.st27{clip-path:url(#SVGID_54_);fill:none;stroke:#D9D9D9;stroke-width:0.5071;stroke-linejoin:round;stroke-miterlimit:10;}
	.st28{clip-path:url(#SVGID_56_);}
	.st29{clip-path:url(#SVGID_58_);}
	.st30{clip-path:url(#SVGID_60_);}
	.st31{clip-path:url(#SVGID_62_);}
	.st32{clip-path:url(#SVGID_64_);}
	.st33{clip-path:url(#SVGID_66_);}
	.st34{clip-path:url(#SVGID_68_);}
	.st35{clip-path:url(#SVGID_70_);}
	.st36{clip-path:url(#SVGID_72_);}
	.st37{clip-path:url(#SVGID_74_);}
	.st38{clip-path:url(#SVGID_76_);}
	.st39{clip-path:url(#SVGID_78_);}
	.st40{clip-path:url(#SVGID_80_);}
	.st41{clip-path:url(#SVGID_82_);}
	.st42{clip-path:url(#SVGID_84_);}
	.st43{clip-path:url(#SVGID_86_);}
	.st44{clip-path:url(#SVGID_88_);}
	.st45{clip-path:url(#SVGID_90_);}
	.st46{clip-path:url(#SVGID_92_);}
	.st47{clip-path:url(#SVGID_94_);}
	.st48{clip-path:url(#SVGID_96_);}
	.st49{clip-path:url(#SVGID_98_);}
	.st50{clip-path:url(#SVGID_100_);}
	.st51{clip-path:url(#SVGID_102_);}
	.st52{clip-path:url(#SVGID_104_);}
	.st53{clip-path:url(#SVGID_106_);}
	.st54{clip-path:url(#SVGID_108_);fill:none;stroke:#D9D9D9;stroke-width:0.5071;stroke-linejoin:round;stroke-miterlimit:10;}
</style>
<g>
	<polygon class="st0" points="19.9,-125.5 324.6,-125.5 324.6,-11.1 19.9,-11.1 19.9,-125.5 	"/>
	<polygon class="st0" points="66.1,-116.4 307.9,-116.4 307.9,-30.8 66.1,-30.8 66.1,-116.4 	"/>
	<g>
		<defs>
			<polygon id="SVGID_1_" points="19.9,-11.1 324.6,-11.1 324.6,-125.5 19.9,-125.5 19.9,-11.1 			"/>
		</defs>
		<clipPath id="SVGID_2_">
			<use xlink:href="#SVGID_1_"  style="overflow:visible;"/>
		</clipPath>
		<path class="st1" d="M106.5-116.2v85.6 M146.6-116.2v85.6 M186.8-116.2v85.6 M227.4-116.2v85.6 M267.5-116.2v85.6 M307.6-116.2
			v85.6"/>
	</g>
	<g>
		<defs>
			<polygon id="SVGID_3_" points="66.1,-30.3 307.9,-30.3 307.9,-116.4 66.1,-116.4 66.1,-30.3 			"/>
		</defs>
		<clipPath id="SVGID_4_">
			<use xlink:href="#SVGID_3_"  style="overflow:visible;"/>
		</clipPath>
		<path class="st2" d="M295.7-39.9H66.1v-10.1h229.6V-39.9L295.7-39.9z M162.6-68.3H66.1v-10.1h96.5V-68.3L162.6-68.3z M138.8-97.2
			H66.1v-9.6h72.6V-97.2L138.8-97.2z"/>
	</g>
	<g>
		<defs>
			<polygon id="SVGID_5_" points="19.9,-11.1 324.6,-11.1 324.6,-125.5 19.9,-125.5 19.9,-11.1 			"/>
		</defs>
		<clipPath id="SVGID_6_">
			<use xlink:href="#SVGID_5_"  style="overflow:visible;"/>
		</clipPath>
		<line class="st3" x1="66.4" y1="-30.6" x2="66.4" y2="-116.2"/>
	</g>
	<g>
		<defs>
			<polygon id="SVGID_7_" points="19.9,-11.1 324.6,-11.1 324.6,-125.5 19.9,-125.5 19.9,-11.1 			"/>
		</defs>
		<clipPath id="SVGID_8_">
			<use xlink:href="#SVGID_7_"  style="overflow:visible;"/>
		</clipPath>
		<g class="st4">
			<defs>
				<rect id="SVGID_9_" x="19.9" y="-125.5" width="304.7" height="114.5"/>
			</defs>
			<clipPath id="SVGID_10_">
				<use xlink:href="#SVGID_9_"  style="overflow:visible;"/>
			</clipPath>
			<g class="st5">
				<g>
					<path d="M61.6-18.4c-0.3-0.3-0.4-0.6-0.4-1.1V-22c0-0.5,0.1-0.9,0.4-1.1c0.3-0.3,0.6-0.4,1.1-0.4c0.5,0,0.9,0.1,1.2,0.4
						c0.3,0.3,0.4,0.6,0.4,1.1v2.5c0,0.5-0.1,0.9-0.4,1.1S63.2-18,62.7-18C62.2-18,61.8-18.1,61.6-18.4z M63.3-18.9
						c0.1-0.1,0.2-0.3,0.2-0.6V-22c0-0.3-0.1-0.5-0.2-0.6s-0.3-0.2-0.6-0.2c-0.3,0-0.5,0.1-0.6,0.2s-0.2,0.3-0.2,0.6v2.5
						c0,0.3,0.1,0.5,0.2,0.6c0.1,0.1,0.3,0.2,0.6,0.2C63-18.7,63.2-18.8,63.3-18.9z"/>
					<path d="M67.3-21.4c-0.2-0.2-0.2-0.4-0.2-0.7v-0.5c0-0.3,0.1-0.5,0.2-0.7s0.4-0.3,0.7-0.3s0.5,0.1,0.7,0.3s0.2,0.4,0.2,0.7v0.5
						c0,0.3-0.1,0.5-0.2,0.7c-0.2,0.2-0.4,0.2-0.7,0.2C67.7-21.1,67.5-21.2,67.3-21.4z M70.5-23.5h0.7l-2.9,5.4h-0.7L70.5-23.5z
						 M68.2-21.8c0-0.1,0.1-0.1,0.1-0.2v-0.5c0-0.1,0-0.2-0.1-0.2c0-0.1-0.1-0.1-0.2-0.1c-0.1,0-0.2,0-0.2,0.1
						c0,0.1-0.1,0.1-0.1,0.2v0.5c0,0.1,0,0.2,0.1,0.2c0,0.1,0.1,0.1,0.2,0.1C68.1-21.7,68.2-21.8,68.2-21.8z M70-18.3
						c-0.2-0.2-0.2-0.4-0.2-0.7v-0.5c0-0.3,0.1-0.5,0.2-0.7s0.4-0.3,0.7-0.3s0.5,0.1,0.7,0.3s0.2,0.4,0.2,0.7v0.5
						c0,0.3-0.1,0.5-0.2,0.7C71.2-18.1,71-18,70.7-18C70.4-18,70.2-18.1,70-18.3z M70.9-18.7c0-0.1,0.1-0.1,0.1-0.2v-0.5
						c0-0.1,0-0.2-0.1-0.2c0-0.1-0.1-0.1-0.2-0.1c-0.1,0-0.2,0-0.2,0.1c0,0.1-0.1,0.1-0.1,0.2v0.5c0,0.1,0,0.2,0.1,0.2
						c0,0.1,0.1,0.1,0.2,0.1C70.8-18.6,70.8-18.6,70.9-18.7z"/>
				</g>
			</g>
		</g>
	</g>
	<g>
		<defs>
			<polygon id="SVGID_11_" points="19.9,-11.1 324.6,-11.1 324.6,-125.5 19.9,-125.5 19.9,-11.1 			"/>
		</defs>
		<clipPath id="SVGID_12_">
			<use xlink:href="#SVGID_11_"  style="overflow:visible;"/>
		</clipPath>
		<g class="st6">
			<defs>
				<rect id="SVGID_13_" x="19.9" y="-125.5" width="304.7" height="114.5"/>
			</defs>
			<clipPath id="SVGID_14_">
				<use xlink:href="#SVGID_13_"  style="overflow:visible;"/>
			</clipPath>
			<g class="st7">
				<g>
					<path d="M101.4-18.1h-0.8v-4.6l-0.8,0.5v-0.8l0.8-0.5h0.8V-18.1z"/>
					<path d="M103.1-18.4c-0.3-0.3-0.4-0.6-0.4-1.1V-22c0-0.5,0.1-0.9,0.4-1.1c0.3-0.3,0.6-0.4,1.1-0.4c0.5,0,0.9,0.1,1.2,0.4
						c0.3,0.3,0.4,0.6,0.4,1.1v2.5c0,0.5-0.1,0.9-0.4,1.1s-0.6,0.4-1.1,0.4C103.7-18,103.3-18.1,103.1-18.4z M104.8-18.9
						c0.1-0.1,0.2-0.3,0.2-0.6V-22c0-0.3-0.1-0.5-0.2-0.6s-0.3-0.2-0.6-0.2c-0.3,0-0.5,0.1-0.6,0.2s-0.2,0.3-0.2,0.6v2.5
						c0,0.3,0.1,0.5,0.2,0.6c0.1,0.1,0.3,0.2,0.6,0.2C104.5-18.7,104.7-18.8,104.8-18.9z"/>
					<path d="M108.8-21.4c-0.2-0.2-0.2-0.4-0.2-0.7v-0.5c0-0.3,0.1-0.5,0.2-0.7s0.4-0.3,0.7-0.3s0.5,0.1,0.7,0.3s0.2,0.4,0.2,0.7
						v0.5c0,0.3-0.1,0.5-0.2,0.7c-0.2,0.2-0.4,0.2-0.7,0.2C109.2-21.1,109-21.2,108.8-21.4z M111.9-23.5h0.7l-2.9,5.4H109
						L111.9-23.5z M109.7-21.8c0-0.1,0.1-0.1,0.1-0.2v-0.5c0-0.1,0-0.2-0.1-0.2c0-0.1-0.1-0.1-0.2-0.1c-0.1,0-0.2,0-0.2,0.1
						c0,0.1-0.1,0.1-0.1,0.2v0.5c0,0.1,0,0.2,0.1,0.2c0,0.1,0.1,0.1,0.2,0.1C109.6-21.7,109.6-21.8,109.7-21.8z M111.5-18.3
						c-0.2-0.2-0.2-0.4-0.2-0.7v-0.5c0-0.3,0.1-0.5,0.2-0.7s0.4-0.3,0.7-0.3s0.5,0.1,0.7,0.3s0.2,0.4,0.2,0.7v0.5
						c0,0.3-0.1,0.5-0.2,0.7c-0.2,0.2-0.4,0.2-0.7,0.2C111.9-18,111.7-18.1,111.5-18.3z M112.4-18.7c0-0.1,0.1-0.1,0.1-0.2v-0.5
						c0-0.1,0-0.2-0.1-0.2c0-0.1-0.1-0.1-0.2-0.1c-0.1,0-0.2,0-0.2,0.1c0,0.1-0.1,0.1-0.1,0.2v0.5c0,0.1,0,0.2,0.1,0.2
						c0,0.1,0.1,0.1,0.2,0.1C112.3-18.6,112.3-18.6,112.4-18.7z"/>
				</g>
			</g>
		</g>
	</g>
	<g>
		<defs>
			<polygon id="SVGID_15_" points="19.9,-11.1 324.6,-11.1 324.6,-125.5 19.9,-125.5 19.9,-11.1 			"/>
		</defs>
		<clipPath id="SVGID_16_">
			<use xlink:href="#SVGID_15_"  style="overflow:visible;"/>
		</clipPath>
		<g class="st8">
			<defs>
				<rect id="SVGID_17_" x="19.9" y="-125.5" width="304.7" height="114.5"/>
			</defs>
			<clipPath id="SVGID_18_">
				<use xlink:href="#SVGID_17_"  style="overflow:visible;"/>
			</clipPath>
			<g class="st9">
				<g>
					<path d="M139.6-18.7l1.9-2.5c0.1-0.1,0.2-0.3,0.3-0.4c0.1-0.2,0.1-0.3,0.1-0.4v0c0-0.2-0.1-0.4-0.2-0.5
						c-0.1-0.1-0.3-0.2-0.5-0.2c-0.2,0-0.4,0.1-0.5,0.2c-0.1,0.1-0.2,0.3-0.2,0.6v0h-0.8v0c0-0.3,0.1-0.6,0.3-0.8
						c0.1-0.2,0.3-0.4,0.5-0.5c0.2-0.1,0.5-0.2,0.8-0.2c0.3,0,0.6,0.1,0.8,0.2c0.2,0.1,0.4,0.3,0.5,0.5c0.1,0.2,0.2,0.5,0.2,0.8v0
						c0,0.2,0,0.4-0.1,0.6c-0.1,0.2-0.2,0.4-0.3,0.6l-1.6,2.1h2v0.7h-3.1V-18.7z"/>
					<path d="M144.1-18.4c-0.3-0.3-0.4-0.6-0.4-1.1V-22c0-0.5,0.1-0.9,0.4-1.1c0.3-0.3,0.6-0.4,1.1-0.4c0.5,0,0.9,0.1,1.2,0.4
						c0.3,0.3,0.4,0.6,0.4,1.1v2.5c0,0.5-0.1,0.9-0.4,1.1s-0.6,0.4-1.1,0.4C144.7-18,144.3-18.1,144.1-18.4z M145.8-18.9
						c0.1-0.1,0.2-0.3,0.2-0.6V-22c0-0.3-0.1-0.5-0.2-0.6s-0.3-0.2-0.6-0.2c-0.3,0-0.5,0.1-0.6,0.2s-0.2,0.3-0.2,0.6v2.5
						c0,0.3,0.1,0.5,0.2,0.6c0.1,0.1,0.3,0.2,0.6,0.2C145.5-18.7,145.7-18.8,145.8-18.9z"/>
					<path d="M149.8-21.4c-0.2-0.2-0.2-0.4-0.2-0.7v-0.5c0-0.3,0.1-0.5,0.2-0.7s0.4-0.3,0.7-0.3s0.5,0.1,0.7,0.3s0.2,0.4,0.2,0.7
						v0.5c0,0.3-0.1,0.5-0.2,0.7c-0.2,0.2-0.4,0.2-0.7,0.2C150.2-21.1,150-21.2,149.8-21.4z M153-23.5h0.7l-2.9,5.4H150L153-23.5z
						 M150.7-21.8c0-0.1,0.1-0.1,0.1-0.2v-0.5c0-0.1,0-0.2-0.1-0.2c0-0.1-0.1-0.1-0.2-0.1c-0.1,0-0.2,0-0.2,0.1
						c0,0.1-0.1,0.1-0.1,0.2v0.5c0,0.1,0,0.2,0.1,0.2c0,0.1,0.1,0.1,0.2,0.1C150.6-21.7,150.7-21.8,150.7-21.8z M152.5-18.3
						c-0.2-0.2-0.2-0.4-0.2-0.7v-0.5c0-0.3,0.1-0.5,0.2-0.7s0.4-0.3,0.7-0.3s0.5,0.1,0.7,0.3s0.2,0.4,0.2,0.7v0.5
						c0,0.3-0.1,0.5-0.2,0.7c-0.2,0.2-0.4,0.2-0.7,0.2C152.9-18,152.7-18.1,152.5-18.3z M153.4-18.7c0-0.1,0.1-0.1,0.1-0.2v-0.5
						c0-0.1,0-0.2-0.1-0.2c0-0.1-0.1-0.1-0.2-0.1c-0.1,0-0.2,0-0.2,0.1c0,0.1-0.1,0.1-0.1,0.2v0.5c0,0.1,0,0.2,0.1,0.2
						c0,0.1,0.1,0.1,0.2,0.1C153.3-18.6,153.4-18.6,153.4-18.7z"/>
				</g>
			</g>
		</g>
	</g>
	<g>
		<defs>
			<polygon id="SVGID_19_" points="19.9,-11.1 324.6,-11.1 324.6,-125.5 19.9,-125.5 19.9,-11.1 			"/>
		</defs>
		<clipPath id="SVGID_20_">
			<use xlink:href="#SVGID_19_"  style="overflow:visible;"/>
		</clipPath>
		<g class="st10">
			<defs>
				<rect id="SVGID_21_" x="19.9" y="-125.5" width="304.7" height="114.5"/>
			</defs>
			<clipPath id="SVGID_22_">
				<use xlink:href="#SVGID_21_"  style="overflow:visible;"/>
			</clipPath>
			<g class="st11">
				<g>
					<path d="M180.4-18.2c-0.2-0.1-0.4-0.3-0.6-0.5c-0.1-0.2-0.2-0.5-0.3-0.8h0.8c0,0.2,0.1,0.3,0.1,0.4c0.1,0.1,0.2,0.2,0.3,0.2
						c0.1,0,0.3,0.1,0.4,0.1c0.3,0,0.4-0.1,0.6-0.2c0.1-0.1,0.2-0.3,0.2-0.6v-0.2c0-0.3-0.1-0.5-0.2-0.6c-0.1-0.1-0.3-0.2-0.6-0.2
						h-0.4v-0.7h0.4c0.2,0,0.4-0.1,0.5-0.2c0.1-0.1,0.2-0.3,0.2-0.5v-0.2c0-0.2-0.1-0.4-0.2-0.5s-0.3-0.2-0.5-0.2
						c-0.1,0-0.2,0-0.3,0.1c-0.1,0-0.2,0.1-0.3,0.2c-0.1,0.1-0.1,0.2-0.2,0.4h-0.8c0-0.3,0.1-0.5,0.3-0.8c0.1-0.2,0.3-0.4,0.5-0.5
						c0.2-0.1,0.5-0.2,0.7-0.2c0.5,0,0.8,0.1,1.1,0.4c0.3,0.2,0.4,0.6,0.4,1v0.1c0,0.3-0.1,0.5-0.2,0.7s-0.4,0.3-0.6,0.4
						c0.3,0.1,0.5,0.2,0.7,0.4c0.2,0.2,0.2,0.5,0.2,0.9v0.1c0,0.3-0.1,0.6-0.2,0.8c-0.1,0.2-0.3,0.4-0.5,0.5
						c-0.2,0.1-0.5,0.2-0.8,0.2C180.9-18,180.6-18.1,180.4-18.2z"/>
					<path d="M184.2-18.4c-0.3-0.3-0.4-0.6-0.4-1.1V-22c0-0.5,0.1-0.9,0.4-1.1s0.6-0.4,1.1-0.4c0.5,0,0.9,0.1,1.2,0.4
						c0.3,0.3,0.4,0.6,0.4,1.1v2.5c0,0.5-0.1,0.9-0.4,1.1s-0.6,0.4-1.1,0.4C184.9-18,184.5-18.1,184.2-18.4z M186-18.9
						c0.1-0.1,0.2-0.3,0.2-0.6V-22c0-0.3-0.1-0.5-0.2-0.6c-0.1-0.1-0.3-0.2-0.6-0.2s-0.5,0.1-0.6,0.2c-0.1,0.1-0.2,0.3-0.2,0.6v2.5
						c0,0.3,0.1,0.5,0.2,0.6c0.1,0.1,0.3,0.2,0.6,0.2S185.9-18.8,186-18.9z"/>
					<path d="M190-21.4c-0.2-0.2-0.2-0.4-0.2-0.7v-0.5c0-0.3,0.1-0.5,0.2-0.7s0.4-0.3,0.7-0.3c0.3,0,0.5,0.1,0.7,0.3
						c0.2,0.2,0.2,0.4,0.2,0.7v0.5c0,0.3-0.1,0.5-0.2,0.7c-0.2,0.2-0.4,0.2-0.7,0.2C190.4-21.1,190.2-21.2,190-21.4z M193.1-23.5
						h0.7l-2.9,5.4h-0.7L193.1-23.5z M190.9-21.8c0-0.1,0.1-0.1,0.1-0.2v-0.5c0-0.1,0-0.2-0.1-0.2c0-0.1-0.1-0.1-0.2-0.1
						c-0.1,0-0.2,0-0.2,0.1c0,0.1-0.1,0.1-0.1,0.2v0.5c0,0.1,0,0.2,0.1,0.2c0,0.1,0.1,0.1,0.2,0.1C190.8-21.7,190.8-21.8,190.9-21.8
						z M192.7-18.3c-0.2-0.2-0.2-0.4-0.2-0.7v-0.5c0-0.3,0.1-0.5,0.2-0.7s0.4-0.3,0.7-0.3c0.3,0,0.5,0.1,0.7,0.3s0.2,0.4,0.2,0.7
						v0.5c0,0.3-0.1,0.5-0.2,0.7c-0.2,0.2-0.4,0.2-0.7,0.2C193.1-18,192.9-18.1,192.7-18.3z M193.6-18.7c0-0.1,0.1-0.1,0.1-0.2v-0.5
						c0-0.1,0-0.2-0.1-0.2c0-0.1-0.1-0.1-0.2-0.1c-0.1,0-0.2,0-0.2,0.1c0,0.1-0.1,0.1-0.1,0.2v0.5c0,0.1,0,0.2,0.1,0.2
						c0,0.1,0.1,0.1,0.2,0.1C193.5-18.6,193.5-18.6,193.6-18.7z"/>
				</g>
			</g>
		</g>
	</g>
	<g>
		<defs>
			<polygon id="SVGID_23_" points="19.9,-11.1 324.6,-11.1 324.6,-125.5 19.9,-125.5 19.9,-11.1 			"/>
		</defs>
		<clipPath id="SVGID_24_">
			<use xlink:href="#SVGID_23_"  style="overflow:visible;"/>
		</clipPath>
		<g class="st12">
			<defs>
				<rect id="SVGID_25_" x="19.9" y="-125.5" width="304.7" height="114.5"/>
			</defs>
			<clipPath id="SVGID_26_">
				<use xlink:href="#SVGID_25_"  style="overflow:visible;"/>
			</clipPath>
			<g class="st13">
				<g>
					<path d="M219.8-19.6l1.8-3.9h0.8l-1.8,3.9h2.7v0.7h-3.5V-19.6z M222.1-21.2h0.7v3.2h-0.7V-21.2z"/>
					<path d="M224.8-18.4c-0.3-0.3-0.4-0.6-0.4-1.1V-22c0-0.5,0.1-0.9,0.4-1.1s0.6-0.4,1.1-0.4c0.5,0,0.9,0.1,1.2,0.4
						c0.3,0.3,0.4,0.6,0.4,1.1v2.5c0,0.5-0.1,0.9-0.4,1.1S226.5-18,226-18C225.5-18,225.1-18.1,224.8-18.4z M226.6-18.9
						c0.1-0.1,0.2-0.3,0.2-0.6V-22c0-0.3-0.1-0.5-0.2-0.6c-0.1-0.1-0.3-0.2-0.6-0.2s-0.5,0.1-0.6,0.2c-0.1,0.1-0.2,0.3-0.2,0.6v2.5
						c0,0.3,0.1,0.5,0.2,0.6c0.1,0.1,0.3,0.2,0.6,0.2S226.4-18.8,226.6-18.9z"/>
					<path d="M230.6-21.4c-0.2-0.2-0.2-0.4-0.2-0.7v-0.5c0-0.3,0.1-0.5,0.2-0.7s0.4-0.3,0.7-0.3c0.3,0,0.5,0.1,0.7,0.3
						c0.2,0.2,0.2,0.4,0.2,0.7v0.5c0,0.3-0.1,0.5-0.2,0.7c-0.2,0.2-0.4,0.2-0.7,0.2C231-21.1,230.7-21.2,230.6-21.4z M233.7-23.5
						h0.7l-2.9,5.4h-0.7L233.7-23.5z M231.4-21.8c0-0.1,0.1-0.1,0.1-0.2v-0.5c0-0.1,0-0.2-0.1-0.2c0-0.1-0.1-0.1-0.2-0.1
						c-0.1,0-0.2,0-0.2,0.1c0,0.1-0.1,0.1-0.1,0.2v0.5c0,0.1,0,0.2,0.1,0.2c0,0.1,0.1,0.1,0.2,0.1C231.3-21.7,231.4-21.8,231.4-21.8
						z M233.3-18.3c-0.2-0.2-0.2-0.4-0.2-0.7v-0.5c0-0.3,0.1-0.5,0.2-0.7s0.4-0.3,0.7-0.3c0.3,0,0.5,0.1,0.7,0.3s0.2,0.4,0.2,0.7
						v0.5c0,0.3-0.1,0.5-0.2,0.7c-0.2,0.2-0.4,0.2-0.7,0.2C233.6-18,233.4-18.1,233.3-18.3z M234.1-18.7c0-0.1,0.1-0.1,0.1-0.2v-0.5
						c0-0.1,0-0.2-0.1-0.2c0-0.1-0.1-0.1-0.2-0.1c-0.1,0-0.2,0-0.2,0.1c0,0.1-0.1,0.1-0.1,0.2v0.5c0,0.1,0,0.2,0.1,0.2
						c0,0.1,0.1,0.1,0.2,0.1C234-18.6,234.1-18.6,234.1-18.7z"/>
				</g>
			</g>
		</g>
	</g>
	<g>
		<defs>
			<polygon id="SVGID_27_" points="19.9,-11.1 324.6,-11.1 324.6,-125.5 19.9,-125.5 19.9,-11.1 			"/>
		</defs>
		<clipPath id="SVGID_28_">
			<use xlink:href="#SVGID_27_"  style="overflow:visible;"/>
		</clipPath>
		<g class="st14">
			<defs>
				<rect id="SVGID_29_" x="19.9" y="-125.5" width="304.7" height="114.5"/>
			</defs>
			<clipPath id="SVGID_30_">
				<use xlink:href="#SVGID_29_"  style="overflow:visible;"/>
			</clipPath>
			<g class="st15">
				<g>
					<path d="M260.9-18.2c-0.2-0.1-0.4-0.3-0.5-0.5c-0.1-0.2-0.2-0.4-0.3-0.7v0h0.8v0c0,0.2,0.1,0.4,0.2,0.5
						c0.1,0.1,0.3,0.2,0.5,0.2c0.2,0,0.4-0.1,0.6-0.2c0.1-0.2,0.2-0.4,0.2-0.7v-0.5c0-0.3-0.1-0.5-0.2-0.7s-0.3-0.2-0.6-0.2
						c-0.1,0-0.3,0-0.4,0.1c-0.1,0.1-0.2,0.2-0.3,0.3h-0.7v-2.8h2.8v0.7h-2v1.2c0.1-0.1,0.2-0.1,0.3-0.2s0.2-0.1,0.4-0.1
						c0.3,0,0.6,0.1,0.8,0.2c0.2,0.1,0.4,0.3,0.5,0.6c0.1,0.2,0.2,0.5,0.2,0.9v0.5c0,0.3-0.1,0.6-0.2,0.9s-0.3,0.4-0.5,0.6
						c-0.2,0.1-0.5,0.2-0.8,0.2C261.4-18,261.2-18.1,260.9-18.2z"/>
					<path d="M264.6-18.4c-0.3-0.3-0.4-0.6-0.4-1.1V-22c0-0.5,0.1-0.9,0.4-1.1s0.6-0.4,1.1-0.4c0.5,0,0.9,0.1,1.2,0.4
						c0.3,0.3,0.4,0.6,0.4,1.1v2.5c0,0.5-0.1,0.9-0.4,1.1s-0.6,0.4-1.1,0.4C265.3-18,264.9-18.1,264.6-18.4z M266.4-18.9
						c0.1-0.1,0.2-0.3,0.2-0.6V-22c0-0.3-0.1-0.5-0.2-0.6c-0.1-0.1-0.3-0.2-0.6-0.2s-0.5,0.1-0.6,0.2c-0.1,0.1-0.2,0.3-0.2,0.6v2.5
						c0,0.3,0.1,0.5,0.2,0.6c0.1,0.1,0.3,0.2,0.6,0.2S266.2-18.8,266.4-18.9z"/>
					<path d="M270.4-21.4c-0.2-0.2-0.2-0.4-0.2-0.7v-0.5c0-0.3,0.1-0.5,0.2-0.7s0.4-0.3,0.7-0.3c0.3,0,0.5,0.1,0.7,0.3
						c0.2,0.2,0.2,0.4,0.2,0.7v0.5c0,0.3-0.1,0.5-0.2,0.7c-0.2,0.2-0.4,0.2-0.7,0.2C270.8-21.1,270.5-21.2,270.4-21.4z M273.5-23.5
						h0.7l-2.9,5.4h-0.7L273.5-23.5z M271.2-21.8c0-0.1,0.1-0.1,0.1-0.2v-0.5c0-0.1,0-0.2-0.1-0.2c0-0.1-0.1-0.1-0.2-0.1
						c-0.1,0-0.2,0-0.2,0.1c0,0.1-0.1,0.1-0.1,0.2v0.5c0,0.1,0,0.2,0.1,0.2c0,0.1,0.1,0.1,0.2,0.1C271.1-21.7,271.2-21.8,271.2-21.8
						z M273.1-18.3c-0.2-0.2-0.2-0.4-0.2-0.7v-0.5c0-0.3,0.1-0.5,0.2-0.7s0.4-0.3,0.7-0.3c0.3,0,0.5,0.1,0.7,0.3s0.2,0.4,0.2,0.7
						v0.5c0,0.3-0.1,0.5-0.2,0.7c-0.2,0.2-0.4,0.2-0.7,0.2C273.4-18,273.2-18.1,273.1-18.3z M273.9-18.7c0-0.1,0.1-0.1,0.1-0.2v-0.5
						c0-0.1,0-0.2-0.1-0.2c0-0.1-0.1-0.1-0.2-0.1c-0.1,0-0.2,0-0.2,0.1c0,0.1-0.1,0.1-0.1,0.2v0.5c0,0.1,0,0.2,0.1,0.2
						c0,0.1,0.1,0.1,0.2,0.1C273.8-18.6,273.9-18.6,273.9-18.7z"/>
				</g>
			</g>
		</g>
	</g>
	<g>
		<defs>
			<polygon id="SVGID_31_" points="19.9,-11.1 324.6,-11.1 324.6,-125.5 19.9,-125.5 19.9,-11.1 			"/>
		</defs>
		<clipPath id="SVGID_32_">
			<use xlink:href="#SVGID_31_"  style="overflow:visible;"/>
		</clipPath>
		<g class="st16">
			<defs>
				<rect id="SVGID_33_" x="19.9" y="-125.5" width="304.7" height="114.5"/>
			</defs>
			<clipPath id="SVGID_34_">
				<use xlink:href="#SVGID_33_"  style="overflow:visible;"/>
			</clipPath>
			<g class="st17">
				<g>
					<path d="M301.1-18.2c-0.2-0.1-0.4-0.3-0.5-0.6c-0.1-0.2-0.2-0.5-0.2-0.9v0c0-0.2,0-0.4,0.1-0.6c0-0.2,0.1-0.4,0.2-0.6
						c0,0,0-0.1,0-0.1c0,0,0-0.1,0.1-0.1l1.2-2.3h0.8l-1.4,2.7l0-0.1c0.1-0.1,0.2-0.2,0.3-0.3s0.3-0.1,0.4-0.1
						c0.3,0,0.5,0.1,0.7,0.2c0.2,0.1,0.4,0.3,0.5,0.6c0.1,0.2,0.2,0.5,0.2,0.9v0c0,0.3-0.1,0.6-0.2,0.9c-0.1,0.2-0.3,0.4-0.5,0.6
						c-0.2,0.1-0.5,0.2-0.8,0.2S301.3-18.1,301.1-18.2z M302.4-19c0.1-0.1,0.2-0.4,0.2-0.6v0c0-0.3-0.1-0.5-0.2-0.7
						c-0.1-0.2-0.3-0.2-0.6-0.2c-0.2,0-0.4,0.1-0.5,0.2c-0.1,0.2-0.2,0.4-0.2,0.7v0c0,0.3,0.1,0.5,0.2,0.6c0.1,0.1,0.3,0.2,0.6,0.2
						C302.1-18.7,302.3-18.8,302.4-19z"/>
					<path d="M304.9-18.4c-0.3-0.3-0.4-0.6-0.4-1.1V-22c0-0.5,0.1-0.9,0.4-1.1s0.6-0.4,1.1-0.4c0.5,0,0.9,0.1,1.2,0.4
						c0.3,0.3,0.4,0.6,0.4,1.1v2.5c0,0.5-0.1,0.9-0.4,1.1s-0.6,0.4-1.1,0.4C305.6-18,305.2-18.1,304.9-18.4z M306.7-18.9
						c0.1-0.1,0.2-0.3,0.2-0.6V-22c0-0.3-0.1-0.5-0.2-0.6c-0.1-0.1-0.3-0.2-0.6-0.2s-0.5,0.1-0.6,0.2c-0.1,0.1-0.2,0.3-0.2,0.6v2.5
						c0,0.3,0.1,0.5,0.2,0.6c0.1,0.1,0.3,0.2,0.6,0.2S306.6-18.8,306.7-18.9z"/>
					<path d="M310.7-21.4c-0.2-0.2-0.2-0.4-0.2-0.7v-0.5c0-0.3,0.1-0.5,0.2-0.7s0.4-0.3,0.7-0.3c0.3,0,0.5,0.1,0.7,0.3
						c0.2,0.2,0.2,0.4,0.2,0.7v0.5c0,0.3-0.1,0.5-0.2,0.7c-0.2,0.2-0.4,0.2-0.7,0.2C311.1-21.1,310.9-21.2,310.7-21.4z M313.8-23.5
						h0.7l-2.9,5.4h-0.7L313.8-23.5z M311.6-21.8c0-0.1,0.1-0.1,0.1-0.2v-0.5c0-0.1,0-0.2-0.1-0.2c0-0.1-0.1-0.1-0.2-0.1
						c-0.1,0-0.2,0-0.2,0.1c0,0.1-0.1,0.1-0.1,0.2v0.5c0,0.1,0,0.2,0.1,0.2c0,0.1,0.1,0.1,0.2,0.1C311.5-21.7,311.5-21.8,311.6-21.8
						z M313.4-18.3c-0.2-0.2-0.2-0.4-0.2-0.7v-0.5c0-0.3,0.1-0.5,0.2-0.7s0.4-0.3,0.7-0.3c0.3,0,0.5,0.1,0.7,0.3s0.2,0.4,0.2,0.7
						v0.5c0,0.3-0.1,0.5-0.2,0.7c-0.2,0.2-0.4,0.2-0.7,0.2C313.8-18,313.6-18.1,313.4-18.3z M314.3-18.7c0-0.1,0.1-0.1,0.1-0.2v-0.5
						c0-0.1,0-0.2-0.1-0.2c0-0.1-0.1-0.1-0.2-0.1c-0.1,0-0.2,0-0.2,0.1c0,0.1-0.1,0.1-0.1,0.2v0.5c0,0.1,0,0.2,0.1,0.2
						c0,0.1,0.1,0.1,0.2,0.1C314.2-18.6,314.2-18.6,314.3-18.7z"/>
				</g>
			</g>
		</g>
	</g>
	<g>
		<defs>
			<polygon id="SVGID_35_" points="19.9,-11.1 324.6,-11.1 324.6,-125.5 19.9,-125.5 19.9,-11.1 			"/>
		</defs>
		<clipPath id="SVGID_36_">
			<use xlink:href="#SVGID_35_"  style="overflow:visible;"/>
		</clipPath>
		<g class="st18">
			<defs>
				<rect id="SVGID_37_" x="19.9" y="-125.5" width="304.7" height="114.5"/>
			</defs>
			<clipPath id="SVGID_38_">
				<use xlink:href="#SVGID_37_"  style="overflow:visible;"/>
			</clipPath>
			<g class="st19">
				<g>
					<path d="M26.7-42.3c-0.2,0-0.4-0.1-0.6-0.2c-0.2-0.1-0.3-0.2-0.5-0.3l0.5-0.6c0.2,0.2,0.4,0.3,0.6,0.4c0.2,0.1,0.4,0.1,0.6,0.1
						c0.3,0,0.5,0,0.7-0.1c0.2-0.1,0.2-0.2,0.2-0.4c0-0.1,0-0.2-0.1-0.3s-0.2-0.1-0.3-0.1c-0.1,0-0.3,0-0.5-0.1c0,0,0,0-0.1,0
						c0,0,0,0-0.1,0c0,0,0,0,0,0c0,0,0,0,0,0c-0.3,0-0.5-0.1-0.6-0.1c-0.2-0.1-0.3-0.2-0.4-0.3c-0.1-0.1-0.2-0.4-0.2-0.6
						c0-0.3,0.1-0.5,0.2-0.7c0.1-0.2,0.3-0.3,0.5-0.4c0.2-0.1,0.5-0.1,0.8-0.1c0.2,0,0.4,0,0.6,0.1s0.4,0.1,0.5,0.2
						c0.2,0.1,0.3,0.2,0.5,0.3l-0.5,0.6c-0.2-0.1-0.4-0.2-0.6-0.3c-0.2-0.1-0.4-0.1-0.5-0.1c-0.3,0-0.5,0-0.6,0.1
						c-0.1,0.1-0.2,0.2-0.2,0.4c0,0.1,0,0.2,0.1,0.2c0.1,0.1,0.2,0.1,0.3,0.1c0.1,0,0.3,0,0.5,0c0,0,0,0,0,0s0,0,0.1,0c0,0,0,0,0,0
						c0,0,0,0,0,0c0.3,0,0.5,0.1,0.7,0.1c0.2,0.1,0.3,0.2,0.5,0.3c0.1,0.2,0.2,0.4,0.2,0.7c0,0.3-0.1,0.5-0.2,0.7
						c-0.1,0.2-0.3,0.3-0.5,0.4c-0.2,0.1-0.5,0.1-0.9,0.1C27.1-42.2,26.9-42.3,26.7-42.3z"/>
					<path d="M30.2-42.5c-0.2-0.2-0.4-0.5-0.4-0.9c0-0.4,0.1-0.7,0.3-0.9s0.5-0.3,1-0.3h1.1l0.1,0.6h-1.1c-0.2,0-0.3,0-0.4,0.1
						c-0.1,0.1-0.1,0.2-0.1,0.4c0,0.2,0.1,0.3,0.2,0.4c0.1,0.1,0.3,0.1,0.6,0.1c0.3,0,0.5,0,0.6-0.1c0.1-0.1,0.2-0.2,0.2-0.3
						l0.1,0.5c-0.1,0.1-0.1,0.2-0.2,0.3c-0.1,0.1-0.2,0.1-0.3,0.2s-0.3,0-0.4,0C30.8-42.2,30.5-42.3,30.2-42.5z M32.2-44.7
						c0-0.3-0.1-0.4-0.2-0.6s-0.3-0.2-0.6-0.2c-0.2,0-0.3,0-0.5,0.1c-0.1,0-0.3,0.1-0.4,0.2l-0.6-0.4c0.1-0.2,0.3-0.3,0.6-0.4
						c0.2-0.1,0.5-0.1,0.8-0.1c0.3,0,0.6,0.1,0.8,0.2c0.2,0.1,0.4,0.3,0.5,0.5c0.1,0.2,0.2,0.5,0.2,0.8v2.5h-0.7V-44.7z"/>
					<path d="M34.1-46.2h0.8v3.9h-0.8V-46.2z M36.5-44.6c0-0.3-0.1-0.5-0.2-0.6c-0.1-0.1-0.3-0.2-0.6-0.2c-0.2,0-0.4,0.1-0.6,0.2
						s-0.2,0.3-0.2,0.6l-0.1-0.7c0.1-0.2,0.3-0.4,0.5-0.5s0.4-0.2,0.6-0.2c0.4,0,0.7,0.1,1,0.4c0.2,0.3,0.3,0.7,0.3,1.2v2.3h-0.8
						V-44.6z"/>
					<path d="M38.9-42.3c-0.2,0-0.4-0.1-0.6-0.2c-0.2-0.1-0.3-0.2-0.5-0.3l0.5-0.6c0.2,0.2,0.4,0.3,0.6,0.4c0.2,0.1,0.4,0.1,0.6,0.1
						c0.3,0,0.5,0,0.7-0.1c0.2-0.1,0.2-0.2,0.2-0.4c0-0.1,0-0.2-0.1-0.3s-0.2-0.1-0.3-0.1c-0.1,0-0.3,0-0.5-0.1c0,0,0,0-0.1,0
						c0,0,0,0-0.1,0c0,0,0,0,0,0c0,0,0,0,0,0c-0.3,0-0.5-0.1-0.6-0.1c-0.2-0.1-0.3-0.2-0.4-0.3c-0.1-0.1-0.2-0.4-0.2-0.6
						c0-0.3,0.1-0.5,0.2-0.7c0.1-0.2,0.3-0.3,0.5-0.4c0.2-0.1,0.5-0.1,0.8-0.1c0.2,0,0.4,0,0.6,0.1s0.4,0.1,0.5,0.2
						c0.2,0.1,0.3,0.2,0.5,0.3l-0.5,0.6c-0.2-0.1-0.4-0.2-0.6-0.3c-0.2-0.1-0.4-0.1-0.5-0.1c-0.3,0-0.5,0-0.6,0.1
						c-0.1,0.1-0.2,0.2-0.2,0.4c0,0.1,0,0.2,0.1,0.2c0.1,0.1,0.2,0.1,0.3,0.1c0.1,0,0.3,0,0.5,0c0,0,0,0,0,0s0,0,0.1,0c0,0,0,0,0,0
						c0,0,0,0,0,0c0.3,0,0.5,0.1,0.7,0.1c0.2,0.1,0.3,0.2,0.5,0.3c0.1,0.2,0.2,0.4,0.2,0.7c0,0.3-0.1,0.5-0.2,0.7
						c-0.1,0.2-0.3,0.3-0.5,0.4c-0.2,0.1-0.5,0.1-0.9,0.1C39.3-42.2,39.1-42.3,38.9-42.3z"/>
					<path d="M45-42.3c-0.2,0-0.4-0.1-0.6-0.2c-0.2-0.1-0.3-0.2-0.5-0.3l0.5-0.6c0.2,0.2,0.4,0.3,0.6,0.4c0.2,0.1,0.4,0.1,0.6,0.1
						c0.3,0,0.5,0,0.7-0.1c0.2-0.1,0.2-0.2,0.2-0.4c0-0.1,0-0.2-0.1-0.3s-0.2-0.1-0.3-0.1c-0.1,0-0.3,0-0.5-0.1c0,0,0,0-0.1,0
						c0,0,0,0-0.1,0c0,0,0,0,0,0c0,0,0,0,0,0c-0.3,0-0.5-0.1-0.6-0.1c-0.2-0.1-0.3-0.2-0.4-0.3c-0.1-0.1-0.2-0.4-0.2-0.6
						c0-0.3,0.1-0.5,0.2-0.7c0.1-0.2,0.3-0.3,0.5-0.4c0.2-0.1,0.5-0.1,0.8-0.1c0.2,0,0.4,0,0.6,0.1s0.4,0.1,0.5,0.2
						c0.2,0.1,0.3,0.2,0.5,0.3l-0.5,0.6c-0.2-0.1-0.4-0.2-0.6-0.3c-0.2-0.1-0.4-0.1-0.5-0.1c-0.3,0-0.5,0-0.6,0.1
						c-0.1,0.1-0.2,0.2-0.2,0.4c0,0.1,0,0.2,0.1,0.2c0.1,0.1,0.2,0.1,0.3,0.1c0.1,0,0.3,0,0.5,0c0,0,0,0,0,0s0,0,0.1,0c0,0,0,0,0,0
						c0,0,0,0,0,0c0.3,0,0.5,0.1,0.7,0.1c0.2,0.1,0.3,0.2,0.5,0.3c0.1,0.2,0.2,0.4,0.2,0.7c0,0.3-0.1,0.5-0.2,0.7
						c-0.1,0.2-0.3,0.3-0.5,0.4c-0.2,0.1-0.5,0.1-0.9,0.1C45.4-42.2,45.2-42.3,45-42.3z"/>
					<path d="M49-42.4c-0.3-0.1-0.4-0.3-0.6-0.6c-0.1-0.3-0.2-0.6-0.2-0.9v-0.4c0-0.4,0.1-0.7,0.2-1c0.1-0.3,0.3-0.5,0.6-0.6
						c0.2-0.1,0.5-0.2,0.9-0.2c0.3,0,0.6,0.1,0.8,0.2c0.2,0.2,0.4,0.4,0.5,0.7c0.1,0.3,0.2,0.7,0.2,1.1v0.3h-2.6v-0.6h1.9
						c0-0.3-0.1-0.6-0.2-0.7c-0.1-0.2-0.3-0.3-0.6-0.3c-0.3,0-0.5,0.1-0.7,0.3C49-45.1,49-44.8,49-44.4v0.5c0,0.3,0.1,0.6,0.3,0.7
						c0.2,0.2,0.4,0.3,0.7,0.3c0.2,0,0.3,0,0.5-0.1c0.2-0.1,0.3-0.1,0.4-0.3l0.5,0.5c-0.2,0.2-0.4,0.3-0.6,0.4
						c-0.2,0.1-0.5,0.2-0.7,0.2C49.6-42.2,49.3-42.3,49-42.4z"/>
					<path d="M52.4-46.2h0.8v3.9h-0.8V-46.2z M54.3-45.4c-0.1,0-0.2-0.1-0.4-0.1c-0.2,0-0.4,0.1-0.6,0.2c-0.1,0.1-0.2,0.3-0.2,0.6
						l-0.1-0.7c0.1-0.2,0.3-0.4,0.5-0.5c0.2-0.1,0.4-0.2,0.6-0.2c0.2,0,0.3,0,0.5,0.1s0.3,0.1,0.4,0.2l-0.5,0.7
						C54.5-45.3,54.4-45.4,54.3-45.4z"/>
					<path d="M55.5-47.7h0.8v0.8h-0.8V-47.7z M55.5-46.2h0.8v3.9h-0.8V-46.2z"/>
					<path d="M57.2-46.2h1.9v0.6h-1.9V-46.2z M57.6-46.7c0-0.3,0.1-0.6,0.2-0.8c0.2-0.2,0.4-0.3,0.7-0.3h0.6v0.7h-0.5
						c-0.1,0-0.1,0-0.2,0.1c0,0.1-0.1,0.1-0.1,0.2v4.4h-0.8V-46.7z"/>
				</g>
			</g>
		</g>
	</g>
	<g>
		<defs>
			<polygon id="SVGID_39_" points="19.9,-11.1 324.6,-11.1 324.6,-125.5 19.9,-125.5 19.9,-11.1 			"/>
		</defs>
		<clipPath id="SVGID_40_">
			<use xlink:href="#SVGID_39_"  style="overflow:visible;"/>
		</clipPath>
		<g class="st20">
			<defs>
				<rect id="SVGID_41_" x="19.9" y="-125.5" width="304.7" height="114.5"/>
			</defs>
			<clipPath id="SVGID_42_">
				<use xlink:href="#SVGID_41_"  style="overflow:visible;"/>
			</clipPath>
			<g class="st21">
				<g>
					<path d="M41.1-70.8c-0.2,0-0.4-0.1-0.6-0.2c-0.2-0.1-0.3-0.2-0.5-0.3l0.5-0.6c0.2,0.2,0.4,0.3,0.6,0.4c0.2,0.1,0.4,0.1,0.6,0.1
						c0.3,0,0.5,0,0.7-0.1c0.2-0.1,0.2-0.2,0.2-0.4c0-0.1,0-0.2-0.1-0.3c-0.1-0.1-0.2-0.1-0.3-0.1s-0.3,0-0.5-0.1c0,0,0,0-0.1,0
						c0,0,0,0-0.1,0c0,0,0,0,0,0c0,0,0,0,0,0c-0.3,0-0.5-0.1-0.6-0.1c-0.2-0.1-0.3-0.2-0.4-0.3s-0.2-0.4-0.2-0.6s0.1-0.5,0.2-0.7
						c0.1-0.2,0.3-0.3,0.5-0.4s0.5-0.1,0.8-0.1c0.2,0,0.4,0,0.6,0.1s0.4,0.1,0.5,0.2c0.2,0.1,0.3,0.2,0.5,0.3l-0.5,0.6
						c-0.2-0.1-0.4-0.2-0.6-0.3C42.1-74,41.9-74,41.7-74c-0.3,0-0.5,0-0.6,0.1S41-73.7,41-73.5c0,0.1,0,0.2,0.1,0.2s0.2,0.1,0.3,0.1
						c0.1,0,0.3,0,0.5,0c0,0,0,0,0,0s0,0,0.1,0c0,0,0,0,0,0c0,0,0,0,0,0c0.3,0,0.5,0.1,0.7,0.1c0.2,0.1,0.3,0.2,0.5,0.3
						c0.1,0.2,0.2,0.4,0.2,0.7c0,0.3-0.1,0.5-0.2,0.7c-0.1,0.2-0.3,0.3-0.5,0.4c-0.2,0.1-0.5,0.1-0.9,0.1
						C41.5-70.8,41.3-70.8,41.1-70.8z"/>
					<path d="M45-71c-0.2-0.1-0.4-0.3-0.6-0.6c-0.1-0.2-0.2-0.6-0.2-0.9v-0.6c0-0.3,0.1-0.6,0.2-0.9c0.1-0.2,0.3-0.4,0.6-0.6
						c0.2-0.1,0.6-0.2,0.9-0.2c0.2,0,0.4,0,0.6,0.1c0.2,0,0.3,0.1,0.5,0.2c0.1,0.1,0.3,0.2,0.4,0.3l-0.5,0.5
						c-0.1-0.1-0.2-0.2-0.4-0.3C46.3-74,46.1-74,46-74c-0.3,0-0.5,0.1-0.7,0.2c-0.2,0.2-0.2,0.4-0.2,0.7v0.6c0,0.3,0.1,0.5,0.2,0.7
						c0.2,0.2,0.4,0.2,0.7,0.2c0.2,0,0.3,0,0.5-0.1c0.1-0.1,0.3-0.2,0.4-0.3l0.5,0.5c-0.1,0.1-0.2,0.2-0.4,0.3
						c-0.1,0.1-0.3,0.2-0.5,0.2c-0.2,0-0.4,0.1-0.6,0.1C45.6-70.8,45.3-70.8,45-71z"/>
					<path d="M48-74.7h0.8v3.9H48V-74.7z M49.8-73.9c-0.1,0-0.2-0.1-0.4-0.1c-0.2,0-0.4,0.1-0.6,0.2c-0.1,0.1-0.2,0.3-0.2,0.6
						L48.6-74c0.1-0.2,0.3-0.4,0.5-0.5s0.4-0.2,0.6-0.2c0.2,0,0.3,0,0.5,0.1s0.3,0.1,0.4,0.2l-0.5,0.7C50-73.8,49.9-73.9,49.8-73.9z
						"/>
					<path d="M51.5-76.2h0.8v0.8h-0.8V-76.2z M51.5-74.7h0.8v3.9h-0.8V-74.7z"/>
					<path d="M53-74.7h0.8v5.4H53V-74.7z M54.1-70.9c-0.2-0.1-0.3-0.3-0.4-0.5l0.1-0.8c0,0.2,0,0.3,0.1,0.4s0.1,0.2,0.3,0.3
						s0.3,0.1,0.4,0.1c0.3,0,0.4-0.1,0.6-0.2c0.1-0.2,0.2-0.4,0.2-0.6v-0.8c0-0.3-0.1-0.5-0.2-0.7S54.8-74,54.5-74
						c-0.2,0-0.3,0-0.4,0.1c-0.1,0.1-0.2,0.1-0.3,0.3s-0.1,0.3-0.1,0.4L53.7-74c0.1-0.2,0.3-0.4,0.5-0.5s0.4-0.2,0.6-0.2
						c0.3,0,0.5,0.1,0.7,0.2c0.2,0.1,0.3,0.3,0.4,0.5s0.2,0.5,0.2,0.8v0.8c0,0.3-0.1,0.6-0.2,0.8c-0.1,0.2-0.3,0.4-0.5,0.5
						c-0.2,0.1-0.4,0.2-0.7,0.2C54.5-70.8,54.3-70.8,54.1-70.9z"/>
					<path d="M57.3-74.7H59v0.7h-1.7V-74.7z M57.9-71.1c-0.1-0.2-0.2-0.4-0.2-0.8v-4h0.8v4c0,0.1,0,0.2,0.1,0.2s0.1,0.1,0.2,0.1H59
						v0.7h-0.4C58.3-70.8,58.1-70.9,57.9-71.1z"/>
				</g>
			</g>
		</g>
	</g>
	<g>
		<defs>
			<polygon id="SVGID_43_" points="19.9,-11.1 324.6,-11.1 324.6,-125.5 19.9,-125.5 19.9,-11.1 			"/>
		</defs>
		<clipPath id="SVGID_44_">
			<use xlink:href="#SVGID_43_"  style="overflow:visible;"/>
		</clipPath>
		<g class="st22">
			<defs>
				<rect id="SVGID_45_" x="19.9" y="-125.5" width="304.7" height="114.5"/>
			</defs>
			<clipPath id="SVGID_46_">
				<use xlink:href="#SVGID_45_"  style="overflow:visible;"/>
			</clipPath>
			<g class="st23">
				<g>
					<path d="M45-99.4c-0.2,0-0.4-0.1-0.6-0.2c-0.2-0.1-0.3-0.2-0.5-0.3l0.5-0.6c0.2,0.2,0.4,0.3,0.6,0.4c0.2,0.1,0.4,0.1,0.6,0.1
						c0.3,0,0.5,0,0.7-0.1c0.2-0.1,0.2-0.2,0.2-0.4c0-0.1,0-0.2-0.1-0.3c-0.1-0.1-0.2-0.1-0.3-0.1s-0.3,0-0.5-0.1c0,0,0,0-0.1,0
						c0,0,0,0-0.1,0c0,0,0,0,0,0c0,0,0,0,0,0c-0.3,0-0.5-0.1-0.6-0.1c-0.2-0.1-0.3-0.2-0.4-0.3s-0.2-0.4-0.2-0.6s0.1-0.5,0.2-0.7
						c0.1-0.2,0.3-0.3,0.5-0.4s0.5-0.1,0.8-0.1c0.2,0,0.4,0,0.6,0.1s0.4,0.1,0.5,0.2c0.2,0.1,0.3,0.2,0.5,0.3l-0.5,0.6
						c-0.2-0.1-0.4-0.2-0.6-0.3c-0.2-0.1-0.4-0.1-0.5-0.1c-0.3,0-0.5,0-0.6,0.1s-0.2,0.2-0.2,0.4c0,0.1,0,0.2,0.1,0.2
						s0.2,0.1,0.3,0.1c0.1,0,0.3,0,0.5,0c0,0,0,0,0,0s0,0,0.1,0c0,0,0,0,0,0c0,0,0,0,0,0c0.3,0,0.5,0.1,0.7,0.1
						c0.2,0.1,0.3,0.2,0.5,0.3c0.1,0.2,0.2,0.4,0.2,0.7c0,0.3-0.1,0.5-0.2,0.7c-0.1,0.2-0.3,0.3-0.5,0.4c-0.2,0.1-0.5,0.1-0.9,0.1
						C45.4-99.3,45.2-99.3,45-99.4z"/>
					<path d="M49-99.5c-0.3-0.1-0.4-0.3-0.6-0.6c-0.1-0.3-0.2-0.6-0.2-0.9v-0.4c0-0.4,0.1-0.7,0.2-1c0.1-0.3,0.3-0.5,0.6-0.6
						c0.2-0.1,0.5-0.2,0.9-0.2c0.3,0,0.6,0.1,0.8,0.2c0.2,0.2,0.4,0.4,0.5,0.7s0.2,0.7,0.2,1.1v0.3h-2.6v-0.6h1.9
						c0-0.3-0.1-0.6-0.2-0.7c-0.1-0.2-0.3-0.3-0.6-0.3c-0.3,0-0.5,0.1-0.7,0.3c-0.2,0.2-0.2,0.5-0.2,0.8v0.5c0,0.3,0.1,0.6,0.3,0.7
						c0.2,0.2,0.4,0.3,0.7,0.3c0.2,0,0.3,0,0.5-0.1c0.2-0.1,0.3-0.1,0.4-0.3l0.5,0.5c-0.2,0.2-0.4,0.3-0.6,0.4
						c-0.2,0.1-0.5,0.2-0.7,0.2C49.5-99.3,49.2-99.4,49-99.5z"/>
					<path d="M52.4-103.2h0.8v3.9h-0.8V-103.2z M54.3-102.5c-0.1,0-0.2-0.1-0.4-0.1c-0.2,0-0.4,0.1-0.6,0.2
						c-0.1,0.1-0.2,0.3-0.2,0.6l-0.1-0.7c0.1-0.2,0.3-0.4,0.5-0.5s0.4-0.2,0.6-0.2c0.2,0,0.3,0,0.5,0.1s0.3,0.1,0.4,0.2l-0.5,0.7
						C54.4-102.4,54.4-102.4,54.3-102.5z"/>
					<path d="M55.4-104.7h0.8v0.8h-0.8V-104.7z M55.4-103.2h0.8v3.9h-0.8V-103.2z"/>
					<path d="M57.2-103.2h1.9v0.6h-1.9V-103.2z M57.6-103.7c0-0.3,0.1-0.6,0.2-0.8c0.2-0.2,0.4-0.3,0.7-0.3h0.6v0.7h-0.5
						c-0.1,0-0.1,0-0.2,0.1c0,0.1-0.1,0.1-0.1,0.2v4.4h-0.8V-103.7z"/>
				</g>
			</g>
		</g>
	</g>
	<g>
		<defs>
			<polygon id="SVGID_47_" points="19.9,-11.1 324.6,-11.1 324.6,-125.5 19.9,-125.5 19.9,-11.1 			"/>
		</defs>
		<clipPath id="SVGID_48_">
			<use xlink:href="#SVGID_47_"  style="overflow:visible;"/>
		</clipPath>
		<polygon class="st24" points="20.2,-125.3 324.4,-125.3 324.4,-11.3 20.2,-11.3 20.2,-125.3 		"/>
	</g>
</g>
<g>
	<polygon class="st0" points="19.9,11.5 324.6,11.5 324.6,166.5 19.9,166.5 19.9,11.5 	"/>
	<g>
		<defs>
			<polygon id="SVGID_49_" points="19.9,166.5 324.6,166.5 324.6,11.5 19.9,11.5 19.9,166.5 			"/>
		</defs>
		<clipPath id="SVGID_50_">
			<use xlink:href="#SVGID_49_"  style="overflow:visible;"/>
		</clipPath>
		<path class="st25" d="M105.5,20.9V147 M155.8,20.9V147 M206.6,20.9V147 M256.8,20.9V147 M307.6,20.9V147"/>
	</g>
	<g>
		<defs>
			<polygon id="SVGID_51_" points="54.4,147.3 307.9,147.3 307.9,20.6 54.4,20.6 54.4,147.3 			"/>
		</defs>
		<clipPath id="SVGID_52_">
			<use xlink:href="#SVGID_51_"  style="overflow:visible;"/>
		</clipPath>
		<path class="st26" d="M287.1,141.2H55v-6.6h232.1V141.2L287.1,141.2z M186,123H55v-6.1h131V123L186,123z M105.2,105.2H55v-6.6
			h50.3V105.2L105.2,105.2z M79.8,87H55v-6.6h24.9V87L79.8,87z M79.8,69.3H55v-6.6h24.9V69.3L79.8,69.3z M74.8,51H55v-6.6h19.8V51
			L74.8,51z M69.7,32.8H55v-6.1h14.7V32.8L69.7,32.8z"/>
	</g>
	<g>
		<defs>
			<polygon id="SVGID_53_" points="19.9,166.5 324.6,166.5 324.6,11.5 19.9,11.5 19.9,166.5 			"/>
		</defs>
		<clipPath id="SVGID_54_">
			<use xlink:href="#SVGID_53_"  style="overflow:visible;"/>
		</clipPath>
		<line class="st27" x1="54.7" y1="147" x2="54.7" y2="20.9"/>
	</g>
	<g>
		<defs>
			<polygon id="SVGID_55_" points="19.9,166.5 324.6,166.5 324.6,11.5 19.9,11.5 19.9,166.5 			"/>
		</defs>
		<clipPath id="SVGID_56_">
			<use xlink:href="#SVGID_55_"  style="overflow:visible;"/>
		</clipPath>
		<g class="st28">
			<defs>
				<rect id="SVGID_57_" x="19.9" y="11.5" width="304.7" height="155"/>
			</defs>
			<clipPath id="SVGID_58_">
				<use xlink:href="#SVGID_57_"  style="overflow:visible;"/>
			</clipPath>
			<g class="st29">
				<g>
					<path d="M49.9,159.2c-0.3-0.3-0.4-0.6-0.4-1.1v-2.5c0-0.5,0.1-0.9,0.4-1.1c0.3-0.3,0.6-0.4,1.1-0.4c0.5,0,0.9,0.1,1.2,0.4
						c0.3,0.3,0.4,0.6,0.4,1.1v2.5c0,0.5-0.1,0.9-0.4,1.1s-0.6,0.4-1.1,0.4C50.6,159.6,50.2,159.4,49.9,159.2z M51.7,158.6
						c0.1-0.1,0.2-0.3,0.2-0.6v-2.5c0-0.3-0.1-0.5-0.2-0.6s-0.3-0.2-0.6-0.2c-0.3,0-0.5,0.1-0.6,0.2s-0.2,0.3-0.2,0.6v2.5
						c0,0.3,0.1,0.5,0.2,0.6c0.1,0.1,0.3,0.2,0.6,0.2C51.4,158.9,51.6,158.8,51.7,158.6z"/>
					<path d="M55.7,156.2c-0.2-0.2-0.2-0.4-0.2-0.7V155c0-0.3,0.1-0.5,0.2-0.7s0.4-0.3,0.7-0.3s0.5,0.1,0.7,0.3s0.2,0.4,0.2,0.7v0.5
						c0,0.3-0.1,0.5-0.2,0.7c-0.2,0.2-0.4,0.2-0.7,0.2C56.1,156.4,55.9,156.3,55.7,156.2z M58.8,154.1h0.7l-2.9,5.4h-0.7L58.8,154.1
						z M56.6,155.8c0-0.1,0.1-0.1,0.1-0.2V155c0-0.1,0-0.2-0.1-0.2c0-0.1-0.1-0.1-0.2-0.1c-0.1,0-0.2,0-0.2,0.1
						c0,0.1-0.1,0.1-0.1,0.2v0.5c0,0.1,0,0.2,0.1,0.2c0,0.1,0.1,0.1,0.2,0.1C56.4,155.8,56.5,155.8,56.6,155.8z M58.4,159.3
						c-0.2-0.2-0.2-0.4-0.2-0.7v-0.5c0-0.3,0.1-0.5,0.2-0.7s0.4-0.3,0.7-0.3s0.5,0.1,0.7,0.3s0.2,0.4,0.2,0.7v0.5
						c0,0.3-0.1,0.5-0.2,0.7c-0.2,0.2-0.4,0.2-0.7,0.2C58.8,159.6,58.5,159.5,58.4,159.3z M59.3,158.9c0-0.1,0.1-0.1,0.1-0.2v-0.5
						c0-0.1,0-0.2-0.1-0.2c0-0.1-0.1-0.1-0.2-0.1c-0.1,0-0.2,0-0.2,0.1c0,0.1-0.1,0.1-0.1,0.2v0.5c0,0.1,0,0.2,0.1,0.2
						c0,0.1,0.1,0.1,0.2,0.1C59.1,159,59.2,159,59.3,158.9z"/>
				</g>
			</g>
		</g>
	</g>
	<g>
		<defs>
			<polygon id="SVGID_59_" points="19.9,166.5 324.6,166.5 324.6,11.5 19.9,11.5 19.9,166.5 			"/>
		</defs>
		<clipPath id="SVGID_60_">
			<use xlink:href="#SVGID_59_"  style="overflow:visible;"/>
		</clipPath>
		<g class="st30">
			<defs>
				<rect id="SVGID_61_" x="19.9" y="11.5" width="304.7" height="155"/>
			</defs>
			<clipPath id="SVGID_62_">
				<use xlink:href="#SVGID_61_"  style="overflow:visible;"/>
			</clipPath>
			<g class="st31">
				<g>
					<path d="M100.1,159.5h-0.8v-4.6l-0.8,0.5v-0.8l0.8-0.5h0.8V159.5z"/>
					<path d="M101.8,159.2c-0.3-0.3-0.4-0.6-0.4-1.1v-2.5c0-0.5,0.1-0.9,0.4-1.1c0.3-0.3,0.6-0.4,1.1-0.4c0.5,0,0.9,0.1,1.2,0.4
						c0.3,0.3,0.4,0.6,0.4,1.1v2.5c0,0.5-0.1,0.9-0.4,1.1s-0.6,0.4-1.1,0.4C102.4,159.6,102,159.4,101.8,159.2z M103.5,158.6
						c0.1-0.1,0.2-0.3,0.2-0.6v-2.5c0-0.3-0.1-0.5-0.2-0.6s-0.3-0.2-0.6-0.2c-0.3,0-0.5,0.1-0.6,0.2s-0.2,0.3-0.2,0.6v2.5
						c0,0.3,0.1,0.5,0.2,0.6c0.1,0.1,0.3,0.2,0.6,0.2C103.2,158.9,103.4,158.8,103.5,158.6z"/>
					<path d="M107.5,156.2c-0.2-0.2-0.2-0.4-0.2-0.7V155c0-0.3,0.1-0.5,0.2-0.7s0.4-0.3,0.7-0.3s0.5,0.1,0.7,0.3s0.2,0.4,0.2,0.7
						v0.5c0,0.3-0.1,0.5-0.2,0.7c-0.2,0.2-0.4,0.2-0.7,0.2C107.9,156.4,107.7,156.3,107.5,156.2z M110.6,154.1h0.7l-2.9,5.4h-0.7
						L110.6,154.1z M108.4,155.8c0-0.1,0.1-0.1,0.1-0.2V155c0-0.1,0-0.2-0.1-0.2c0-0.1-0.1-0.1-0.2-0.1c-0.1,0-0.2,0-0.2,0.1
						c0,0.1-0.1,0.1-0.1,0.2v0.5c0,0.1,0,0.2,0.1,0.2c0,0.1,0.1,0.1,0.2,0.1C108.3,155.8,108.3,155.8,108.4,155.8z M110.2,159.3
						c-0.2-0.2-0.2-0.4-0.2-0.7v-0.5c0-0.3,0.1-0.5,0.2-0.7s0.4-0.3,0.7-0.3s0.5,0.1,0.7,0.3s0.2,0.4,0.2,0.7v0.5
						c0,0.3-0.1,0.5-0.2,0.7c-0.2,0.2-0.4,0.2-0.7,0.2C110.6,159.6,110.4,159.5,110.2,159.3z M111.1,158.9c0-0.1,0.1-0.1,0.1-0.2
						v-0.5c0-0.1,0-0.2-0.1-0.2c0-0.1-0.1-0.1-0.2-0.1c-0.1,0-0.2,0-0.2,0.1c0,0.1-0.1,0.1-0.1,0.2v0.5c0,0.1,0,0.2,0.1,0.2
						c0,0.1,0.1,0.1,0.2,0.1C111,159,111,159,111.1,158.9z"/>
				</g>
			</g>
		</g>
	</g>
	<g>
		<defs>
			<polygon id="SVGID_63_" points="19.9,166.5 324.6,166.5 324.6,11.5 19.9,11.5 19.9,166.5 			"/>
		</defs>
		<clipPath id="SVGID_64_">
			<use xlink:href="#SVGID_63_"  style="overflow:visible;"/>
		</clipPath>
		<g class="st32">
			<defs>
				<rect id="SVGID_65_" x="19.9" y="11.5" width="304.7" height="155"/>
			</defs>
			<clipPath id="SVGID_66_">
				<use xlink:href="#SVGID_65_"  style="overflow:visible;"/>
			</clipPath>
			<g class="st33">
				<g>
					<path d="M148.6,158.9l1.9-2.5c0.1-0.1,0.2-0.3,0.3-0.4c0.1-0.2,0.1-0.3,0.1-0.4v0c0-0.2-0.1-0.4-0.2-0.5
						c-0.1-0.1-0.3-0.2-0.5-0.2c-0.2,0-0.4,0.1-0.5,0.2c-0.1,0.1-0.2,0.3-0.2,0.6v0h-0.8v0c0-0.3,0.1-0.6,0.3-0.8
						c0.1-0.2,0.3-0.4,0.5-0.5c0.2-0.1,0.5-0.2,0.8-0.2c0.3,0,0.6,0.1,0.8,0.2c0.2,0.1,0.4,0.3,0.5,0.5c0.1,0.2,0.2,0.5,0.2,0.8v0
						c0,0.2,0,0.4-0.1,0.6c-0.1,0.2-0.2,0.4-0.3,0.6l-1.6,2.1h2v0.7h-3.1V158.9z"/>
					<path d="M153.1,159.2c-0.3-0.3-0.4-0.6-0.4-1.1v-2.5c0-0.5,0.1-0.9,0.4-1.1c0.3-0.3,0.6-0.4,1.1-0.4c0.5,0,0.9,0.1,1.2,0.4
						c0.3,0.3,0.4,0.6,0.4,1.1v2.5c0,0.5-0.1,0.9-0.4,1.1s-0.6,0.4-1.1,0.4C153.8,159.6,153.4,159.4,153.1,159.2z M154.9,158.6
						c0.1-0.1,0.2-0.3,0.2-0.6v-2.5c0-0.3-0.1-0.5-0.2-0.6s-0.3-0.2-0.6-0.2c-0.3,0-0.5,0.1-0.6,0.2s-0.2,0.3-0.2,0.6v2.5
						c0,0.3,0.1,0.5,0.2,0.6c0.1,0.1,0.3,0.2,0.6,0.2C154.6,158.9,154.7,158.8,154.9,158.6z"/>
					<path d="M158.9,156.2c-0.2-0.2-0.2-0.4-0.2-0.7V155c0-0.3,0.1-0.5,0.2-0.7s0.4-0.3,0.7-0.3s0.5,0.1,0.7,0.3s0.2,0.4,0.2,0.7
						v0.5c0,0.3-0.1,0.5-0.2,0.7c-0.2,0.2-0.4,0.2-0.7,0.2C159.3,156.4,159,156.3,158.9,156.2z M162,154.1h0.7l-2.9,5.4h-0.7
						L162,154.1z M159.8,155.8c0-0.1,0.1-0.1,0.1-0.2V155c0-0.1,0-0.2-0.1-0.2c0-0.1-0.1-0.1-0.2-0.1c-0.1,0-0.2,0-0.2,0.1
						c0,0.1-0.1,0.1-0.1,0.2v0.5c0,0.1,0,0.2,0.1,0.2c0,0.1,0.1,0.1,0.2,0.1C159.6,155.8,159.7,155.8,159.8,155.8z M161.6,159.3
						c-0.2-0.2-0.2-0.4-0.2-0.7v-0.5c0-0.3,0.1-0.5,0.2-0.7s0.4-0.3,0.7-0.3s0.5,0.1,0.7,0.3s0.2,0.4,0.2,0.7v0.5
						c0,0.3-0.1,0.5-0.2,0.7c-0.2,0.2-0.4,0.2-0.7,0.2C162,159.6,161.7,159.5,161.6,159.3z M162.5,158.9c0-0.1,0.1-0.1,0.1-0.2v-0.5
						c0-0.1,0-0.2-0.1-0.2c0-0.1-0.1-0.1-0.2-0.1c-0.1,0-0.2,0-0.2,0.1c0,0.1-0.1,0.1-0.1,0.2v0.5c0,0.1,0,0.2,0.1,0.2
						c0,0.1,0.1,0.1,0.2,0.1C162.3,159,162.4,159,162.5,158.9z"/>
				</g>
			</g>
		</g>
	</g>
	<g>
		<defs>
			<polygon id="SVGID_67_" points="19.9,166.5 324.6,166.5 324.6,11.5 19.9,11.5 19.9,166.5 			"/>
		</defs>
		<clipPath id="SVGID_68_">
			<use xlink:href="#SVGID_67_"  style="overflow:visible;"/>
		</clipPath>
		<g class="st34">
			<defs>
				<rect id="SVGID_69_" x="19.9" y="11.5" width="304.7" height="155"/>
			</defs>
			<clipPath id="SVGID_70_">
				<use xlink:href="#SVGID_69_"  style="overflow:visible;"/>
			</clipPath>
			<g class="st35">
				<g>
					<path d="M199.8,159.4c-0.2-0.1-0.4-0.3-0.6-0.5c-0.1-0.2-0.2-0.5-0.3-0.8h0.8c0,0.2,0.1,0.3,0.1,0.4c0.1,0.1,0.2,0.2,0.3,0.2
						c0.1,0,0.3,0.1,0.4,0.1c0.3,0,0.4-0.1,0.6-0.2c0.1-0.1,0.2-0.3,0.2-0.6v-0.2c0-0.3-0.1-0.5-0.2-0.6c-0.1-0.1-0.3-0.2-0.6-0.2
						h-0.4v-0.7h0.4c0.2,0,0.4-0.1,0.5-0.2c0.1-0.1,0.2-0.3,0.2-0.5v-0.2c0-0.2-0.1-0.4-0.2-0.5s-0.3-0.2-0.5-0.2
						c-0.1,0-0.2,0-0.3,0.1c-0.1,0-0.2,0.1-0.3,0.2c-0.1,0.1-0.1,0.2-0.2,0.4h-0.8c0-0.3,0.1-0.5,0.3-0.8c0.1-0.2,0.3-0.4,0.5-0.5
						c0.2-0.1,0.5-0.2,0.7-0.2c0.5,0,0.8,0.1,1.1,0.4c0.3,0.2,0.4,0.6,0.4,1v0.1c0,0.3-0.1,0.5-0.2,0.7s-0.4,0.3-0.6,0.4
						c0.3,0.1,0.5,0.2,0.7,0.4c0.2,0.2,0.2,0.5,0.2,0.9v0.1c0,0.3-0.1,0.6-0.2,0.8c-0.1,0.2-0.3,0.4-0.5,0.5
						c-0.2,0.1-0.5,0.2-0.8,0.2C200.3,159.6,200,159.5,199.8,159.4z"/>
					<path d="M203.6,159.2c-0.3-0.3-0.4-0.6-0.4-1.1v-2.5c0-0.5,0.1-0.9,0.4-1.1s0.6-0.4,1.1-0.4c0.5,0,0.9,0.1,1.2,0.4
						c0.3,0.3,0.4,0.6,0.4,1.1v2.5c0,0.5-0.1,0.9-0.4,1.1s-0.6,0.4-1.1,0.4C204.3,159.6,203.9,159.4,203.6,159.2z M205.4,158.6
						c0.1-0.1,0.2-0.3,0.2-0.6v-2.5c0-0.3-0.1-0.5-0.2-0.6c-0.1-0.1-0.3-0.2-0.6-0.2s-0.5,0.1-0.6,0.2c-0.1,0.1-0.2,0.3-0.2,0.6v2.5
						c0,0.3,0.1,0.5,0.2,0.6c0.1,0.1,0.3,0.2,0.6,0.2S205.3,158.8,205.4,158.6z"/>
					<path d="M209.4,156.2c-0.2-0.2-0.2-0.4-0.2-0.7V155c0-0.3,0.1-0.5,0.2-0.7s0.4-0.3,0.7-0.3c0.3,0,0.5,0.1,0.7,0.3
						c0.2,0.2,0.2,0.4,0.2,0.7v0.5c0,0.3-0.1,0.5-0.2,0.7c-0.2,0.2-0.4,0.2-0.7,0.2C209.8,156.4,209.6,156.3,209.4,156.2z
						 M212.5,154.1h0.7l-2.9,5.4h-0.7L212.5,154.1z M210.3,155.8c0-0.1,0.1-0.1,0.1-0.2V155c0-0.1,0-0.2-0.1-0.2
						c0-0.1-0.1-0.1-0.2-0.1c-0.1,0-0.2,0-0.2,0.1c0,0.1-0.1,0.1-0.1,0.2v0.5c0,0.1,0,0.2,0.1,0.2c0,0.1,0.1,0.1,0.2,0.1
						C210.2,155.8,210.2,155.8,210.3,155.8z M212.1,159.3c-0.2-0.2-0.2-0.4-0.2-0.7v-0.5c0-0.3,0.1-0.5,0.2-0.7s0.4-0.3,0.7-0.3
						c0.3,0,0.5,0.1,0.7,0.3s0.2,0.4,0.2,0.7v0.5c0,0.3-0.1,0.5-0.2,0.7c-0.2,0.2-0.4,0.2-0.7,0.2
						C212.5,159.6,212.3,159.5,212.1,159.3z M213,158.9c0-0.1,0.1-0.1,0.1-0.2v-0.5c0-0.1,0-0.2-0.1-0.2c0-0.1-0.1-0.1-0.2-0.1
						c-0.1,0-0.2,0-0.2,0.1c0,0.1-0.1,0.1-0.1,0.2v0.5c0,0.1,0,0.2,0.1,0.2c0,0.1,0.1,0.1,0.2,0.1C212.9,159,212.9,159,213,158.9z"
						/>
				</g>
			</g>
		</g>
	</g>
	<g>
		<defs>
			<polygon id="SVGID_71_" points="19.9,166.5 324.6,166.5 324.6,11.5 19.9,11.5 19.9,166.5 			"/>
		</defs>
		<clipPath id="SVGID_72_">
			<use xlink:href="#SVGID_71_"  style="overflow:visible;"/>
		</clipPath>
		<g class="st36">
			<defs>
				<rect id="SVGID_73_" x="19.9" y="11.5" width="304.7" height="155"/>
			</defs>
			<clipPath id="SVGID_74_">
				<use xlink:href="#SVGID_73_"  style="overflow:visible;"/>
			</clipPath>
			<g class="st37">
				<g>
					<path d="M249.5,158l1.8-3.9h0.8l-1.8,3.9h2.7v0.7h-3.5V158z M251.9,156.3h0.7v3.2h-0.7V156.3z"/>
					<path d="M254.6,159.2c-0.3-0.3-0.4-0.6-0.4-1.1v-2.5c0-0.5,0.1-0.9,0.4-1.1s0.6-0.4,1.1-0.4c0.5,0,0.9,0.1,1.2,0.4
						c0.3,0.3,0.4,0.6,0.4,1.1v2.5c0,0.5-0.1,0.9-0.4,1.1s-0.6,0.4-1.1,0.4C255.2,159.6,254.8,159.4,254.6,159.2z M256.3,158.6
						c0.1-0.1,0.2-0.3,0.2-0.6v-2.5c0-0.3-0.1-0.5-0.2-0.6c-0.1-0.1-0.3-0.2-0.6-0.2s-0.5,0.1-0.6,0.2c-0.1,0.1-0.2,0.3-0.2,0.6v2.5
						c0,0.3,0.1,0.5,0.2,0.6c0.1,0.1,0.3,0.2,0.6,0.2S256.2,158.8,256.3,158.6z"/>
					<path d="M260.3,156.2c-0.2-0.2-0.2-0.4-0.2-0.7V155c0-0.3,0.1-0.5,0.2-0.7s0.4-0.3,0.7-0.3c0.3,0,0.5,0.1,0.7,0.3
						c0.2,0.2,0.2,0.4,0.2,0.7v0.5c0,0.3-0.1,0.5-0.2,0.7c-0.2,0.2-0.4,0.2-0.7,0.2C260.7,156.4,260.5,156.3,260.3,156.2z
						 M263.4,154.1h0.7l-2.9,5.4h-0.7L263.4,154.1z M261.2,155.8c0-0.1,0.1-0.1,0.1-0.2V155c0-0.1,0-0.2-0.1-0.2
						c0-0.1-0.1-0.1-0.2-0.1c-0.1,0-0.2,0-0.2,0.1c0,0.1-0.1,0.1-0.1,0.2v0.5c0,0.1,0,0.2,0.1,0.2c0,0.1,0.1,0.1,0.2,0.1
						C261.1,155.8,261.1,155.8,261.2,155.8z M263,159.3c-0.2-0.2-0.2-0.4-0.2-0.7v-0.5c0-0.3,0.1-0.5,0.2-0.7s0.4-0.3,0.7-0.3
						c0.3,0,0.5,0.1,0.7,0.3s0.2,0.4,0.2,0.7v0.5c0,0.3-0.1,0.5-0.2,0.7c-0.2,0.2-0.4,0.2-0.7,0.2
						C263.4,159.6,263.2,159.5,263,159.3z M263.9,158.9c0-0.1,0.1-0.1,0.1-0.2v-0.5c0-0.1,0-0.2-0.1-0.2c0-0.1-0.1-0.1-0.2-0.1
						c-0.1,0-0.2,0-0.2,0.1c0,0.1-0.1,0.1-0.1,0.2v0.5c0,0.1,0,0.2,0.1,0.2c0,0.1,0.1,0.1,0.2,0.1C263.8,159,263.8,159,263.9,158.9z
						"/>
				</g>
			</g>
		</g>
	</g>
	<g>
		<defs>
			<polygon id="SVGID_75_" points="19.9,166.5 324.6,166.5 324.6,11.5 19.9,11.5 19.9,166.5 			"/>
		</defs>
		<clipPath id="SVGID_76_">
			<use xlink:href="#SVGID_75_"  style="overflow:visible;"/>
		</clipPath>
		<g class="st38">
			<defs>
				<rect id="SVGID_77_" x="19.9" y="11.5" width="304.7" height="155"/>
			</defs>
			<clipPath id="SVGID_78_">
				<use xlink:href="#SVGID_77_"  style="overflow:visible;"/>
			</clipPath>
			<g class="st39">
				<g>
					<path d="M301,159.4c-0.2-0.1-0.4-0.3-0.5-0.5c-0.1-0.2-0.2-0.4-0.3-0.7v0h0.8v0c0,0.2,0.1,0.4,0.2,0.5c0.1,0.1,0.3,0.2,0.5,0.2
						c0.2,0,0.4-0.1,0.6-0.2c0.1-0.2,0.2-0.4,0.2-0.7v-0.5c0-0.3-0.1-0.5-0.2-0.7s-0.3-0.2-0.6-0.2c-0.1,0-0.3,0-0.4,0.1
						c-0.1,0.1-0.2,0.2-0.3,0.3h-0.7v-2.8h2.8v0.7h-2v1.2c0.1-0.1,0.2-0.1,0.3-0.2s0.2-0.1,0.4-0.1c0.3,0,0.6,0.1,0.8,0.2
						c0.2,0.1,0.4,0.3,0.5,0.6c0.1,0.2,0.2,0.5,0.2,0.9v0.5c0,0.3-0.1,0.6-0.2,0.9s-0.3,0.4-0.5,0.6c-0.2,0.1-0.5,0.2-0.8,0.2
						C301.5,159.6,301.2,159.5,301,159.4z"/>
					<path d="M304.7,159.2c-0.3-0.3-0.4-0.6-0.4-1.1v-2.5c0-0.5,0.1-0.9,0.4-1.1s0.6-0.4,1.1-0.4c0.5,0,0.9,0.1,1.2,0.4
						c0.3,0.3,0.4,0.6,0.4,1.1v2.5c0,0.5-0.1,0.9-0.4,1.1s-0.6,0.4-1.1,0.4C305.4,159.6,305,159.4,304.7,159.2z M306.5,158.6
						c0.1-0.1,0.2-0.3,0.2-0.6v-2.5c0-0.3-0.1-0.5-0.2-0.6c-0.1-0.1-0.3-0.2-0.6-0.2s-0.5,0.1-0.6,0.2c-0.1,0.1-0.2,0.3-0.2,0.6v2.5
						c0,0.3,0.1,0.5,0.2,0.6c0.1,0.1,0.3,0.2,0.6,0.2S306.3,158.8,306.5,158.6z"/>
					<path d="M310.5,156.2c-0.2-0.2-0.2-0.4-0.2-0.7V155c0-0.3,0.1-0.5,0.2-0.7s0.4-0.3,0.7-0.3c0.3,0,0.5,0.1,0.7,0.3
						c0.2,0.2,0.2,0.4,0.2,0.7v0.5c0,0.3-0.1,0.5-0.2,0.7c-0.2,0.2-0.4,0.2-0.7,0.2C310.8,156.4,310.6,156.3,310.5,156.2z
						 M313.6,154.1h0.7l-2.9,5.4h-0.7L313.6,154.1z M311.3,155.8c0-0.1,0.1-0.1,0.1-0.2V155c0-0.1,0-0.2-0.1-0.2
						c0-0.1-0.1-0.1-0.2-0.1c-0.1,0-0.2,0-0.2,0.1c0,0.1-0.1,0.1-0.1,0.2v0.5c0,0.1,0,0.2,0.1,0.2c0,0.1,0.1,0.1,0.2,0.1
						C311.2,155.8,311.3,155.8,311.3,155.8z M313.2,159.3c-0.2-0.2-0.2-0.4-0.2-0.7v-0.5c0-0.3,0.1-0.5,0.2-0.7s0.4-0.3,0.7-0.3
						c0.3,0,0.5,0.1,0.7,0.3s0.2,0.4,0.2,0.7v0.5c0,0.3-0.1,0.5-0.2,0.7c-0.2,0.2-0.4,0.2-0.7,0.2
						C313.5,159.6,313.3,159.5,313.2,159.3z M314,158.9c0-0.1,0.1-0.1,0.1-0.2v-0.5c0-0.1,0-0.2-0.1-0.2c0-0.1-0.1-0.1-0.2-0.1
						c-0.1,0-0.2,0-0.2,0.1c0,0.1-0.1,0.1-0.1,0.2v0.5c0,0.1,0,0.2,0.1,0.2c0,0.1,0.1,0.1,0.2,0.1C313.9,159,314,159,314,158.9z"/>
				</g>
			</g>
		</g>
	</g>
	<g>
		<defs>
			<polygon id="SVGID_79_" points="19.9,166.5 324.6,166.5 324.6,11.5 19.9,11.5 19.9,166.5 			"/>
		</defs>
		<clipPath id="SVGID_80_">
			<use xlink:href="#SVGID_79_"  style="overflow:visible;"/>
		</clipPath>
		<g class="st40">
			<defs>
				<rect id="SVGID_81_" x="19.9" y="11.5" width="304.7" height="155"/>
			</defs>
			<clipPath id="SVGID_82_">
				<use xlink:href="#SVGID_81_"  style="overflow:visible;"/>
			</clipPath>
			<g class="st41">
				<g>
					<path d="M30.3,140.4c-0.2-0.1-0.4-0.3-0.6-0.6c-0.1-0.3-0.2-0.6-0.2-0.9v-0.6c0-0.3,0.1-0.6,0.2-0.9c0.1-0.2,0.3-0.4,0.6-0.6
						c0.2-0.1,0.6-0.2,0.9-0.2c0.2,0,0.4,0,0.6,0.1c0.2,0,0.3,0.1,0.5,0.2c0.1,0.1,0.3,0.2,0.4,0.3l-0.5,0.5
						c-0.1-0.1-0.2-0.2-0.4-0.3c-0.1-0.1-0.3-0.1-0.5-0.1c-0.3,0-0.5,0.1-0.7,0.2c-0.2,0.2-0.2,0.4-0.2,0.7v0.6
						c0,0.3,0.1,0.5,0.2,0.7c0.2,0.2,0.4,0.2,0.7,0.2c0.2,0,0.3,0,0.5-0.1c0.1-0.1,0.3-0.2,0.4-0.3l0.5,0.5
						c-0.1,0.1-0.2,0.2-0.4,0.3c-0.1,0.1-0.3,0.2-0.5,0.2s-0.4,0.1-0.6,0.1C30.9,140.6,30.6,140.5,30.3,140.4z"/>
					<path d="M33.2,135.1H34v5.4h-0.8V135.1z M35.6,138.2c0-0.3-0.1-0.5-0.2-0.6c-0.1-0.1-0.3-0.2-0.6-0.2c-0.2,0-0.4,0.1-0.6,0.2
						s-0.2,0.3-0.2,0.5l-0.1-0.7c0.1-0.2,0.3-0.4,0.5-0.5s0.4-0.2,0.6-0.2c0.4,0,0.7,0.1,1,0.4c0.2,0.3,0.3,0.7,0.3,1.2v2.3h-0.8
						V138.2z"/>
					<path d="M38.4,140.4c-0.3-0.1-0.4-0.3-0.6-0.6c-0.1-0.3-0.2-0.6-0.2-0.9v-0.4c0-0.4,0.1-0.7,0.2-1c0.1-0.3,0.3-0.5,0.6-0.6
						c0.2-0.1,0.5-0.2,0.9-0.2c0.3,0,0.6,0.1,0.8,0.2c0.2,0.2,0.4,0.4,0.5,0.7c0.1,0.3,0.2,0.7,0.2,1.1v0.3h-2.6v-0.6h1.9
						c0-0.3-0.1-0.6-0.2-0.7c-0.1-0.2-0.3-0.3-0.6-0.3c-0.3,0-0.5,0.1-0.7,0.3c-0.2,0.2-0.2,0.5-0.2,0.8v0.5c0,0.3,0.1,0.6,0.3,0.7
						c0.2,0.2,0.4,0.3,0.7,0.3c0.2,0,0.3,0,0.5-0.1c0.2-0.1,0.3-0.1,0.4-0.3l0.5,0.5c-0.2,0.2-0.4,0.3-0.6,0.4
						c-0.2,0.1-0.5,0.2-0.7,0.2C39,140.6,38.7,140.5,38.4,140.4z"/>
					<path d="M42.6,140.5c-0.2,0-0.4-0.1-0.6-0.2c-0.2-0.1-0.3-0.2-0.5-0.3l0.5-0.6c0.2,0.2,0.4,0.3,0.6,0.4
						c0.2,0.1,0.4,0.1,0.6,0.1c0.3,0,0.5,0,0.7-0.1c0.2-0.1,0.2-0.2,0.2-0.4c0-0.1,0-0.2-0.1-0.3s-0.2-0.1-0.3-0.1
						c-0.1,0-0.3,0-0.5-0.1c0,0,0,0-0.1,0c0,0,0,0-0.1,0c0,0,0,0,0,0c0,0,0,0,0,0c-0.3,0-0.5-0.1-0.6-0.1c-0.2-0.1-0.3-0.2-0.4-0.3
						c-0.1-0.1-0.2-0.4-0.2-0.6c0-0.3,0.1-0.5,0.2-0.7c0.1-0.2,0.3-0.3,0.5-0.4c0.2-0.1,0.5-0.1,0.8-0.1c0.2,0,0.4,0,0.6,0.1
						s0.4,0.1,0.5,0.2c0.2,0.1,0.3,0.2,0.5,0.3l-0.5,0.6c-0.2-0.1-0.4-0.2-0.6-0.3c-0.2-0.1-0.4-0.1-0.5-0.1c-0.3,0-0.5,0-0.6,0.1
						c-0.1,0.1-0.2,0.2-0.2,0.4c0,0.1,0,0.2,0.1,0.2c0.1,0.1,0.2,0.1,0.3,0.1c0.1,0,0.3,0,0.5,0c0,0,0,0,0,0s0,0,0.1,0c0,0,0,0,0,0
						c0,0,0,0,0,0c0.3,0,0.5,0.1,0.7,0.1c0.2,0.1,0.3,0.2,0.5,0.3c0.1,0.2,0.2,0.4,0.2,0.7c0,0.3-0.1,0.5-0.2,0.7
						c-0.1,0.2-0.3,0.3-0.5,0.4c-0.2,0.1-0.5,0.1-0.9,0.1C43,140.6,42.8,140.6,42.6,140.5z"/>
					<path d="M45.6,136.7h1.7v0.7h-1.7V136.7z M46.2,140.3c-0.1-0.2-0.2-0.4-0.2-0.8v-4h0.8v4c0,0.1,0,0.2,0.1,0.2s0.1,0.1,0.2,0.1
						h0.4v0.7h-0.4C46.6,140.6,46.4,140.5,46.2,140.3z"/>
				</g>
			</g>
		</g>
	</g>
	<g>
		<defs>
			<polygon id="SVGID_83_" points="19.9,166.5 324.6,166.5 324.6,11.5 19.9,11.5 19.9,166.5 			"/>
		</defs>
		<clipPath id="SVGID_84_">
			<use xlink:href="#SVGID_83_"  style="overflow:visible;"/>
		</clipPath>
		<g class="st42">
			<defs>
				<rect id="SVGID_85_" x="19.9" y="11.5" width="304.7" height="155"/>
			</defs>
			<clipPath id="SVGID_86_">
				<use xlink:href="#SVGID_85_"  style="overflow:visible;"/>
			</clipPath>
			<g class="st43">
				<g>
					<path d="M29.9,118.7h1.7v0.7h-1.7V118.7z M30.6,122.3c-0.1-0.2-0.2-0.4-0.2-0.8v-4h0.8v4c0,0.1,0,0.2,0.1,0.2s0.1,0.1,0.2,0.1
						h0.4v0.7h-0.4C30.9,122.5,30.7,122.5,30.6,122.3z"/>
					<path d="M33.4,122.4c-0.2-0.1-0.4-0.3-0.5-0.6s-0.2-0.6-0.2-0.9v-0.6c0-0.3,0.1-0.6,0.2-0.9c0.1-0.2,0.3-0.4,0.5-0.6
						c0.2-0.1,0.5-0.2,0.9-0.2s0.6,0.1,0.9,0.2c0.2,0.1,0.4,0.3,0.5,0.6c0.1,0.2,0.2,0.5,0.2,0.9v0.6c0,0.4-0.1,0.7-0.2,0.9
						c-0.1,0.2-0.3,0.4-0.5,0.6c-0.2,0.1-0.5,0.2-0.9,0.2S33.6,122.5,33.4,122.4z M34.9,121.6c0.1-0.2,0.2-0.4,0.2-0.7v-0.6
						c0-0.3-0.1-0.5-0.2-0.7s-0.4-0.2-0.6-0.2c-0.3,0-0.5,0.1-0.6,0.2s-0.2,0.4-0.2,0.7v0.6c0,0.3,0.1,0.5,0.2,0.7
						c0.1,0.2,0.4,0.2,0.6,0.2C34.5,121.9,34.7,121.8,34.9,121.6z"/>
					<path d="M36.8,118.7h0.8v3.9h-0.8V118.7z M38.7,119.4c-0.1,0-0.2-0.1-0.4-0.1c-0.2,0-0.4,0.1-0.6,0.2c-0.1,0.1-0.2,0.3-0.2,0.6
						l-0.1-0.7c0.1-0.2,0.3-0.4,0.5-0.5c0.2-0.1,0.4-0.2,0.6-0.2c0.2,0,0.3,0,0.5,0.1s0.3,0.1,0.4,0.2l-0.5,0.7
						C38.9,119.5,38.8,119.4,38.7,119.4z"/>
					<path d="M40.6,122.5c-0.2,0-0.4-0.1-0.6-0.2c-0.2-0.1-0.3-0.2-0.5-0.3l0.5-0.6c0.2,0.2,0.4,0.3,0.6,0.4
						c0.2,0.1,0.4,0.1,0.6,0.1c0.3,0,0.5,0,0.7-0.1c0.2-0.1,0.2-0.2,0.2-0.4c0-0.1,0-0.2-0.1-0.3s-0.2-0.1-0.3-0.1
						c-0.1,0-0.3,0-0.5-0.1c0,0,0,0-0.1,0c0,0,0,0-0.1,0c0,0,0,0,0,0c0,0,0,0,0,0c-0.3,0-0.5-0.1-0.6-0.1c-0.2-0.1-0.3-0.2-0.4-0.3
						c-0.1-0.1-0.2-0.4-0.2-0.6c0-0.3,0.1-0.5,0.2-0.7c0.1-0.2,0.3-0.3,0.5-0.4c0.2-0.1,0.5-0.1,0.8-0.1c0.2,0,0.4,0,0.6,0.1
						s0.4,0.1,0.5,0.2c0.2,0.1,0.3,0.2,0.5,0.3l-0.5,0.6c-0.2-0.1-0.4-0.2-0.6-0.3c-0.2-0.1-0.4-0.1-0.5-0.1c-0.3,0-0.5,0-0.6,0.1
						c-0.1,0.1-0.2,0.2-0.2,0.4c0,0.1,0,0.2,0.1,0.2c0.1,0.1,0.2,0.1,0.3,0.1c0.1,0,0.3,0,0.5,0c0,0,0,0,0,0s0,0,0.1,0c0,0,0,0,0,0
						c0,0,0,0,0,0c0.3,0,0.5,0.1,0.7,0.1c0.2,0.1,0.3,0.2,0.5,0.3c0.1,0.2,0.2,0.4,0.2,0.7c0,0.3-0.1,0.5-0.2,0.7
						c-0.1,0.2-0.3,0.3-0.5,0.4c-0.2,0.1-0.5,0.1-0.9,0.1C41,122.6,40.8,122.6,40.6,122.5z"/>
					<path d="M44.6,122.4c-0.2-0.1-0.4-0.3-0.5-0.6s-0.2-0.6-0.2-0.9v-0.6c0-0.3,0.1-0.6,0.2-0.9c0.1-0.2,0.3-0.4,0.5-0.6
						c0.2-0.1,0.5-0.2,0.9-0.2s0.6,0.1,0.9,0.2c0.2,0.1,0.4,0.3,0.5,0.6c0.1,0.2,0.2,0.5,0.2,0.9v0.6c0,0.4-0.1,0.7-0.2,0.9
						c-0.1,0.2-0.3,0.4-0.5,0.6c-0.2,0.1-0.5,0.2-0.9,0.2S44.8,122.5,44.6,122.4z M46,121.6c0.1-0.2,0.2-0.4,0.2-0.7v-0.6
						c0-0.3-0.1-0.5-0.2-0.7s-0.4-0.2-0.6-0.2c-0.3,0-0.5,0.1-0.6,0.2s-0.2,0.4-0.2,0.7v0.6c0,0.3,0.1,0.5,0.2,0.7
						c0.1,0.2,0.4,0.2,0.6,0.2C45.7,121.9,45.9,121.8,46,121.6z"/>
				</g>
			</g>
		</g>
	</g>
	<g>
		<defs>
			<polygon id="SVGID_87_" points="19.9,166.5 324.6,166.5 324.6,11.5 19.9,11.5 19.9,166.5 			"/>
		</defs>
		<clipPath id="SVGID_88_">
			<use xlink:href="#SVGID_87_"  style="overflow:visible;"/>
		</clipPath>
		<g class="st44">
			<defs>
				<rect id="SVGID_89_" x="19.9" y="11.5" width="304.7" height="155"/>
			</defs>
			<clipPath id="SVGID_90_">
				<use xlink:href="#SVGID_89_"  style="overflow:visible;"/>
			</clipPath>
			<g class="st45">
				<g>
					<path d="M34.6,103.5c0,0.1,0,0.2,0.1,0.2c0,0.1,0.1,0.1,0.2,0.1h0.4v0.7h-0.4c-0.3,0-0.5-0.1-0.7-0.3c-0.2-0.2-0.2-0.4-0.2-0.8
						v-4.4h0.8V103.5z"/>
					<path d="M36.6,104.4c-0.3-0.1-0.4-0.3-0.6-0.6c-0.1-0.3-0.2-0.6-0.2-0.9v-0.4c0-0.4,0.1-0.7,0.2-1c0.1-0.3,0.3-0.5,0.6-0.6
						c0.2-0.1,0.5-0.2,0.9-0.2c0.3,0,0.6,0.1,0.8,0.2c0.2,0.2,0.4,0.4,0.5,0.7c0.1,0.3,0.2,0.7,0.2,1.1v0.3h-2.6v-0.6h1.9
						c0-0.3-0.1-0.6-0.2-0.7c-0.1-0.2-0.3-0.3-0.6-0.3c-0.3,0-0.5,0.1-0.7,0.3c-0.2,0.2-0.2,0.5-0.2,0.8v0.5c0,0.3,0.1,0.6,0.3,0.7
						c0.2,0.2,0.4,0.3,0.7,0.3c0.2,0,0.3,0,0.5-0.1c0.2-0.1,0.3-0.1,0.4-0.3l0.5,0.5c-0.2,0.2-0.4,0.3-0.6,0.4
						c-0.2,0.1-0.5,0.2-0.7,0.2C37.1,104.6,36.8,104.5,36.6,104.4z"/>
					<path d="M40.5,104.4c-0.2-0.1-0.4-0.3-0.5-0.5c-0.1-0.2-0.2-0.5-0.2-0.8v-0.8c0-0.3,0.1-0.6,0.2-0.8c0.1-0.2,0.2-0.4,0.4-0.5
						s0.4-0.2,0.7-0.2c0.2,0,0.4,0.1,0.6,0.2c0.2,0.1,0.3,0.3,0.5,0.5l-0.1,0.8c0-0.2,0-0.3-0.1-0.4s-0.1-0.2-0.3-0.3
						s-0.2-0.1-0.4-0.1c-0.3,0-0.4,0.1-0.6,0.2s-0.2,0.4-0.2,0.7v0.8c0,0.3,0.1,0.5,0.2,0.6s0.3,0.2,0.6,0.2c0.2,0,0.3,0,0.4-0.1
						c0.1-0.1,0.2-0.2,0.3-0.3c0.1-0.1,0.1-0.3,0.1-0.4l0.1,0.8c-0.1,0.2-0.2,0.3-0.4,0.5c-0.2,0.1-0.4,0.2-0.6,0.2
						C40.9,104.6,40.7,104.5,40.5,104.4z M40.5,105.9c-0.2-0.1-0.4-0.3-0.5-0.5l0.5-0.5c0.1,0.1,0.2,0.2,0.4,0.3s0.3,0.1,0.4,0.1
						c0.3,0,0.5-0.1,0.7-0.2c0.2-0.2,0.2-0.4,0.2-0.7v-3.8h0.8v3.7c0,0.4-0.1,0.7-0.2,0.9c-0.1,0.3-0.3,0.4-0.6,0.6
						s-0.5,0.2-0.9,0.2C41,106.1,40.7,106,40.5,105.9z"/>
					<path d="M44.8,104.5c-0.2,0-0.4-0.1-0.6-0.2c-0.2-0.1-0.3-0.2-0.5-0.3l0.5-0.6c0.2,0.2,0.4,0.3,0.6,0.4
						c0.2,0.1,0.4,0.1,0.6,0.1c0.3,0,0.5,0,0.7-0.1c0.2-0.1,0.2-0.2,0.2-0.4c0-0.1,0-0.2-0.1-0.3s-0.2-0.1-0.3-0.1
						c-0.1,0-0.3,0-0.5-0.1c0,0,0,0-0.1,0c0,0,0,0-0.1,0c0,0,0,0,0,0c0,0,0,0,0,0c-0.3,0-0.5-0.1-0.6-0.1c-0.2-0.1-0.3-0.2-0.4-0.3
						c-0.1-0.1-0.2-0.4-0.2-0.6c0-0.3,0.1-0.5,0.2-0.7c0.1-0.2,0.3-0.3,0.5-0.4c0.2-0.1,0.5-0.1,0.8-0.1c0.2,0,0.4,0,0.6,0.1
						s0.4,0.1,0.5,0.2c0.2,0.1,0.3,0.2,0.5,0.3l-0.5,0.6c-0.2-0.1-0.4-0.2-0.6-0.3c-0.2-0.1-0.4-0.1-0.5-0.1c-0.3,0-0.5,0-0.6,0.1
						c-0.1,0.1-0.2,0.2-0.2,0.4c0,0.1,0,0.2,0.1,0.2c0.1,0.1,0.2,0.1,0.3,0.1c0.1,0,0.3,0,0.5,0c0,0,0,0,0,0s0,0,0.1,0c0,0,0,0,0,0
						c0,0,0,0,0,0c0.3,0,0.5,0.1,0.7,0.1c0.2,0.1,0.3,0.2,0.5,0.3c0.1,0.2,0.2,0.4,0.2,0.7c0,0.3-0.1,0.5-0.2,0.7
						c-0.1,0.2-0.3,0.3-0.5,0.4c-0.2,0.1-0.5,0.1-0.9,0.1C45.2,104.6,45,104.5,44.8,104.5z"/>
				</g>
			</g>
		</g>
	</g>
	<g>
		<defs>
			<polygon id="SVGID_91_" points="19.9,166.5 324.6,166.5 324.6,11.5 19.9,11.5 19.9,166.5 			"/>
		</defs>
		<clipPath id="SVGID_92_">
			<use xlink:href="#SVGID_91_"  style="overflow:visible;"/>
		</clipPath>
		<g class="st46">
			<defs>
				<rect id="SVGID_93_" x="19.9" y="11.5" width="304.7" height="155"/>
			</defs>
			<clipPath id="SVGID_94_">
				<use xlink:href="#SVGID_93_"  style="overflow:visible;"/>
			</clipPath>
			<g class="st47">
				<g>
					<path d="M26.7,86.5c-0.2,0-0.4-0.1-0.6-0.2c-0.2-0.1-0.3-0.2-0.5-0.3l0.5-0.6c0.2,0.2,0.4,0.3,0.6,0.4c0.2,0.1,0.4,0.1,0.6,0.1
						c0.3,0,0.5,0,0.7-0.1c0.2-0.1,0.2-0.2,0.2-0.4c0-0.1,0-0.2-0.1-0.3c-0.1-0.1-0.2-0.1-0.3-0.1s-0.3,0-0.5-0.1c0,0,0,0-0.1,0
						c0,0,0,0-0.1,0c0,0,0,0,0,0c0,0,0,0,0,0c-0.3,0-0.5-0.1-0.6-0.1c-0.2-0.1-0.3-0.2-0.4-0.3s-0.2-0.4-0.2-0.6s0.1-0.5,0.2-0.7
						c0.1-0.2,0.3-0.3,0.5-0.4s0.5-0.1,0.8-0.1c0.2,0,0.4,0,0.6,0.1s0.4,0.1,0.5,0.2c0.2,0.1,0.3,0.2,0.5,0.3l-0.5,0.6
						c-0.2-0.1-0.4-0.2-0.6-0.3c-0.2-0.1-0.4-0.1-0.5-0.1c-0.3,0-0.5,0-0.6,0.1s-0.2,0.2-0.2,0.4c0,0.1,0,0.2,0.1,0.2
						s0.2,0.1,0.3,0.1c0.1,0,0.3,0,0.5,0c0,0,0,0,0,0s0,0,0.1,0c0,0,0,0,0,0c0,0,0,0,0,0c0.3,0,0.5,0.1,0.7,0.1
						c0.2,0.1,0.3,0.2,0.5,0.3c0.1,0.2,0.2,0.4,0.2,0.7c0,0.3-0.1,0.5-0.2,0.7c-0.1,0.2-0.3,0.3-0.5,0.4c-0.2,0.1-0.5,0.1-0.9,0.1
						C27.1,86.6,26.9,86.5,26.7,86.5z"/>
					<path d="M30.8,85.5c0,0.1,0,0.2,0.1,0.2c0,0.1,0.1,0.1,0.2,0.1h0.4v0.7H31c-0.3,0-0.5-0.1-0.7-0.3c-0.2-0.2-0.2-0.4-0.2-0.8
						v-4.4h0.8V85.5z"/>
					<path d="M32.8,86.4c-0.3-0.1-0.4-0.3-0.6-0.6c-0.1-0.3-0.2-0.6-0.2-0.9v-0.4c0-0.4,0.1-0.7,0.2-1c0.1-0.3,0.3-0.5,0.6-0.6
						c0.2-0.1,0.5-0.2,0.9-0.2c0.3,0,0.6,0.1,0.8,0.2c0.2,0.2,0.4,0.4,0.5,0.7s0.2,0.7,0.2,1.1v0.3h-2.6v-0.6h1.9
						c0-0.3-0.1-0.6-0.2-0.7c-0.1-0.2-0.3-0.3-0.6-0.3c-0.3,0-0.5,0.1-0.7,0.3c-0.2,0.2-0.2,0.5-0.2,0.8v0.5c0,0.3,0.1,0.6,0.3,0.7
						c0.2,0.2,0.4,0.3,0.7,0.3c0.2,0,0.3,0,0.5-0.1c0.2-0.1,0.3-0.1,0.4-0.3L35,86c-0.2,0.2-0.4,0.3-0.6,0.4
						c-0.2,0.1-0.5,0.2-0.7,0.2C33.3,86.6,33,86.5,32.8,86.4z"/>
					<path d="M36.8,86.4c-0.3-0.1-0.4-0.3-0.6-0.6c-0.1-0.3-0.2-0.6-0.2-0.9v-0.4c0-0.4,0.1-0.7,0.2-1c0.1-0.3,0.3-0.5,0.6-0.6
						c0.2-0.1,0.5-0.2,0.9-0.2c0.3,0,0.6,0.1,0.8,0.2c0.2,0.2,0.4,0.4,0.5,0.7s0.2,0.7,0.2,1.1v0.3h-2.6v-0.6h1.9
						c0-0.3-0.1-0.6-0.2-0.7c-0.1-0.2-0.3-0.3-0.6-0.3c-0.3,0-0.5,0.1-0.7,0.3c-0.2,0.2-0.2,0.5-0.2,0.8v0.5c0,0.3,0.1,0.6,0.3,0.7
						c0.2,0.2,0.4,0.3,0.7,0.3c0.2,0,0.3,0,0.5-0.1c0.2-0.1,0.3-0.1,0.4-0.3l0.5,0.5c-0.2,0.2-0.4,0.3-0.6,0.4
						c-0.2,0.1-0.5,0.2-0.7,0.2C37.4,86.6,37.1,86.5,36.8,86.4z"/>
					<path d="M42.5,82.7h0.8l-1.5,3.9h-0.6l-1.5-3.9h0.8l0.9,2.7L42.5,82.7z"/>
					<path d="M45,86.4c-0.3-0.1-0.4-0.3-0.6-0.6c-0.1-0.3-0.2-0.6-0.2-0.9v-0.4c0-0.4,0.1-0.7,0.2-1c0.1-0.3,0.3-0.5,0.6-0.6
						c0.2-0.1,0.5-0.2,0.9-0.2c0.3,0,0.6,0.1,0.8,0.2c0.2,0.2,0.4,0.4,0.5,0.7s0.2,0.7,0.2,1.1v0.3h-2.6v-0.6h1.9
						c0-0.3-0.1-0.6-0.2-0.7c-0.1-0.2-0.3-0.3-0.6-0.3c-0.3,0-0.5,0.1-0.7,0.3c-0.2,0.2-0.2,0.5-0.2,0.8v0.5c0,0.3,0.1,0.6,0.3,0.7
						c0.2,0.2,0.4,0.3,0.7,0.3c0.2,0,0.3,0,0.5-0.1c0.2-0.1,0.3-0.1,0.4-0.3l0.5,0.5c-0.2,0.2-0.4,0.3-0.6,0.4
						c-0.2,0.1-0.5,0.2-0.7,0.2C45.5,86.6,45.2,86.5,45,86.4z"/>
				</g>
			</g>
		</g>
	</g>
	<g>
		<defs>
			<polygon id="SVGID_95_" points="19.9,166.5 324.6,166.5 324.6,11.5 19.9,11.5 19.9,166.5 			"/>
		</defs>
		<clipPath id="SVGID_96_">
			<use xlink:href="#SVGID_95_"  style="overflow:visible;"/>
		</clipPath>
		<g class="st48">
			<defs>
				<rect id="SVGID_97_" x="19.9" y="11.5" width="304.7" height="155"/>
			</defs>
			<clipPath id="SVGID_98_">
				<use xlink:href="#SVGID_97_"  style="overflow:visible;"/>
			</clipPath>
			<g class="st49">
				<g>
					<path d="M29.8,68.3c-0.2-0.2-0.4-0.5-0.4-0.9c0-0.4,0.1-0.7,0.3-0.9s0.5-0.3,1-0.3h1.1l0.1,0.6h-1.1c-0.2,0-0.3,0-0.4,0.1
						c-0.1,0.1-0.1,0.2-0.1,0.4c0,0.2,0.1,0.3,0.2,0.4c0.1,0.1,0.3,0.1,0.6,0.1c0.3,0,0.5,0,0.6-0.1c0.1-0.1,0.2-0.2,0.2-0.3
						l0.1,0.5c-0.1,0.1-0.1,0.2-0.2,0.3c-0.1,0.1-0.2,0.1-0.3,0.1c-0.1,0-0.3,0.1-0.4,0.1C30.4,68.5,30,68.5,29.8,68.3z M31.8,66.1
						c0-0.3-0.1-0.4-0.2-0.6s-0.3-0.2-0.6-0.2c-0.2,0-0.3,0-0.5,0.1s-0.3,0.1-0.4,0.2l-0.6-0.4c0.1-0.2,0.3-0.3,0.6-0.4
						s0.5-0.1,0.8-0.1c0.3,0,0.6,0.1,0.8,0.2c0.2,0.1,0.4,0.3,0.5,0.5c0.1,0.2,0.2,0.5,0.2,0.8v2.5h-0.7V66.1z"/>
					<path d="M33.7,64.6h0.8v3.9h-0.8V64.6z M36,66.2c0-0.3-0.1-0.5-0.2-0.6c-0.1-0.1-0.3-0.2-0.6-0.2c-0.2,0-0.4,0.1-0.6,0.2
						c-0.1,0.1-0.2,0.3-0.2,0.6l-0.1-0.7c0.1-0.2,0.3-0.4,0.5-0.5c0.2-0.1,0.4-0.2,0.6-0.2c0.4,0,0.7,0.1,1,0.4
						c0.2,0.3,0.3,0.7,0.3,1.2v2.3H36V66.2z"/>
					<path d="M37.7,63.1h0.8v5.4h-0.8V63.1z M38,67l2-2.4h0.9L38,67.9L38,67z M38.9,66.3l0.5-0.5l1.7,2.7h-0.8L38.9,66.3z"/>
					<path d="M42.5,67.5c0,0.1,0,0.2,0.1,0.2c0,0.1,0.1,0.1,0.2,0.1h0.4v0.7h-0.4c-0.3,0-0.5-0.1-0.7-0.3c-0.2-0.2-0.2-0.4-0.2-0.8
						v-4.4h0.8V67.5z"/>
					<path d="M45,68.3c-0.3-0.1-0.4-0.3-0.6-0.6c-0.1-0.3-0.2-0.6-0.2-0.9v-0.4c0-0.4,0.1-0.7,0.2-1c0.1-0.3,0.3-0.5,0.6-0.6
						c0.2-0.1,0.5-0.2,0.9-0.2c0.3,0,0.6,0.1,0.8,0.2c0.2,0.2,0.4,0.4,0.5,0.7s0.2,0.7,0.2,1.1v0.3h-2.6v-0.6h1.9
						c0-0.3-0.1-0.6-0.2-0.7c-0.1-0.2-0.3-0.3-0.6-0.3c-0.3,0-0.5,0.1-0.7,0.3c-0.2,0.2-0.2,0.5-0.2,0.8v0.5c0,0.3,0.1,0.6,0.3,0.7
						c0.2,0.2,0.4,0.3,0.7,0.3c0.2,0,0.3,0,0.5-0.1c0.2-0.1,0.3-0.1,0.4-0.3l0.5,0.5c-0.2,0.2-0.4,0.3-0.6,0.4
						c-0.2,0.1-0.5,0.2-0.7,0.2C45.5,68.5,45.2,68.5,45,68.3z"/>
				</g>
			</g>
		</g>
	</g>
	<g>
		<defs>
			<polygon id="SVGID_99_" points="19.9,166.5 324.6,166.5 324.6,11.5 19.9,11.5 19.9,166.5 			"/>
		</defs>
		<clipPath id="SVGID_100_">
			<use xlink:href="#SVGID_99_"  style="overflow:visible;"/>
		</clipPath>
		<g class="st50">
			<defs>
				<rect id="SVGID_101_" x="19.9" y="11.5" width="304.7" height="155"/>
			</defs>
			<clipPath id="SVGID_102_">
				<use xlink:href="#SVGID_101_"  style="overflow:visible;"/>
			</clipPath>
			<g class="st51">
				<g>
					<path d="M32.2,45.1H33v5.4h-0.8V45.1z M33.3,50.4c-0.2-0.1-0.3-0.3-0.4-0.5l0.1-0.8c0,0.2,0,0.3,0.1,0.4s0.1,0.2,0.3,0.3
						s0.3,0.1,0.4,0.1c0.3,0,0.4-0.1,0.6-0.2c0.1-0.2,0.2-0.4,0.2-0.6v-0.8c0-0.3-0.1-0.5-0.2-0.7s-0.3-0.2-0.6-0.2
						c-0.2,0-0.3,0-0.4,0.1c-0.1,0.1-0.2,0.1-0.3,0.3S33,47.9,33,48l-0.1-0.7c0.1-0.2,0.3-0.4,0.5-0.5s0.4-0.2,0.6-0.2
						c0.3,0,0.5,0.1,0.7,0.2c0.2,0.1,0.3,0.3,0.4,0.5s0.2,0.5,0.2,0.8V49c0,0.3-0.1,0.6-0.2,0.8c-0.1,0.2-0.3,0.4-0.5,0.5
						c-0.2,0.1-0.4,0.2-0.7,0.2C33.7,50.5,33.5,50.5,33.3,50.4z"/>
					<path d="M36.4,50.2c-0.2-0.2-0.4-0.5-0.4-0.9c0-0.4,0.1-0.7,0.3-0.9s0.5-0.3,1-0.3h1.1l0.1,0.6h-1.1c-0.2,0-0.3,0-0.4,0.1
						c-0.1,0.1-0.1,0.2-0.1,0.4c0,0.2,0.1,0.3,0.2,0.4c0.1,0.1,0.3,0.1,0.6,0.1c0.3,0,0.5,0,0.6-0.1c0.1-0.1,0.2-0.2,0.2-0.3
						l0.1,0.5c-0.1,0.1-0.1,0.2-0.2,0.3c-0.1,0.1-0.2,0.1-0.3,0.1c-0.1,0-0.3,0.1-0.4,0.1C37,50.5,36.7,50.4,36.4,50.2z M38.5,48
						c0-0.3-0.1-0.4-0.2-0.6s-0.3-0.2-0.6-0.2c-0.2,0-0.3,0-0.5,0.1s-0.3,0.1-0.4,0.2l-0.6-0.4c0.1-0.2,0.3-0.3,0.6-0.4
						s0.5-0.1,0.8-0.1c0.3,0,0.6,0.1,0.8,0.2c0.2,0.1,0.4,0.3,0.5,0.5c0.1,0.2,0.2,0.5,0.2,0.8v2.5h-0.7V48z"/>
					<path d="M41,50.3c-0.2-0.1-0.4-0.3-0.6-0.6c-0.1-0.2-0.2-0.6-0.2-0.9v-0.6c0-0.3,0.1-0.6,0.2-0.9c0.1-0.2,0.3-0.4,0.6-0.6
						c0.2-0.1,0.6-0.2,0.9-0.2c0.2,0,0.4,0,0.6,0.1c0.2,0,0.3,0.1,0.5,0.2c0.1,0.1,0.3,0.2,0.4,0.3l-0.5,0.5
						c-0.1-0.1-0.2-0.2-0.4-0.3c-0.1-0.1-0.3-0.1-0.5-0.1c-0.3,0-0.5,0.1-0.7,0.2c-0.2,0.2-0.2,0.4-0.2,0.7v0.6
						c0,0.3,0.1,0.5,0.2,0.7c0.2,0.2,0.4,0.2,0.7,0.2c0.2,0,0.3,0,0.5-0.1c0.1-0.1,0.3-0.2,0.4-0.3l0.5,0.5
						c-0.1,0.1-0.2,0.2-0.4,0.3c-0.1,0.1-0.3,0.2-0.5,0.2c-0.2,0-0.4,0.1-0.6,0.1C41.5,50.5,41.2,50.5,41,50.3z"/>
					<path d="M44.4,45.1h0.8v5.4h-0.8V45.1z M44.7,49l2-2.4h0.9l-2.9,3.3L44.7,49z M45.6,48.3l0.5-0.5l1.7,2.7H47L45.6,48.3z"/>
				</g>
			</g>
		</g>
	</g>
	<g>
		<defs>
			<polygon id="SVGID_103_" points="19.9,166.5 324.6,166.5 324.6,11.5 19.9,11.5 19.9,166.5 			"/>
		</defs>
		<clipPath id="SVGID_104_">
			<use xlink:href="#SVGID_103_"  style="overflow:visible;"/>
		</clipPath>
		<g class="st52">
			<defs>
				<rect id="SVGID_105_" x="19.9" y="11.5" width="304.7" height="155"/>
			</defs>
			<clipPath id="SVGID_106_">
				<use xlink:href="#SVGID_105_"  style="overflow:visible;"/>
			</clipPath>
			<g class="st53">
				<g>
					<path d="M30.6,32.3c-0.2-0.1-0.4-0.3-0.5-0.6c-0.1-0.3-0.2-0.6-0.2-0.9v-0.6c0-0.3,0.1-0.6,0.2-0.9s0.3-0.4,0.5-0.6
						c0.2-0.1,0.5-0.2,0.9-0.2s0.6,0.1,0.9,0.2c0.2,0.1,0.4,0.3,0.5,0.6c0.1,0.2,0.2,0.5,0.2,0.9v0.6c0,0.4-0.1,0.7-0.2,0.9
						c-0.1,0.2-0.3,0.4-0.5,0.6c-0.2,0.1-0.5,0.2-0.9,0.2S30.9,32.5,30.6,32.3z M32.1,31.6c0.1-0.2,0.2-0.4,0.2-0.7v-0.6
						c0-0.3-0.1-0.5-0.2-0.7c-0.1-0.2-0.4-0.2-0.6-0.2c-0.3,0-0.5,0.1-0.6,0.2c-0.1,0.2-0.2,0.4-0.2,0.7v0.6c0,0.3,0.1,0.5,0.2,0.7
						c0.1,0.2,0.4,0.2,0.6,0.2C31.7,31.8,32,31.7,32.1,31.6z"/>
					<path d="M33.8,28.6h1.7v0.7h-1.7V28.6z M34.4,32.2c-0.1-0.2-0.2-0.4-0.2-0.8v-4h0.8v4c0,0.1,0,0.2,0.1,0.2s0.1,0.1,0.2,0.1h0.4
						v0.7h-0.4C34.8,32.5,34.5,32.4,34.4,32.2z"/>
					<path d="M36.6,27.1h0.8v5.4h-0.8V27.1z M38.9,30.1c0-0.3-0.1-0.5-0.2-0.6c-0.1-0.1-0.3-0.2-0.6-0.2c-0.2,0-0.4,0.1-0.6,0.2
						c-0.1,0.1-0.2,0.3-0.2,0.5l-0.1-0.7c0.1-0.2,0.3-0.4,0.5-0.5c0.2-0.1,0.4-0.2,0.6-0.2c0.4,0,0.7,0.1,1,0.4
						c0.2,0.3,0.3,0.7,0.3,1.2v2.3h-0.8V30.1z"/>
					<path d="M41.3,32.3c-0.3-0.1-0.4-0.3-0.6-0.6c-0.1-0.3-0.2-0.6-0.2-0.9v-0.4c0-0.4,0.1-0.7,0.2-1c0.1-0.3,0.3-0.5,0.6-0.6
						c0.2-0.1,0.5-0.2,0.9-0.2c0.3,0,0.6,0.1,0.8,0.2c0.2,0.2,0.4,0.4,0.5,0.7s0.2,0.7,0.2,1.1v0.3h-2.6v-0.6H43
						c0-0.3-0.1-0.6-0.2-0.7c-0.1-0.2-0.3-0.3-0.6-0.3c-0.3,0-0.5,0.1-0.7,0.3c-0.2,0.2-0.2,0.5-0.2,0.8v0.5c0,0.3,0.1,0.6,0.3,0.7
						c0.2,0.2,0.4,0.3,0.7,0.3c0.2,0,0.3,0,0.5-0.1c0.2-0.1,0.3-0.1,0.4-0.3l0.5,0.5c-0.2,0.2-0.4,0.3-0.6,0.4
						c-0.2,0.1-0.5,0.2-0.7,0.2C41.9,32.5,41.6,32.5,41.3,32.3z"/>
					<path d="M44.7,28.6h0.8v3.9h-0.8V28.6z M46.6,29.4c-0.1,0-0.2-0.1-0.4-0.1c-0.2,0-0.4,0.1-0.6,0.2c-0.1,0.1-0.2,0.3-0.2,0.6
						l-0.1-0.7c0.1-0.2,0.3-0.4,0.5-0.5s0.4-0.2,0.6-0.2c0.2,0,0.3,0,0.5,0.1s0.3,0.1,0.4,0.2l-0.5,0.7
						C46.8,29.5,46.7,29.4,46.6,29.4z"/>
				</g>
			</g>
		</g>
	</g>
	<g>
		<defs>
			<polygon id="SVGID_107_" points="19.9,166.5 324.6,166.5 324.6,11.5 19.9,11.5 19.9,166.5 			"/>
		</defs>
		<clipPath id="SVGID_108_">
			<use xlink:href="#SVGID_107_"  style="overflow:visible;"/>
		</clipPath>
		<polygon class="st54" points="20.2,11.8 324.4,11.8 324.4,166.3 20.2,166.3 20.2,11.8 		"/>
	</g>
</g>
</svg>
