<?xml version="1.0" encoding="utf-8"?>
<!-- Generator: Adobe Illustrator 24.0.2, SVG Export Plug-In . SVG Version: 6.00 Build 0)  -->
<svg version="1.1" id="Layer_1" xmlns="http://www.w3.org/2000/svg" xmlns:xlink="http://www.w3.org/1999/xlink" x="0px" y="0px"
	 viewBox="0 0 800 192.3" style="enable-background:new 0 0 800 192.3;" xml:space="preserve">
<style type="text/css">
	.st0{fill:#444444;}
	.st1{fill:none;stroke:#CCCCCC;}
	.st2{font-family:'ArialMT';}
	.st3{font-size:10px;}
</style>
<g id="swarm" transform="translate(25,0)">
	<g id="circles">
		<circle id="circle" class="st0" cx="334.6" cy="78.9" r="3"/>
		<circle id="circle_1_" class="st0" cx="65.7" cy="78.2" r="3"/>
		<circle id="circle_2_" class="st0" cx="58.4" cy="64.2" r="3"/>
		<circle id="circle_3_" class="st0" cx="50.4" cy="83.8" r="3"/>
		<circle id="circle_4_" class="st0" cx="747" cy="78.9" r="3"/>
		<circle id="circle_5_" class="st0" cx="66.6" cy="66.2" r="3"/>
		<circle id="circle_6_" class="st0" cx="37.2" cy="88.2" r="3"/>
		<circle id="circle_7_" class="st0" cx="-7.4" cy="107.3" r="3"/>
		<circle id="circle_8_" class="st0" cx="18.6" cy="119.7" r="3"/>
		<circle id="circle_9_" class="st0" cx="60.4" cy="84.2" r="3"/>
		<circle id="circle_10_" class="st0" cx="164.7" cy="78.9" r="3"/>
		<circle id="circle_11_" class="st0" cx="138.3" cy="81.5" r="3"/>
		<circle id="circle_12_" class="st0" cx="108.5" cy="82.9" r="3"/>
		<circle id="circle_13_" class="st0" cx="144.4" cy="76.3" r="3"/>
		<circle id="circle_14_" class="st0" cx="34.7" cy="80.6" r="3"/>
		<circle id="circle_15_" class="st0" cx="26.9" cy="79.1" r="3"/>
		<circle id="circle_16_" class="st0" cx="197.6" cy="78.9" r="3"/>
		<circle id="circle_17_" class="st0" cx="-1.9" cy="80.2" r="3"/>
		<circle id="circle_18_" class="st0" cx="211.3" cy="78.9" r="3"/>
		<circle id="circle_19_" class="st0" cx="27.1" cy="57.9" r="3"/>
		<circle id="circle_20_" class="st0" cx="55.7" cy="77.8" r="3"/>
		<circle id="circle_21_" class="st0" cx="53.1" cy="70.2" r="3"/>
		<circle id="circle_22_" class="st0" cx="32" cy="94.2" r="3"/>
		<circle id="circle_23_" class="st0" cx="77.5" cy="78.5" r="3"/>
		<circle id="circle_24_" class="st0" cx="60.9" cy="92.2" r="3"/>
		<circle id="circle_25_" class="st0" cx="245.5" cy="78.9" r="3"/>
		<circle id="circle_26_" class="st0" cx="314" cy="78.9" r="3"/>
		<circle id="circle_27_" class="st0" cx="39.8" cy="95.8" r="3"/>
		<circle id="circle_28_" class="st0" cx="12.8" cy="51.7" r="3"/>
		<circle id="circle_29_" class="st0" cx="68.3" cy="85.7" r="3"/>
		<circle id="circle_30_" class="st0" cx="21.6" cy="85" r="3"/>
		<circle id="circle_31_" class="st0" cx="124.9" cy="78.9" r="3"/>
		<circle id="circle_32_" class="st0" cx="8.5" cy="89.4" r="3"/>
		<circle id="circle_33_" class="st0" cx="267.4" cy="78.9" r="3"/>
		<circle id="circle_34_" class="st0" cx="179.8" cy="78.9" r="3"/>
		<circle id="circle_35_" class="st0" cx="24.4" cy="71.5" r="3"/>
		<circle id="circle_36_" class="st0" cx="0.9" cy="66.6" r="3"/>
		<circle id="circle_37_" class="st0" cx="-9.7" cy="78.6" r="3"/>
		<circle id="circle_38_" class="st0" cx="45.1" cy="89.8" r="3"/>
		<circle id="circle_39_" class="st0" cx="505.9" cy="78.9" r="3"/>
		<circle id="circle_40_" class="st0" cx="34.5" cy="101.8" r="3"/>
		<circle id="circle_41_" class="st0" cx="50.5" cy="62.6" r="3"/>
		<circle id="circle_42_" class="st0" cx="42.5" cy="82.2" r="3"/>
		<circle id="circle_43_" class="st0" cx="16.6" cy="69.9" r="3"/>
		<circle id="circle_44_" class="st0" cx="-2.7" cy="37.4" r="3"/>
		<circle id="circle_45_" class="st0" cx="26.4" cy="121.3" r="3"/>
		<circle id="circle_46_" class="st0" cx="17.1" cy="44.9" r="3"/>
		<circle id="circle_47_" class="st0" cx="34.9" cy="59.5" r="3"/>
		<circle id="circle_48_" class="st0" cx="29.2" cy="107.8" r="3"/>
		<circle id="circle_49_" class="st0" cx="349.7" cy="78.9" r="3"/>
		<circle id="circle_50_" class="st0" cx="18.8" cy="98.6" r="3"/>
		<circle id="circle_51_" class="st0" cx="29.6" cy="65.5" r="3"/>
		<circle id="circle_52_" class="st0" cx="21.3" cy="38.1" r="3"/>
		<circle id="circle_53_" class="st0" cx="8.2" cy="110.5" r="3"/>
		<circle id="circle_54_" class="st0" cx="11.3" cy="75.8" r="3"/>
		<circle id="circle_55_" class="st0" cx="23.5" cy="49.6" r="3"/>
		<circle id="circle_56_" class="st0" cx="14" cy="62.3" r="3"/>
		<circle id="circle_57_" class="st0" cx="47" cy="54.3" r="3"/>
		<circle id="circle_58_" class="st0" cx="5.7" cy="102.9" r="3"/>
		<circle id="circle_59_" class="st0" cx="32.2" cy="73.1" r="3"/>
		<circle id="circle_60_" class="st0" cx="-3.1" cy="51.2" r="3"/>
		<circle id="circle_61_" class="st0" cx="6" cy="81.8" r="3"/>
		<circle id="circle_62_" class="st0" cx="21.8" cy="63.9" r="3"/>
		<circle id="circle_63_" class="st0" cx="-4.7" cy="93.8" r="3"/>
		<circle id="circle_64_" class="st0" cx="1.1" cy="44.4" r="3"/>
		<circle id="circle_65_" class="st0" cx="108.5" cy="74.9" r="3"/>
		<circle id="circle_66_" class="st0" cx="8" cy="131.7" r="3"/>
		<circle id="circle_67_" class="st0" cx="54.9" cy="55.9" r="3"/>
		<circle id="circle_68_" class="st0" cx="40" cy="74.6" r="3"/>
		<circle id="circle_69_" class="st0" cx="3.4" cy="74.2" r="3"/>
		<circle id="circle_70_" class="st0" cx="-6.9" cy="44.2" r="3"/>
		<circle id="circle_71_" class="st0" cx="21.4" cy="106.1" r="3"/>
		<circle id="circle_72_" class="st0" cx="60.9" cy="71.8" r="3"/>
		<circle id="circle_73_" class="st0" cx="4.9" cy="51.4" r="3"/>
		<circle id="circle_74_" class="st0" cx="13.3" cy="125.7" r="3"/>
		<circle id="circle_75_" class="st0" cx="9.5" cy="30.8" r="3"/>
		<circle id="circle_76_" class="st0" cx="52.9" cy="91.4" r="3"/>
		<circle id="circle_77_" class="st0" cx="78.5" cy="86.5" r="3"/>
		<circle id="circle_78_" class="st0" cx="39.2" cy="52.7" r="3"/>
		<circle id="circle_79_" class="st0" cx="26.7" cy="100.2" r="3"/>
		<circle id="circle_80_" class="st0" cx="27.7" cy="42.8" r="3"/>
		<circle id="circle_81_" class="st0" cx="42.7" cy="61" r="3"/>
		<circle id="circle_82_" class="st0" cx="13.8" cy="83.4" r="3"/>
		<circle id="circle_83_" class="st0" cx="1.5" cy="30.6" r="3"/>
		<circle id="circle_84_" class="st0" cx="11" cy="97" r="3"/>
		<circle id="circle_85_" class="st0" cx="-7.2" cy="86.2" r="3"/>
		<circle id="circle_86_" class="st0" cx="5.3" cy="37.6" r="3"/>
		<circle id="circle_87_" class="st0" cx="34.2" cy="122.9" r="3"/>
		<circle id="circle_88_" class="st0" cx="6.7" cy="59.2" r="3"/>
		<circle id="circle_89_" class="st0" cx="8.7" cy="68.3" r="3"/>
		<circle id="circle_90_" class="st0" cx="-2.1" cy="101.3" r="3"/>
		<circle id="circle_91_" class="st0" cx="35.6" cy="44.4" r="3"/>
		<circle id="circle_92_" class="st0" cx="42.3" cy="103.4" r="3"/>
		<circle id="circle_93_" class="st0" cx="47.8" cy="76.2" r="3"/>
		<circle id="circle_94_" class="st0" cx="45.3" cy="68.6" r="3"/>
		<circle id="circle_95_" class="st0" cx="23.9" cy="113.7" r="3"/>
		<circle id="circle_96_" class="st0" cx="-1.3" cy="59" r="3"/>
		<circle id="circle_97_" class="st0" cx="31.7" cy="115.3" r="3"/>
		<circle id="circle_98_" class="st0" cx="24.1" cy="92.6" r="3"/>
		<circle id="circle_99_" class="st0" cx="25.5" cy="31.3" r="3"/>
		<circle id="circle_100_" class="st0" cx="21.1" cy="127.3" r="3"/>
		<circle id="circle_101_" class="st0" cx="16.3" cy="91" r="3"/>
		<circle id="circle_102_" class="st0" cx="-2.4" cy="122.5" r="3"/>
		<circle id="circle_103_" class="st0" cx="16.1" cy="112.1" r="3"/>
		<circle id="circle_104_" class="st0" cx="31.4" cy="51.1" r="3"/>
		<circle id="circle_105_" class="st0" cx="2.9" cy="116.5" r="3"/>
		<circle id="circle_106_" class="st0" cx="37.4" cy="67" r="3"/>
		<circle id="circle_107_" class="st0" cx="-4.4" cy="72.6" r="3"/>
		<circle id="circle_108_" class="st0" cx="5.4" cy="124.1" r="3"/>
		<circle id="circle_109_" class="st0" cx="17.5" cy="31.1" r="3"/>
		<circle id="circle_110_" class="st0" cx="19.3" cy="56.3" r="3"/>
		<circle id="circle_111_" class="st0" cx="13.5" cy="104.5" r="3"/>
		<circle id="circle_112_" class="st0" cx="72.3" cy="72.4" r="3"/>
		<circle id="circle_113_" class="st0" cx="10.7" cy="118.1" r="3"/>
		<circle id="circle_114_" class="st0" cx="0.4" cy="108.9" r="3"/>
		<circle id="circle_115_" class="st0" cx="-10" cy="99.7" r="3"/>
		<circle id="circle_116_" class="st0" cx="47.6" cy="97.4" r="3"/>
		<circle id="circle_117_" class="st0" cx="13.8" cy="24" r="3"/>
		<circle id="circle_118_" class="st0" cx="-4.9" cy="114.9" r="3"/>
		<circle id="circle_119_" class="st0" cx="29.4" cy="86.6" r="3"/>
		<circle id="circle_120_" class="st0" cx="13.3" cy="37.9" r="3"/>
		<circle id="circle_121_" class="st0" cx="15.8" cy="133.3" r="3"/>
		<circle id="circle_122_" class="st0" cx="0.7" cy="87.8" r="3"/>
		<circle id="circle_123_" class="st0" cx="3.2" cy="95.4" r="3"/>
		<circle id="circle_124_" class="st0" cx="37" cy="109.4" r="3"/>
		<circle id="circle_125_" class="st0" cx="32" cy="36" r="3"/>
		<circle id="circle_126_" class="st0" cx="19.1" cy="77.4" r="3"/>
		<circle id="circle_127_" class="st0" cx="-9" cy="56.6" r="3"/>
		<circle id="circle_128_" class="st0" cx="9.1" cy="44.6" r="3"/>
		<circle id="circle_129_" class="st0" cx="28.9" cy="128.9" r="3"/>
		<circle id="circle_130_" class="st0" cx="5.8" cy="23.8" r="3"/>
		<circle id="circle_131_" class="st0" cx="-6.8" cy="64.8" r="3"/>
	</g>
	<g id="labels">
	</g>
</g>
<g id="_x22_x-axis" transform="translate(25,559)">
	<path class="st1" d="M3.5-391.6v-5.5h744v5.5"/>
	<g transform="translate(67.89779005524862,0)">
		<line class="st1" x1="0" y1="-397.6" x2="0" y2="-391.6"/>
		<text transform="matrix(1 0 0 1 -5.5615 -381.5377)" class="st2 st3">50</text>
	</g>
	<g transform="translate(136.40607734806628,0)">
		<line class="st1" x1="0" y1="-397.6" x2="0" y2="-391.6"/>
		<text transform="matrix(1 0 0 1 -8.3423 -381.5377)" class="st2 st3">100</text>
	</g>
	<g transform="translate(204.91436464088395,0)">
		<line class="st1" x1="0" y1="-397.6" x2="0" y2="-391.6"/>
		<text transform="matrix(1 0 0 1 -8.3423 -381.5377)" class="st2 st3">150</text>
	</g>
	<g transform="translate(273.4226519337017,0)">
		<line class="st1" x1="0" y1="-397.6" x2="0" y2="-391.6"/>
		<text transform="matrix(1 0 0 1 -8.3423 -381.5377)" class="st2 st3">200</text>
	</g>
	<g transform="translate(341.93093922651934,0)">
		<line class="st1" x1="0" y1="-397.6" x2="0" y2="-391.6"/>
		<text transform="matrix(1 0 0 1 -8.3423 -381.5377)" class="st2 st3">250</text>
	</g>
	<g transform="translate(410.43922651933707,0)">
		<line class="st1" x1="0" y1="-397.6" x2="0" y2="-391.6"/>
		<text transform="matrix(1 0 0 1 -8.3423 -381.5377)" class="st2 st3">300</text>
	</g>
	<g transform="translate(478.94751381215474,0)">
		<line class="st1" x1="0" y1="-397.6" x2="0" y2="-391.6"/>
		<text transform="matrix(1 0 0 1 -8.3423 -381.5377)" class="st2 st3">350</text>
	</g>
	<g transform="translate(547.4558011049724,0)">
		<line class="st1" x1="0" y1="-397.6" x2="0" y2="-391.6"/>
		<text transform="matrix(1 0 0 1 -8.3423 -381.5377)" class="st2 st3">400</text>
	</g>
	<g transform="translate(615.9640883977901,0)">
		<line class="st1" x1="0" y1="-397.6" x2="0" y2="-391.6"/>
		<text transform="matrix(1 0 0 1 -8.3423 -381.5377)" class="st2 st3">450</text>
	</g>
	<g transform="translate(684.4723756906077,0)">
		<line class="st1" x1="0" y1="-397.6" x2="0" y2="-391.6"/>
		<text transform="matrix(1 0 0 1 -8.3423 -381.5377)" class="st2 st3">500</text>
	</g>
</g>
</svg>
